999
dxfrw 0.6.3
  0
SECTION
  2
HEADER
  9
$ACADVER
  1
AC1021
  9
$DWGCODEPAGE
  3
ANSI_1252
  9
$INSBASE
 10
0
 20
0
 30
0
  9
$EXTMIN
 10
343406.5511236227
 20
7367929.945376378
 30
0
  9
$EXTMAX
 10
345462.6215923394
 20
7370319.315219712
 30
0
  9
$LIMMIN
 10
0
 20
0
  9
$LIMMAX
 10
420
 20
297
  9
$ORTHOMODE
 70
    0
  9
$REGENMODE
 70
    1
  9
$FILLMODE
 70
    1
  9
$QTEXTMODE
 70
    0
  9
$MIRRTEXT
 70
    0
  9
$LTSCALE
 40
1
  9
$ATTMODE
 70
    1
  9
$TEXTSIZE
 40
2.5
  9
$TRACEWID
 40
1
  9
$TEXTSTYLE
  7
Standard
  9
$CLAYER
  8
RUA LETICIA SALES - 31_12_20 - PHANTOM - DJI_0038
  9
$CELTYPE
  6
ByLayer
  9
$CECOLOR
 62
  256
  9
$CELTSCALE
 40
1
  9
$DISPSILH
 70
    0
  9
$DIMSCALE
 40
1
  9
$DIMASZ
 40
2.5
  9
$DIMEXO
 40
0.625
  9
$DIMDLI
 40
3.75
  9
$DIMRND
 40
0
  9
$DIMDLE
 40
0
  9
$DIMEXE
 40
1.25
  9
$DIMTP
 40
0
  9
$DIMTM
 40
0
  9
$DIMTXT
 40
2.5
  9
$DIMCEN
 40
2.5
  9
$DIMTSZ
 40
0
  9
$DIMTOL
 70
    0
  9
$DIMLIM
 70
    0
  9
$DIMTIH
 70
    0
  9
$DIMTOH
 70
    0
  9
$DIMSE1
 70
    0
  9
$DIMSE2
 70
    0
  9
$DIMTAD
 70
    1
  9
$DIMZIN
 70
    8
  9
$DIMBLK
  1

  9
$DIMASO
 70
    1
  9
$DIMSHO
 70
    1
  9
$DIMPOST
  1

  9
$DIMAPOST
  1

  9
$DIMALT
 70
    0
  9
$DIMALTD
 70
    3
  9
$DIMALTF
 40
0.03937007874016
  9
$DIMLFAC
 40
1
  9
$DIMTOFL
 70
    1
  9
$DIMTVP
 40
0
  9
$DIMTIX
 70
    0
  9
$DIMSOXD
 70
    0
  9
$DIMSAH
 70
    0
  9
$DIMBLK1
  1

  9
$DIMBLK2
  1

  9
$DIMSTYLE
  2
ISO-25
  9
$DIMCLRD
 70
    0
  9
$DIMCLRE
 70
    0
  9
$DIMCLRT
 70
    0
  9
$DIMTFAC
 40
1
  9
$DIMGAP
 40
0.625
  9
$DIMJUST
 70
    0
  9
$DIMSD1
 70
    0
  9
$DIMSD2
 70
    0
  9
$DIMTOLJ
 70
    0
  9
$DIMTZIN
 70
    8
  9
$DIMALTZ
 70
    0
  9
$DIMALTTZ
 70
    0
  9
$DIMUPT
 70
    0
  9
$DIMDEC
 70
    2
  9
$DIMTDEC
 70
    2
  9
$DIMALTU
 70
    2
  9
$DIMALTTD
 70
    3
  9
$DIMTXSTY
  7
Standard
  9
$DIMAUNIT
 70
    0
  9
$DIMADEC
 70
    0
  9
$DIMALTRND
 40
0
  9
$DIMAZIN
 70
    0
  9
$DIMDSEP
 70
   44
  9
$DIMATFIT
 70
    3
  9
$DIMFRAC
 70
    0
  9
$DIMLDRBLK
  1

  9
$DIMLUNIT
 70
    2
  9
$DIMLWD
 70
   -2
  9
$DIMLWE
 70
   -2
  9
$DIMTMOVE
 70
    0
  9
$DIMFXL
 40
1
  9
$DIMFXLON
 70
    0
  9
$DIMJOGANG
 40
0.7853981633974483
  9
$DIMTFILL
 70
    0
  9
$DIMTFILLCLR
 70
    0
  9
$DIMARCSYM
 70
    0
  9
$DIMLTYPE
  6

  9
$DIMLTEX1
  6

  9
$DIMLTEX2
  6

  9
$LUNITS
 70
    2
  9
$LUPREC
 70
    4
  9
$SKETCHINC
 40
1
  9
$FILLETRAD
 40
0
  9
$AUNITS
 70
    0
  9
$AUPREC
 70
    0
  9
$MENU
  1
.
  9
$ELEVATION
 40
0
  9
$PELEVATION
 40
0
  9
$THICKNESS
 40
0
  9
$LIMCHECK
 70
    0
  9
$CHAMFERA
 40
0
  9
$CHAMFERB
 40
0
  9
$CHAMFERC
 40
0
  9
$CHAMFERD
 40
0
  9
$SKPOLY
 70
    0
  9
$USRTIMER
 70
    1
  9
$ANGBASE
 50
0
  9
$ANGDIR
 70
    0
  9
$PDMODE
 70
    0
  9
$PDSIZE
 40
0
  9
$PLINEWID
 40
0
  9
$SPLFRAME
 70
    0
  9
$SPLINETYPE
 70
    6
  9
$SPLINESEGS
 70
    8
  9
$HANDSEED
  5
20000
  9
$SURFTAB1
 70
    6
  9
$SURFTAB2
 70
    6
  9
$SURFTYPE
 70
    6
  9
$SURFU
 70
    6
  9
$SURFV
 70
    6
  9
$UCSBASE
  2

  9
$UCSNAME
  2

  9
$UCSORG
 10
0
 20
0
 30
0
  9
$UCSXDIR
 10
1
 20
0
 30
0
  9
$UCSYDIR
 10
0
 20
1
 30
0
  9
$UCSORTHOREF
  2

  9
$UCSORTHOVIEW
 70
    0
  9
$UCSORGTOP
 10
0
 20
0
 30
0
  9
$UCSORGBOTTOM
 10
0
 20
0
 30
0
  9
$UCSORGLEFT
 10
0
 20
0
 30
0
  9
$UCSORGRIGHT
 10
0
 20
0
 30
0
  9
$UCSORGFRONT
 10
0
 20
0
 30
0
  9
$UCSORGBACK
 10
0
 20
0
 30
0
  9
$PUCSBASE
  2

  9
$PUCSNAME
  2

  9
$PUCSORG
 10
0
 20
0
 30
0
  9
$PUCSXDIR
 10
1
 20
0
 30
0
  9
$PUCSYDIR
 10
0
 20
1
 30
0
  9
$PUCSORTHOREF
  2

  9
$PUCSORTHOVIEW
 70
    0
  9
$PUCSORGTOP
 10
0
 20
0
 30
0
  9
$PUCSORGBOTTOM
 10
0
 20
0
 30
0
  9
$PUCSORGLEFT
 10
0
 20
0
 30
0
  9
$PUCSORGRIGHT
 10
0
 20
0
 30
0
  9
$PUCSORGFRONT
 10
0
 20
0
 30
0
  9
$PUCSORGBACK
 10
0
 20
0
 30
0
  9
$USERI1
 70
    0
  9
$USERI2
 70
    0
  9
$USERI3
 70
    0
  9
$USERI4
 70
    0
  9
$USERI5
 70
    0
  9
$USERR1
 40
0
  9
$USERR2
 40
0
  9
$USERR3
 40
0
  9
$USERR4
 40
0
  9
$USERR5
 40
0
  9
$WORLDVIEW
 70
    1
  9
$SHADEDGE
 70
    3
  9
$SHADEDIF
 70
   70
  9
$TILEMODE
 70
    1
  9
$MAXACTVP
 70
   64
  9
$PINSBASE
 10
0
 20
0
 30
0
  9
$PLIMCHECK
 70
    0
  9
$PEXTMIN
 10
0
 20
0
 30
0
  9
$PEXTMAX
 10
0
 20
0
 30
0
  9
$GRIDMODE
 70
    0
  9
$SNAPSTYLE
 70
    0
  9
$PLIMMIN
 10
0
 20
0
  9
$PLIMMAX
 10
12
 20
9
  9
$UNITMODE
 70
    0
  9
$VISRETAIN
 70
    1
  9
$PLINEGEN
 70
    0
  9
$PSLTSCALE
 70
    1
  9
$TREEDEPTH
 70
 3020
  9
$CMLSTYLE
  2
Standard
  9
$CMLJUST
 70
    0
  9
$CMLSCALE
 40
20
  9
$PROXYGRAPHICS
 70
    1
  9
$MEASUREMENT
 70
    1
  9
$CELWEIGHT
370
   -1
  9
$ENDCAPS
280
    0
  9
$JOINSTYLE
280
    0
  9
$LWDISPLAY
290
    0
  9
$INSUNITS
 70
    4
  9
$HYPERLINKBASE
  1

  9
$STYLESHEET
  1

  9
$XEDIT
290
    1
  9
$CEPSNTYPE
380
    0
  9
$PSTYLEMODE
290
    1
  9
$EXTNAMES
290
    1
  9
$PSVPSCALE
 40
0
  9
$OLESTARTUP
290
    0
  9
$SORTENTS
280
  127
  9
$INDEXCTL
280
    0
  9
$HIDETEXT
280
    1
  9
$XCLIPFRAME
290
    0
  9
$HALOGAP
280
    0
  9
$OBSCOLOR
 70
  257
  9
$OBSLTYPE
280
    0
  9
$INTERSECTIONDISPLAY
280
    0
  9
$INTERSECTIONCOLOR
 70
  257
  9
$DIMASSOC
280
    2
  9
$PROJECTNAME
  1

  9
$CAMERADISPLAY
290
    0
  9
$LENSLENGTH
 40
50
  9
$CAMERAHEIGHT
 40
0
  9
$STEPSPERSEC
 40
2
  9
$STEPSIZE
 40
6
  9
$3DDWFPREC
 40
2
  9
$PSOLWIDTH
 40
5
  9
$PSOLHEIGHT
 40
80
  9
$LOFTANG1
 40
1.570795999999999
  9
$LOFTANG2
 40
1.570795999999999
  9
$LOFTMAG1
 40
0
  9
$LOFTMAG2
 40
0
  9
$LOFTPARAM
 70
    7
  9
$LOFTNORMALS
280
    1
  9
$LATITUDE
 40
37.795
  9
$LONGITUDE
 40
-122.394
  9
$NORTHDIRECTION
 40
0
  9
$TIMEZONE
 70
-8000
  9
$LIGHTGLYPHDISPLAY
280
    1
  9
$TILEMODELIGHTSYNCH
280
    1
  9
$SOLIDHIST
280
    0
  9
$SHOWHIST
280
    1
  9
$DWFFRAME
280
    2
  9
$DGNFRAME
280
    0
  9
$REALWORLDSCALE
290
    1
  9
$INTERFERECOLOR
 62
    1
  9
$CSHADOW
280
    0
  9
$SHADOWPLANELOCATION
 40
0
  0
ENDSEC
  0
SECTION
  2
CLASSES
  0
ENDSEC
  0
SECTION
  2
TABLES
  0
TABLE
  2
VPORT
  5
8
330
0
100
AcDbSymbolTable
 70
    1
  0
VPORT
  5
31
330
2
100
AcDbSymbolTableRecord
100
AcDbViewportTableRecord
  2
*ACTIVE
 70
    0
 10
0
 20
0
 11
1
 21
1
 12
173012.9178823832
 22
3685173.197321935
 13
0
 23
0
 14
10
 24
10
 15
10
 25
10
 16
0
 26
0
 36
1
 17
0
 27
0
 37
0
 40
2449.479776500549
 41
1.300613496932515
 42
50
 43
0
 44
0
 50
0
 51
0
 71
    0
 72
  100
 73
    1
 74
    3
 75
    0
 76
    0
 77
    0
 78
    0
281
    0
 65
    1
110
0
120
0
130
0
111
1
121
0
131
0
112
0
122
1
132
0
 79
    0
146
0
348
10020
 60
    7
 61
    5
292
1
282
    1
141
0
142
0
 63
  250
421
3358443
  0
ENDTAB
  0
TABLE
  2
LTYPE
  5
5
330
0
100
AcDbSymbolTable
 70
    4
  0
LTYPE
  5
14
330
5
100
AcDbSymbolTableRecord
100
AcDbLinetypeTableRecord
  2
ByBlock
 70
    0
  3

 72
   65
 73
    0
 40
0
  0
LTYPE
  5
15
330
5
100
AcDbSymbolTableRecord
100
AcDbLinetypeTableRecord
  2
ByLayer
 70
    0
  3

 72
   65
 73
    0
 40
0
  0
LTYPE
  5
16
330
5
100
AcDbSymbolTableRecord
100
AcDbLinetypeTableRecord
  2
Continuous
 70
    0
  3
Solid line
 72
   65
 73
    0
 40
0
  0
LTYPE
  5
32
330
5
100
AcDbSymbolTableRecord
100
AcDbLinetypeTableRecord
  2
DOT
 70
    0
  3
Dot . . . . . . . . . . . . . . . . . . . . . .
 72
   65
 73
    2
 40
6.35
 49
0
 74
    0
 49
-6.35
 74
    0
  0
LTYPE
  5
33
330
5
100
AcDbSymbolTableRecord
100
AcDbLinetypeTableRecord
  2
DOTTINY
 70
    0
  3
Dot (.15x) .....................................
 72
   65
 73
    2
 40
0.9525
 49
0
 74
    0
 49
-0.9525
 74
    0
  0
LTYPE
  5
34
330
5
100
AcDbSymbolTableRecord
100
AcDbLinetypeTableRecord
  2
DOT2
 70
    0
  3
Dot (.5x) .....................................
 72
   65
 73
    2
 40
3.175
 49
0
 74
    0
 49
-3.175
 74
    0
  0
LTYPE
  5
35
330
5
100
AcDbSymbolTableRecord
100
AcDbLinetypeTableRecord
  2
DOTX2
 70
    0
  3
Dot (2x) .  .  .  .  .  .  .  .  .  .  .  .  .
 72
   65
 73
    2
 40
12.7
 49
0
 74
    0
 49
-12.7
 74
    0
  0
LTYPE
  5
36
330
5
100
AcDbSymbolTableRecord
100
AcDbLinetypeTableRecord
  2
DASHED
 70
    0
  3
Dashed _ _ _ _ _ _ _ _ _ _ _ _ _ _ _ _ _
 72
   65
 73
    2
 40
19.05
 49
12.7
 74
    0
 49
-6.35
 74
    0
  0
LTYPE
  5
37
330
5
100
AcDbSymbolTableRecord
100
AcDbLinetypeTableRecord
  2
DASHEDTINY
 70
    0
  3
Dashed (.15x) _ _ _ _ _ _ _ _ _ _ _ _ _ _ _ _ _
 72
   65
 73
    2
 40
2.8575
 49
1.905
 74
    0
 49
-0.9525
 74
    0
  0
LTYPE
  5
38
330
5
100
AcDbSymbolTableRecord
100
AcDbLinetypeTableRecord
  2
DASHED2
 70
    0
  3
Dashed (.5x) _ _ _ _ _ _ _ _ _ _ _ _ _ _ _ _ _
 72
   65
 73
    2
 40
9.524999999999999
 49
6.35
 74
    0
 49
-3.175
 74
    0
  0
LTYPE
  5
39
330
5
100
AcDbSymbolTableRecord
100
AcDbLinetypeTableRecord
  2
DASHEDX2
 70
    0
  3
Dashed (2x) ____  ____  ____  ____  ____  ___
 72
   65
 73
    2
 40
38.09999999999999
 49
25.4
 74
    0
 49
-12.7
 74
    0
  0
LTYPE
  5
3A
330
5
100
AcDbSymbolTableRecord
100
AcDbLinetypeTableRecord
  2
DASHDOT
 70
    0
  3
Dash dot __ . __ . __ . __ . __ . __ . __ . __
 72
   65
 73
    4
 40
25.4
 49
12.7
 74
    0
 49
-6.35
 74
    0
 49
0
 74
    0
 49
-6.35
 74
    0
  0
LTYPE
  5
3B
330
5
100
AcDbSymbolTableRecord
100
AcDbLinetypeTableRecord
  2
DASHDOTTINY
 70
    0
  3
Dash dot (.15x) _._._._._._._._._._._._._._._.
 72
   65
 73
    4
 40
3.81
 49
1.905
 74
    0
 49
-0.9525
 74
    0
 49
0
 74
    0
 49
-0.9525
 74
    0
  0
LTYPE
  5
3C
330
5
100
AcDbSymbolTableRecord
100
AcDbLinetypeTableRecord
  2
DASHDOT2
 70
    0
  3
Dash dot (.5x) _._._._._._._._._._._._._._._.
 72
   65
 73
    4
 40
12.7
 49
6.35
 74
    0
 49
-3.175
 74
    0
 49
0
 74
    0
 49
-3.175
 74
    0
  0
LTYPE
  5
3D
330
5
100
AcDbSymbolTableRecord
100
AcDbLinetypeTableRecord
  2
DASHDOTX2
 70
    0
  3
Dash dot (2x) ____  .  ____  .  ____  .  ___
 72
   65
 73
    4
 40
50.8
 49
25.4
 74
    0
 49
-12.7
 74
    0
 49
0
 74
    0
 49
-12.7
 74
    0
  0
LTYPE
  5
3E
330
5
100
AcDbSymbolTableRecord
100
AcDbLinetypeTableRecord
  2
DIVIDE
 70
    0
  3
Divide ____ . . ____ . . ____ . . ____ . . ____
 72
   65
 73
    6
 40
31.75
 49
12.7
 74
    0
 49
-6.35
 74
    0
 49
0
 74
    0
 49
-6.35
 74
    0
 49
0
 74
    0
 49
-6.35
 74
    0
  0
LTYPE
  5
3F
330
5
100
AcDbSymbolTableRecord
100
AcDbLinetypeTableRecord
  2
DIVIDETINY
 70
    0
  3
Divide (.15x) __..__..__..__..__..__..__..__.._
 72
   65
 73
    6
 40
4.7625
 49
1.905
 74
    0
 49
-0.9525
 74
    0
 49
0
 74
    0
 49
-0.9525
 74
    0
 49
0
 74
    0
 49
-0.9525
 74
    0
  0
LTYPE
  5
40
330
5
100
AcDbSymbolTableRecord
100
AcDbLinetypeTableRecord
  2
DIVIDE2
 70
    0
  3
Divide (.5x) __..__..__..__..__..__..__..__.._
 72
   65
 73
    6
 40
15.875
 49
6.35
 74
    0
 49
-3.175
 74
    0
 49
0
 74
    0
 49
-3.175
 74
    0
 49
0
 74
    0
 49
-3.175
 74
    0
  0
LTYPE
  5
41
330
5
100
AcDbSymbolTableRecord
100
AcDbLinetypeTableRecord
  2
DIVIDEX2
 70
    0
  3
Divide (2x) ________  .  .  ________  .  .  _
 72
   65
 73
    6
 40
63.5
 49
25.4
 74
    0
 49
-12.7
 74
    0
 49
0
 74
    0
 49
-12.7
 74
    0
 49
0
 74
    0
 49
-12.7
 74
    0
  0
LTYPE
  5
42
330
5
100
AcDbSymbolTableRecord
100
AcDbLinetypeTableRecord
  2
BORDER
 70
    0
  3
Border __ __ . __ __ . __ __ . __ __ . __ __ .
 72
   65
 73
    6
 40
44.45
 49
12.7
 74
    0
 49
-6.35
 74
    0
 49
12.7
 74
    0
 49
-6.35
 74
    0
 49
0
 74
    0
 49
-6.35
 74
    0
  0
LTYPE
  5
43
330
5
100
AcDbSymbolTableRecord
100
AcDbLinetypeTableRecord
  2
BORDERTINY
 70
    0
  3
Border (.15x) __.__.__.__.__.__.__.__.__.__.__.
 72
   65
 73
    6
 40
6.6675
 49
1.905
 74
    0
 49
-0.9525
 74
    0
 49
1.905
 74
    0
 49
-0.9525
 74
    0
 49
0
 74
    0
 49
-0.9525
 74
    0
  0
LTYPE
  5
44
330
5
100
AcDbSymbolTableRecord
100
AcDbLinetypeTableRecord
  2
BORDER2
 70
    0
  3
Border (.5x) __.__.__.__.__.__.__.__.__.__.__.
 72
   65
 73
    6
 40
22.225
 49
6.35
 74
    0
 49
-3.175
 74
    0
 49
6.35
 74
    0
 49
-3.175
 74
    0
 49
0
 74
    0
 49
-3.175
 74
    0
  0
LTYPE
  5
45
330
5
100
AcDbSymbolTableRecord
100
AcDbLinetypeTableRecord
  2
BORDERX2
 70
    0
  3
Border (2x) ____  ____  .  ____  ____  .  ___
 72
   65
 73
    6
 40
88.89999999999999
 49
25.4
 74
    0
 49
-12.7
 74
    0
 49
25.4
 74
    0
 49
-12.7
 74
    0
 49
0
 74
    0
 49
-12.7
 74
    0
  0
LTYPE
  5
46
330
5
100
AcDbSymbolTableRecord
100
AcDbLinetypeTableRecord
  2
CENTER
 70
    0
  3
Center ____ _ ____ _ ____ _ ____ _ ____ _ ____
 72
   65
 73
    4
 40
50.8
 49
31.75
 74
    0
 49
-6.35
 74
    0
 49
6.35
 74
    0
 49
-6.35
 74
    0
  0
LTYPE
  5
47
330
5
100
AcDbSymbolTableRecord
100
AcDbLinetypeTableRecord
  2
CENTERTINY
 70
    0
  3
Center (.15x) ___ _ ___ _ ___ _ ___ _ ___ _ ___
 72
   65
 73
    4
 40
7.619999999999999
 49
4.7625
 74
    0
 49
-0.9525
 74
    0
 49
0.9525
 74
    0
 49
-0.9525
 74
    0
  0
LTYPE
  5
48
330
5
100
AcDbSymbolTableRecord
100
AcDbLinetypeTableRecord
  2
CENTER2
 70
    0
  3
Center (.5x) ___ _ ___ _ ___ _ ___ _ ___ _ ___
 72
   65
 73
    4
 40
28.575
 49
19.05
 74
    0
 49
-3.175
 74
    0
 49
3.175
 74
    0
 49
-3.175
 74
    0
  0
LTYPE
  5
49
330
5
100
AcDbSymbolTableRecord
100
AcDbLinetypeTableRecord
  2
CENTERX2
 70
    0
  3
Center (2x) ________  __  ________  __  _____
 72
   65
 73
    4
 40
101.6
 49
63.5
 74
    0
 49
-12.7
 74
    0
 49
12.7
 74
    0
 49
-12.7
 74
    0
  0
ENDTAB
  0
TABLE
  2
LAYER
  5
2
330
0
100
AcDbSymbolTable
 70
    1
  0
LAYER
  5
10
330
2
100
AcDbSymbolTableRecord
100
AcDbLayerTableRecord
  2
0
 70
    0
 62
    7
  6
CONTINUOUS
370
   -3
390
F
  0
LAYER
  5
4A
330
2
100
AcDbSymbolTableRecord
100
AcDbLayerTableRecord
  2
AVENIDA AMAZONAS - 31_12_20 - PHANTOM - DJI_0001
 70
    0
 62
    7
  6
CONTINUOUS
370
   -3
390
F
  0
LAYER
  5
4B
330
2
100
AcDbSymbolTableRecord
100
AcDbLayerTableRecord
  2
AVENIDA ARAGUAIA - 31_12_20 - PHANTOM - DJI_0003
 70
    0
 62
    7
  6
CONTINUOUS
370
   -3
390
F
  0
LAYER
  5
4C
330
2
100
AcDbSymbolTableRecord
100
AcDbLayerTableRecord
  2
AVENIDA DA PRAIA - 31_12_20  - PHANTOM - DJI_0007
 70
    0
 62
    7
  6
CONTINUOUS
370
   -3
390
F
  0
LAYER
  5
4D
330
2
100
AcDbSymbolTableRecord
100
AcDbLayerTableRecord
  2
AVENIDA IVAÍ  - 31_12_20 - PHANTOM - DJI_0004
 70
    0
 62
    7
  6
CONTINUOUS
370
   -3
390
F
  0
LAYER
  5
4E
330
2
100
AcDbSymbolTableRecord
100
AcDbLayerTableRecord
  2
AVENIDA TOCANTIS - 31_12_20 - PHANTOM - DJI_0002
 70
    0
 62
    7
  6
CONTINUOUS
370
   -3
390
F
  0
LAYER
  5
4F
330
2
100
AcDbSymbolTableRecord
100
AcDbLayerTableRecord
  2
ESTRADA SIMÃO PORTELA - 31_12_20 - PHANTOM - DJI_0042
 70
    0
 62
    7
  6
CONTINUOUS
370
   -3
390
F
  0
LAYER
  5
50
330
2
100
AcDbSymbolTableRecord
100
AcDbLayerTableRecord
  2
ETAPA 02
 70
    0
 62
    7
  6
CONTINUOUS
370
   -3
390
F
  0
LAYER
  5
51
330
2
100
AcDbSymbolTableRecord
100
AcDbLayerTableRecord
  2
HEINRICH NORDOFF - 31_12_20 - PHANTOM - DJI_0005
 70
    0
 62
    7
  6
CONTINUOUS
370
   -3
390
F
  0
LAYER
  5
52
330
2
100
AcDbSymbolTableRecord
100
AcDbLayerTableRecord
  2
Layer1
 70
    0
 62
    7
  6
CONTINUOUS
370
   -3
390
F
  0
LAYER
  5
53
330
2
100
AcDbSymbolTableRecord
100
AcDbLayerTableRecord
  2
MCT - RUA ALJUBARROTA
 70
    0
 62
    7
  6
CONTINUOUS
370
   -3
390
F
  0
LAYER
  5
54
330
2
100
AcDbSymbolTableRecord
100
AcDbLayerTableRecord
  2
MCT - RUA BUSACO
 70
    0
 62
    7
  6
CONTINUOUS
370
   -3
390
F
  0
LAYER
  5
55
330
2
100
AcDbSymbolTableRecord
100
AcDbLayerTableRecord
  2
PASSAGEM 14 DE ABRIL - 31_12_20 - PHANTOM - DJI_0030
 70
    0
 62
    7
  6
CONTINUOUS
370
   -3
390
F
  0
LAYER
  5
56
330
2
100
AcDbSymbolTableRecord
100
AcDbLayerTableRecord
  2
PASSAGEM ANÁPOLIS - 31_12_20 - PHANTOM - DJI_0023
 70
    0
 62
    7
  6
CONTINUOUS
370
   -3
390
F
  0
LAYER
  5
57
330
2
100
AcDbSymbolTableRecord
100
AcDbLayerTableRecord
  2
PASSAGEM TROPICAL - 31_12_20 - PHANTOM - DJI_0024
 70
    0
 62
    7
  6
CONTINUOUS
370
   -3
390
F
  0
LAYER
  5
58
330
2
100
AcDbSymbolTableRecord
100
AcDbLayerTableRecord
  2
PRAÇA INFANTE - 02_01_21 - PHANTOM - DJI_0013
 70
    0
 62
    7
  6
CONTINUOUS
370
   -3
390
F
  0
LAYER
  5
59
330
2
100
AcDbSymbolTableRecord
100
AcDbLayerTableRecord
  2
RUA ADÔNIS - 31_12_20 - PHANTOM - DJI_0044
 70
    0
 62
    7
  6
CONTINUOUS
370
   -3
390
F
  0
LAYER
  5
5A
330
2
100
AcDbSymbolTableRecord
100
AcDbLayerTableRecord
  2
RUA ALBERTINO PINOTI - 31_12_20 - PHANTOM - DJI_0015 - DJI_0014
 70
    0
 62
    7
  6
CONTINUOUS
370
   -3
390
F
  0
LAYER
  5
5B
330
2
100
AcDbSymbolTableRecord
100
AcDbLayerTableRecord
  2
RUA ANA RUSSO VESTRI - 31_12_20 - PHANTOM - DJI_0016
 70
    0
 62
    7
  6
CONTINUOUS
370
   -3
390
F
  0
LAYER
  5
5C
330
2
100
AcDbSymbolTableRecord
100
AcDbLayerTableRecord
  2
RUA ANTÔNIO CAPUTO - 31_12_20 - PHANTOM - DJI_0008
 70
    0
 62
    7
  6
CONTINUOUS
370
   -3
390
F
  0
LAYER
  5
5D
330
2
100
AcDbSymbolTableRecord
100
AcDbLayerTableRecord
  2
RUA AUGUSTO PAULINO - 31_12_20 - MAVIC - DJI_0171
 70
    0
 62
    7
  6
CONTINUOUS
370
   -3
390
F
  0
LAYER
  5
5E
330
2
100
AcDbSymbolTableRecord
100
AcDbLayerTableRecord
  2
RUA AÇORES - 02_01_21 - PHANTOM - DJI_0011
 70
    0
 62
    7
  6
CONTINUOUS
370
   -3
390
F
  0
LAYER
  5
5F
330
2
100
AcDbSymbolTableRecord
100
AcDbLayerTableRecord
  2
RUA BECHELI - 31_12_20 - PHANTOM - DJI_0012
 70
    0
 62
    7
  6
CONTINUOUS
370
   -3
390
F
  0
LAYER
  5
60
330
2
100
AcDbSymbolTableRecord
100
AcDbLayerTableRecord
  2
RUA BELO MONTE - 31_12_20 - PHANTOM - DJI_0031
 70
    0
 62
    7
  6
CONTINUOUS
370
   -3
390
F
  0
LAYER
  5
61
330
2
100
AcDbSymbolTableRecord
100
AcDbLayerTableRecord
  2
RUA CILEI JOSÉ TIAGO - 31_12_20 - MAVIC - DJI_0163
 70
    0
 62
    7
  6
CONTINUOUS
370
   -3
390
F
  0
LAYER
  5
62
330
2
100
AcDbSymbolTableRecord
100
AcDbLayerTableRecord
  2
RUA CINTRA - 02_01_21 - PHANTOM - DJI_0012
 70
    0
 62
    7
  6
CONTINUOUS
370
   -3
390
F
  0
LAYER
  5
63
330
2
100
AcDbSymbolTableRecord
100
AcDbLayerTableRecord
  2
RUA DA QUADRA - 31_12_20 - PHANTOM - DJI_0029
 70
    0
 62
    7
  6
CONTINUOUS
370
   -3
390
F
  0
LAYER
  5
64
330
2
100
AcDbSymbolTableRecord
100
AcDbLayerTableRecord
  2
RUA DAPHNIS - 31_12_20 - PHANTOM - DJI_0043
 70
    0
 62
    7
  6
CONTINUOUS
370
   -3
390
F
  0
LAYER
  5
65
330
2
100
AcDbSymbolTableRecord
100
AcDbLayerTableRecord
  2
RUA DAYANE DE SÁ SILVA - 31_12_20 - PHANTOM - DJI_0018
 70
    0
 62
    7
  6
CONTINUOUS
370
   -3
390
F
  0
LAYER
  5
66
330
2
100
AcDbSymbolTableRecord
100
AcDbLayerTableRecord
  2
RUA DO PÔRTO - 31_12_20 - PHANTOM - DJI_0006
 70
    0
 62
    7
  6
CONTINUOUS
370
   -3
390
F
  0
LAYER
  5
67
330
2
100
AcDbSymbolTableRecord
100
AcDbLayerTableRecord
  2
RUA DONA LUÍSA - 31_12_20 - PHANTOM - DJI_0013
 70
    0
 62
    7
  6
CONTINUOUS
370
   -3
390
F
  0
LAYER
  5
68
330
2
100
AcDbSymbolTableRecord
100
AcDbLayerTableRecord
  2
RUA EMÍLIA - 31_12_20 - PHANTOM - DJI_0017
 70
    0
 62
    7
  6
CONTINUOUS
370
   -3
390
F
  0
LAYER
  5
69
330
2
100
AcDbSymbolTableRecord
100
AcDbLayerTableRecord
  2
RUA HORIZONTE - 31_12_20 - PHANTOM - DJI_0025
 70
    0
 62
    7
  6
CONTINUOUS
370
   -3
390
F
  0
LAYER
  5
6A
330
2
100
AcDbSymbolTableRecord
100
AcDbLayerTableRecord
  2
RUA JACIPORÃ - 31_12_20 - PHANTOM - DJI_0022 - DJI_0019
 70
    0
 62
    7
  6
CONTINUOUS
370
   -3
390
F
  0
LAYER
  5
6B
330
2
100
AcDbSymbolTableRecord
100
AcDbLayerTableRecord
  2
RUA JOSÉ GREGÓRIO DE MEDEIROS - 31_12_20 - MAVIC - DJI_0172
 70
    0
 62
    7
  6
CONTINUOUS
370
   -3
390
F
  0
LAYER
  5
6C
330
2
100
AcDbSymbolTableRecord
100
AcDbLayerTableRecord
  2
RUA JOSÉFINA NANI GÉA - 02_01_21 - PHANTOM - DJI_0007
 70
    0
 62
    7
  6
CONTINUOUS
370
   -3
390
F
  0
LAYER
  5
6D
330
2
100
AcDbSymbolTableRecord
100
AcDbLayerTableRecord
  2
RUA JURITI - 02_01_21 - PHANTOM - DJI_0009
 70
    0
 62
    7
  6
CONTINUOUS
370
   -3
390
F
  0
LAYER
  5
6E
330
2
100
AcDbSymbolTableRecord
100
AcDbLayerTableRecord
  2
RUA LAMBARÍ - 02_01_21 - MAVIC - DJI_0237
 70
    0
 62
    7
  6
CONTINUOUS
370
   -3
390
F
  0
LAYER
  5
6F
330
2
100
AcDbSymbolTableRecord
100
AcDbLayerTableRecord
  2
RUA LETICIA SALES - 31_12_20 - PHANTOM - DJI_0038
 70
    0
 62
    7
  6
CONTINUOUS
370
   -3
390
F
  0
LAYER
  5
70
330
2
100
AcDbSymbolTableRecord
100
AcDbLayerTableRecord
  2
RUA MAFRA - 02_01_21 - PHANTOM - DJI_0010
 70
    0
 62
    7
  6
CONTINUOUS
370
   -3
390
F
  0
LAYER
  5
71
330
2
100
AcDbSymbolTableRecord
100
AcDbLayerTableRecord
  2
RUA MARCÍLIO CONRADO - 31_12_20 - PHANTOM - DJI_0032
 70
    0
 62
    7
  6
CONTINUOUS
370
   -3
390
F
  0
LAYER
  5
72
330
2
100
AcDbSymbolTableRecord
100
AcDbLayerTableRecord
  2
RUA MARIA CAPUTO PAGANO - 02_01_21 - PHANTOM - DJI_0008
 70
    0
 62
    7
  6
CONTINUOUS
370
   -3
390
F
  0
LAYER
  5
73
330
2
100
AcDbSymbolTableRecord
100
AcDbLayerTableRecord
  2
RUA NOSSA SRA. DO CARMO - 31_12_20 - MAVIC - DJI_0167 - DJI_0168
 70
    0
 62
    7
  6
CONTINUOUS
370
   -3
390
F
  0
LAYER
  5
74
330
2
100
AcDbSymbolTableRecord
100
AcDbLayerTableRecord
  2
RUA NOVA - 31_12_20 - PHANTOM - DJI_0027
 70
    0
 62
    7
  6
CONTINUOUS
370
   -3
390
F
  0
LAYER
  5
75
330
2
100
AcDbSymbolTableRecord
100
AcDbLayerTableRecord
  2
RUA PASSAGEM DA CONQUISTA - 31_12_20 - PHANTOM - DJI_0026
 70
    0
 62
    7
  6
CONTINUOUS
370
   -3
390
F
  0
LAYER
  5
76
330
2
100
AcDbSymbolTableRecord
100
AcDbLayerTableRecord
  2
RUA PIRAQUARAS - 02_01_21 - MAVIC - DJI_0238
 70
    0
 62
    7
  6
CONTINUOUS
370
   -3
390
F
  0
LAYER
  5
77
330
2
100
AcDbSymbolTableRecord
100
AcDbLayerTableRecord
  2
RUA PORTUGAL - 02_01_21 - PHANTOM - DJI_0006
 70
    0
 62
    7
  6
CONTINUOUS
370
   -3
390
F
  0
LAYER
  5
78
330
2
100
AcDbSymbolTableRecord
100
AcDbLayerTableRecord
  2
RUA RIO ACIMA - 31_12_20 - PHANTOM - DJI_0009 - DJI_0010
 70
    0
 62
    7
  6
CONTINUOUS
370
   -3
390
F
  0
LAYER
  5
79
330
2
100
AcDbSymbolTableRecord
100
AcDbLayerTableRecord
  2
RUA RIO DAS PEDRAS - 31_12_20 - PHANTOM - DJI_0041
 70
    0
 62
    7
  6
CONTINUOUS
370
   -3
390
F
  0
LAYER
  5
7A
330
2
100
AcDbSymbolTableRecord
100
AcDbLayerTableRecord
  2
RUA RIO GRANDE - 31_12_20 - PHANTOM - DJI_0040
 70
    0
 62
    7
  6
CONTINUOUS
370
   -3
390
F
  0
LAYER
  5
7B
330
2
100
AcDbSymbolTableRecord
100
AcDbLayerTableRecord
  2
RUA ROLANDO MARQUES - 31_12_20 - MAVIC - DJI_0173
 70
    0
 62
    7
  6
CONTINUOUS
370
   -3
390
F
  0
LAYER
  5
7C
330
2
100
AcDbSymbolTableRecord
100
AcDbLayerTableRecord
  2
RUA ROWENA - 31_12_20 - MAVIC - DJI_0168
 70
    0
 62
    7
  6
CONTINUOUS
370
   -3
390
F
  0
LAYER
  5
7D
330
2
100
AcDbSymbolTableRecord
100
AcDbLayerTableRecord
  2
RUA SANTANA MARIA - 31_12_20 - MAVIC - DJI_0166
 70
    0
 62
    7
  6
CONTINUOUS
370
   -3
390
F
  0
LAYER
  5
7E
330
2
100
AcDbSymbolTableRecord
100
AcDbLayerTableRecord
  2
RUA SEM NOME - 31_12_20 - PHANTOM - DJI_0021
 70
    0
 62
    7
  6
CONTINUOUS
370
   -3
390
F
  0
LAYER
  5
7F
330
2
100
AcDbSymbolTableRecord
100
AcDbLayerTableRecord
  2
RUA SEXTO GUAZELI - 31_12_20 - MAVIC - DJI_0170
 70
    0
 62
    7
  6
CONTINUOUS
370
   -3
390
F
  0
LAYER
  5
80
330
2
100
AcDbSymbolTableRecord
100
AcDbLayerTableRecord
  2
RUA SOFÍA D'ÂNGELO CAPUTO - 31_12_20 - MAVIC - DJI_0164 - DJI_0165
 70
    0
 62
    7
  6
CONTINUOUS
370
   -3
390
F
  0
LAYER
  5
81
330
2
100
AcDbSymbolTableRecord
100
AcDbLayerTableRecord
  2
RUA TAMIRES - 31_12_20 - PHANTOM - DJI_0045
 70
    0
 62
    7
  6
CONTINUOUS
370
   -3
390
F
  0
LAYER
  5
82
330
2
100
AcDbSymbolTableRecord
100
AcDbLayerTableRecord
  2
RUA TROPICAL - 31_12_20 - PHANTOM - DJI_0028
 70
    0
 62
    7
  6
CONTINUOUS
370
   -3
390
F
  0
LAYER
  5
83
330
2
100
AcDbSymbolTableRecord
100
AcDbLayerTableRecord
  2
RUA VICENTINA CAPUTO PELOSINI - 31_12_20 - MAVIC - DJI_0169
 70
    0
 62
    7
  6
CONTINUOUS
370
   -3
390
F
  0
LAYER
  5
84
330
2
100
AcDbSymbolTableRecord
100
AcDbLayerTableRecord
  2
RUA VISTA ALEGRE - 31_12_20 - PHANTOM - DJI_0020
 70
    0
 62
    7
  6
CONTINUOUS
370
   -3
390
F
  0
LAYER
  5
85
330
2
100
AcDbSymbolTableRecord
100
AcDbLayerTableRecord
  2
RUA ÂNGELA GIANOTO - 31_12_20 - PHANTOM - DJI_0011
 70
    0
 62
    7
  6
CONTINUOUS
370
   -3
390
F
  0
ENDTAB
  0
TABLE
  2
STYLE
  5
3
330
0
100
AcDbSymbolTable
 70
    3
  0
STYLE
  5
86
330
2
100
AcDbSymbolTableRecord
100
AcDbTextStyleTableRecord
  2
Standard
 70
    0
 40
0
 41
1
 50
0
 71
    0
 42
1
  3
txt
  4

  0
ENDTAB
  0
TABLE
  2
VIEW
  5
6
330
0
100
AcDbSymbolTable
 70
    0
  0
ENDTAB
  0
TABLE
  2
UCS
  5
7
330
0
100
AcDbSymbolTable
 70
    0
  0
ENDTAB
  0
TABLE
  2
APPID
  5
9
330
0
100
AcDbSymbolTable
 70
    1
  0
APPID
  5
12
330
9
100
AcDbSymbolTableRecord
100
AcDbRegAppTableRecord
  2
ACAD
 70
    0
  0
APPID
  5
87
330
9
100
AcDbSymbolTableRecord
100
AcDbRegAppTableRecord
  2
LibreCad
 70
    0
  0
ENDTAB
  0
TABLE
  2
DIMSTYLE
  5
A
330
0
100
AcDbSymbolTable
 70
    1
100
AcDbDimStyleTable
 71
    1
  0
DIMSTYLE
105
88
330
A
100
AcDbSymbolTableRecord
100
AcDbDimStyleTableRecord
  2
Standard
 70
    0
 40
1
 41
2.5
 42
0.625
 43
0.38
 44
1.25
 45
0
 46
0
 47
0
 48
0
 49
1
140
2.5
141
0.09
142
0
143
25.4
144
1
145
0
146
1
147
0.625
148
0
 71
    0
 72
    0
 73
    0
 74
    1
 75
    0
 76
    0
 77
    0
 78
    8
 79
    0
170
    0
171
    2
172
    0
173
    0
174
    0
175
    0
176
    0
177
    0
178
    0
179
    0
271
    2
272
    4
273
    2
274
    2
275
    0
276
    0
277
    2
278
   44
279
    0
280
    0
281
    0
282
    0
283
    1
284
    0
285
    0
286
    0
288
    0
289
    3
340
Standard
341

371
   -2
372
   -2
  0
ENDTAB
  0
TABLE
  2
BLOCK_RECORD
  5
1
330
0
100
AcDbSymbolTable
 70
    2
  0
BLOCK_RECORD
  5
1F
330
1
100
AcDbSymbolTableRecord
100
AcDbBlockTableRecord
  2
*Model_Space
 70
    0
280
    1
281
    0
  0
BLOCK_RECORD
  5
1E
330
1
100
AcDbSymbolTableRecord
100
AcDbBlockTableRecord
  2
*Paper_Space
 70
    0
280
    1
281
    0
  0
ENDTAB
  0
ENDSEC
  0
SECTION
  2
BLOCKS
  0
BLOCK
  5
20
330
1F
100
AcDbEntity
  8
0
100
AcDbBlockBegin
  2
*Model_Space
 70
    0
 10
0
 20
0
 30
0
  3
*Model_Space
  1

  0
ENDBLK
  5
21
330
1F
100
AcDbEntity
  8
0
100
AcDbBlockEnd
  0
BLOCK
  5
1C
330
1B
100
AcDbEntity
  8
0
100
AcDbBlockBegin
  2
*Paper_Space
 70
    0
 10
0
 20
0
 30
0
  3
*Paper_Space
  1

  0
ENDBLK
  5
1D
330
1F
100
AcDbEntity
  8
0
100
AcDbBlockEnd
  0
ENDSEC
  0
SECTION
  2
ENTITIES
  0
LWPOLYLINE
  5
89
100
AcDbEntity
  8
AVENIDA ARAGUAIA - 31_12_20 - PHANTOM - DJI_0003
  6
ByLayer
 62
  256
370
   -1
100
AcDbPolyline
 90
   11
 70
    0
 43
0
 10
344090.2202875009
 20
7369512.752193611
 10
344122.136661209
 20
7369486.99245166
 10
344136.8311948151
 20
7369472.73379647
 10
344148.7571852538
 20
7369460.177653328
 10
344162.825503342
 20
7369443.520648385
 10
344170.7051968758
 20
7369430.751688245
 10
344175.6114364815
 20
7369418.154085848
 10
344179.4447789439
 20
7369397.7237616
 10
344183.0651669641
 20
7369381.124119406
 10
344183.0651669641
 20
7369372.398670297
 10
344180.645798397
 20
7369366.009075788
  0
LWPOLYLINE
  5
8A
100
AcDbEntity
  8
RUA RIO ACIMA - 31_12_20 - PHANTOM - DJI_0009 - DJI_0010
  6
ByLayer
 62
  256
370
   -1
100
AcDbPolyline
 90
    3
 70
    0
 43
0
 10
343950.0675228275
 20
7369345.834399375
 10
344049.9996235087
 20
7369391.226442172
 10
344271.3722528297
 20
7369496.055754195
  0
LWPOLYLINE
  5
8B
100
AcDbEntity
  8
RUA ANTÔNIO CAPUTO - 31_12_20 - PHANTOM - DJI_0008
  6
ByLayer
 62
  256
370
   -1
100
AcDbPolyline
 90
    5
 70
    0
 43
0
 10
343882.5325683995
 20
7369255.54537386
 10
343952.7105076328
 20
7369281.755214267
 10
343989.0677865319
 20
7369292.329432477
 10
344053.506939572
 20
7369315.918073101
 10
344180.2658303083
 20
7369365.736914978
  0
LWPOLYLINE
  5
8C
100
AcDbEntity
  8
RUA ANTÔNIO CAPUTO - 31_12_20 - PHANTOM - DJI_0008
  6
ByLayer
 62
  256
370
   -1
100
AcDbPolyline
 90
    2
 70
    0
 43
0
 10
344180.2658303083
 20
7369365.736914978
 10
344280.5854912943
 20
7369437.593160219
  0
LWPOLYLINE
  5
8D
100
AcDbEntity
  8
RUA JACIPORÃ - 31_12_20 - PHANTOM - DJI_0022 - DJI_0019
  6
ByLayer
 62
  256
370
   -1
100
AcDbPolyline
 90
   14
 70
    0
 43
0
 10
344625.5313182145
 20
7368749.722008585
 10
344618.7840019848
 20
7368729.04463859
 10
344605.7332575843
 20
7368709.238821629
 10
344601.7701074172
 20
7368702.775164836
 10
344600.1635646734
 20
7368700.152415173
 10
344590.9143091847
 20
7368679.53050658
 10
344573.5936936836
 20
7368633.489571444
 10
344551.8559701469
 20
7368576.967252533
 10
344541.4388889911
 20
7368550.81831645
 10
344539.368590727
 20
7368542.546829083
 10
344520.4400716971
 20
7368518.14779983
 10
344471.1272254796
 20
7368460.386640651
 10
344464.1713407412
 20
7368451.021917904
 10
344456.9081541655
 20
7368435.452760652
  0
LWPOLYLINE
  5
8E
100
AcDbEntity
  8
AVENIDA AMAZONAS - 31_12_20 - PHANTOM - DJI_0001
  6
ByLayer
 62
  256
370
   -1
100
AcDbPolyline
 90
   27
 70
    0
 43
0
 10
344106.4099049376
 20
7369531.573019762
 10
344096.4709218534
 20
7369563.134994117
 10
344076.977252656
 20
7369600.796364255
 10
344062.63482024
 20
7369618.153291923
 10
344051.6538516718
 20
7369628.119512553
 10
344037.3046041926
 20
7369638.484709183
 10
344020.1223508224
 20
7369647.799963896
 10
344002.715517349
 20
7369654.421648077
 10
343976.3244759723
 20
7369661.716712824
 10
343955.6608347754
 20
7369663.063498093
 10
343941.3984397286
 20
7369662.614553584
 10
343925.9007220385
 20
7369659.921007178
 10
343914.2212887452
 20
7369656.666274103
 10
343893.6699640152
 20
7369649.371209352
 10
343882.7766403283
 20
7369643.759608094
 10
343865.8310122893
 20
7369632.993336355
 10
343850.3527360196
 20
7369619.634082551
 10
343835.2906012399
 20
7369604.051483372
 10
343828.1902035755
 20
7369593.870308872
 10
343817.3364495187
 20
7369574.842391751
 10
343810.4747903834
 20
7369558.962225383
 10
343805.9605242691
 20
7369544.345217605
 10
343803.5026109997
 20
7369513.383608953
 10
343805.8768944635
 20
7369491.802423993
 10
343810.0620300099
 20
7369472.376664876
 10
343813.6795077792
 20
7369441.828074556
 10
343818.5930900969
 20
7369408.927001846
  0
LWPOLYLINE
  5
8F
100
AcDbEntity
  8
AVENIDA DA PRAIA - 31_12_20  - PHANTOM - DJI_0007
  6
ByLayer
 62
  256
370
   -1
100
AcDbPolyline
 90
    2
 70
    0
 43
0
 10
343882.1241456393
 20
7369643.345050715
 10
343976.5380146166
 20
7369468.559200961
  0
LWPOLYLINE
  5
90
100
AcDbEntity
  8
AVENIDA DA PRAIA - 31_12_20  - PHANTOM - DJI_0007
  6
ByLayer
 62
  256
370
   -1
100
AcDbPolyline
 90
    2
 70
    0
 43
0
 10
343976.5380146166
 20
7369468.559200961
 10
344008.234820369
 20
7369414.320976512
  0
ARC
  5
91
100
AcDbEntity
  8
AVENIDA IVAÍ  - 31_12_20 - PHANTOM - DJI_0004
  6
ByLayer
 62
  256
370
   -1
100
AcDbCircle
 10
344002.5489271615
 20
7369410.903071012
 40
70.74457593565643
100
AcDbArc
 50
49.26049539295659
 51
83.16028724352429
  0
ARC
  5
92
100
AcDbEntity
  8
AVENIDA IVAÍ  - 31_12_20 - PHANTOM - DJI_0004
  6
ByLayer
 62
  256
370
   -1
100
AcDbCircle
 10
344015.9231968453
 20
7369400.582901691
 40
80.71314829655844
100
AcDbArc
 50
93.51545008396199
 51
119.9449695782663
  0
ARC
  5
93
100
AcDbEntity
  8
AVENIDA IVAÍ  - 31_12_20 - PHANTOM - DJI_0004
  6
ByLayer
 62
  256
370
   -1
100
AcDbCircle
 10
343999.8207918145
 20
7369418.828867558
 40
57.07114734208206
100
AcDbArc
 50
115.0750216943779
 51
152.758930084965
  0
ARC
  5
94
100
AcDbEntity
  8
AVENIDA IVAÍ  - 31_12_20 - PHANTOM - DJI_0004
  6
ByLayer
 62
  256
370
   -1
100
AcDbCircle
 10
343993.8913615082
 20
7369415.924002588
 40
53.39240213821817
100
AcDbArc
 50
147.0655388875455
 51
192.9330652484486
  0
ARC
  5
95
100
AcDbEntity
  8
AVENIDA ARAGUAIA - 31_12_20 - PHANTOM - DJI_0003
  6
ByLayer
 62
  256
370
   -1
100
AcDbCircle
 10
344004.3708321098
 20
7369415.744089714
 40
129.5403458871628
100
AcDbArc
 50
48.49207120342612
 51
86.60006070227854
  0
ARC
  5
96
100
AcDbEntity
  8
AVENIDA ARAGUAIA - 31_12_20 - PHANTOM - DJI_0003
  6
ByLayer
 62
  256
370
   -1
100
AcDbCircle
 10
344004.5202664699
 20
7369435.496196728
 40
109.8189002478341
100
AcDbArc
 50
86.0667233882934
 51
124.4766921553235
  0
ARC
  5
97
100
AcDbEntity
  8
AVENIDA ARAGUAIA - 31_12_20 - PHANTOM - DJI_0003
  6
ByLayer
 62
  256
370
   -1
100
AcDbCircle
 10
343998.7625531495
 20
7369416.661145195
 40
123.0549193917838
100
AcDbArc
 50
117.283491073481
 51
148.0502310140502
  0
ARC
  5
98
100
AcDbEntity
  8
AVENIDA ARAGUAIA - 31_12_20 - PHANTOM - DJI_0003
  6
ByLayer
 62
  256
370
   -1
100
AcDbCircle
 10
344034.1022719945
 20
7369413.03821186
 40
155.7442271316343
100
AcDbArc
 50
153.8087722837222
 51
182.3715952308773
  0
ARC
  5
99
100
AcDbEntity
  8
AVENIDA TOCANTIS - 31_12_20 - PHANTOM - DJI_0002
  6
ByLayer
 62
  256
370
   -1
100
AcDbCircle
 10
344008.5929295435
 20
7369439.903324079
 40
170.3185318762793
100
AcDbArc
 50
65.10476887903432
 51
101.9616795173085
  0
ARC
  5
9A
100
AcDbEntity
  8
AVENIDA TOCANTIS - 31_12_20 - PHANTOM - DJI_0002
  6
ByLayer
 62
  256
370
   -1
100
AcDbCircle
 10
344011.1742368202
 20
7369415.410711071
 40
194.8310197188581
100
AcDbArc
 50
101.2114562491702
 51
124.3473359390589
  0
ARC
  5
9B
100
AcDbEntity
  8
AVENIDA TOCANTIS - 31_12_20 - PHANTOM - DJI_0002
  6
ByLayer
 62
  256
370
   -1
100
AcDbCircle
 10
343973.2717935768
 20
7369441.592004217
 40
152.7263046943188
100
AcDbArc
 50
118.1369810183144
 51
153.2141971485404
  0
ARC
  5
9C
100
AcDbEntity
  8
AVENIDA TOCANTIS - 31_12_20 - PHANTOM - DJI_0002
  6
ByLayer
 62
  256
370
   -1
100
AcDbCircle
 10
343972.7333796832
 20
7369416.946019567
 40
164.8600859346539
100
AcDbArc
 50
145.4598082867112
 51
165.902182225425
  0
LWPOLYLINE
  5
9D
100
AcDbEntity
  8
RUA SANTANA MARIA - 31_12_20 - MAVIC - DJI_0166
  6
ByLayer
 62
  256
370
   -1
100
AcDbPolyline
 90
    2
 70
    0
 43
0
 10
344107.9294532864
 20
7369261.241893245
 10
344180.645798397
 20
7369366.009075788
  0
LWPOLYLINE
  5
9E
100
AcDbEntity
  8
RUA VICENTINA CAPUTO PELOSINI - 31_12_20 - MAVIC - DJI_0169
  6
ByLayer
 62
  256
370
   -1
100
AcDbPolyline
 90
    2
 70
    0
 43
0
 10
343980.2210575486
 20
7369184.248383525
 10
344116.9058454477
 20
7369254.125793474
  0
LWPOLYLINE
  5
9F
100
AcDbEntity
  8
RUA JOSÉ GREGÓRIO DE MEDEIROS - 31_12_20 - MAVIC - DJI_0172
  6
ByLayer
 62
  256
370
   -1
100
AcDbPolyline
 90
    3
 70
    0
 43
0
 10
344144.3367025986
 20
7369050.181451772
 10
344172.2644614645
 20
7369084.640494243
 10
344232.6430103776
 20
7369162.374319373
  0
LWPOLYLINE
  5
A0
100
AcDbEntity
  8
RUA CILEI JOSÉ TIAGO - 31_12_20 - MAVIC - DJI_0163
  6
ByLayer
 62
  256
370
   -1
100
AcDbPolyline
 90
    2
 70
    0
 43
0
 10
344168.6814730932
 20
7369080.219575651
 10
344246.4909063672
 20
7369007.694778682
  0
LWPOLYLINE
  5
A1
100
AcDbEntity
  8
RUA ROLANDO MARQUES - 31_12_20 - MAVIC - DJI_0173
  6
ByLayer
 62
  256
370
   -1
100
AcDbPolyline
 90
    3
 70
    0
 43
0
 10
344207.1854381296
 20
7369044.330710647
 10
344228.3715554027
 20
7369072.918161553
 10
344274.0587512908
 20
7369129.541691389
  0
LINE
  5
A2
100
AcDbEntity
  8
RUA DO PÔRTO - 31_12_20 - PHANTOM - DJI_0006
  6
ByLayer
 62
  256
370
   -1
100
AcDbLine
 10
343941.8534074254
 20
7369403.974109657
 11
343879.4832214519
 21
7369406.645055683
  0
ARC
  5
A3
100
AcDbEntity
  8
RUA ALBERTINO PINOTI - 31_12_20 - PHANTOM - DJI_0015 - DJI_0014
  6
ByLayer
 62
  256
370
   -1
100
AcDbCircle
 10
343818.9769400074
 20
7369398.936896483
 40
9.99747697933298
100
AcDbArc
 50
88.32856014202652
 51
136.4065211020872
  0
LINE
  5
A4
100
AcDbEntity
  8
RUA ALBERTINO PINOTI - 31_12_20 - PHANTOM - DJI_0015 - DJI_0014
  6
ByLayer
 62
  256
370
   -1
100
AcDbLine
 10
343811.7362638503
 20
7369405.830527945
 11
343782.9448410159
 21
7369392.388130015
  0
LINE
  5
A5
100
AcDbEntity
  8
RUA ALBERTINO PINOTI - 31_12_20 - PHANTOM - DJI_0015 - DJI_0014
  6
ByLayer
 62
  256
370
   -1
100
AcDbLine
 10
343782.9448410159
 20
7369392.388130015
 11
343758.2493767781
 21
7369378.663075831
  0
ARC
  5
A6
100
AcDbEntity
  8
RUA ALBERTINO PINOTI - 31_12_20 - PHANTOM - DJI_0015 - DJI_0014
  6
ByLayer
 62
  256
370
   -1
100
AcDbCircle
 10
343777.3011619646
 20
7369344.383234496
 40
39.21833806729593
100
AcDbArc
 50
119.0640914922592
 51
162.2840109489453
  0
ARC
  5
A7
100
AcDbEntity
  8
RUA ALBERTINO PINOTI - 31_12_20 - PHANTOM - DJI_0015 - DJI_0014
  6
ByLayer
 62
  256
370
   -1
100
AcDbCircle
 10
343832.1870135148
 20
7369326.85004686
 40
96.83664565333613
100
AcDbArc
 50
162.2840109482786
 51
178.938592303182
  0
ARC
  5
A8
100
AcDbEntity
  8
RUA ALBERTINO PINOTI - 31_12_20 - PHANTOM - DJI_0015 - DJI_0014
  6
ByLayer
 62
  256
370
   -1
100
AcDbCircle
 10
343750.4075627894
 20
7369328.365189336
 40
15.04316047482055
100
AcDbArc
 50
178.9385923039007
 51
205.6641803909106
  0
LINE
  5
A9
100
AcDbEntity
  8
RUA ALBERTINO PINOTI - 31_12_20 - PHANTOM - DJI_0015 - DJI_0014
  6
ByLayer
 62
  256
370
   -1
100
AcDbLine
 10
343736.8484408452
 20
7369321.850061619
 11
343744.7399669613
 21
7369301.44196646
  0
LINE
  5
AA
100
AcDbEntity
  8
RUA ALBERTINO PINOTI - 31_12_20 - PHANTOM - DJI_0015 - DJI_0014
  6
ByLayer
 62
  256
370
   -1
100
AcDbLine
 10
343744.7399669613
 20
7369301.44196646
 11
343764.9648554508
 21
7369254.549692125
  0
LINE
  5
AB
100
AcDbEntity
  8
RUA ALBERTINO PINOTI - 31_12_20 - PHANTOM - DJI_0015 - DJI_0014
  6
ByLayer
 62
  256
370
   -1
100
AcDbLine
 10
343764.9648554508
 20
7369254.549692125
 11
343791.2571576575
 21
7369203.412869083
  0
LINE
  5
AC
100
AcDbEntity
  8
RUA ALBERTINO PINOTI - 31_12_20 - PHANTOM - DJI_0015 - DJI_0014
  6
ByLayer
 62
  256
370
   -1
100
AcDbLine
 10
343791.2571576575
 20
7369203.412869083
 11
343803.7479532719
 21
7369182.344181048
  0
LINE
  5
AD
100
AcDbEntity
  8
RUA ALBERTINO PINOTI - 31_12_20 - PHANTOM - DJI_0015 - DJI_0014
  6
ByLayer
 62
  256
370
   -1
100
AcDbLine
 10
343803.7479532719
 20
7369182.344181048
 11
343828.5799300921
 21
7369162.047073407
  0
LINE
  5
AE
100
AcDbEntity
  8
RUA ALBERTINO PINOTI - 31_12_20 - PHANTOM - DJI_0015 - DJI_0014
  6
ByLayer
 62
  256
370
   -1
100
AcDbLine
 10
343828.5799300921
 20
7369162.047073407
 11
343938.8390962142
 21
7369077.770626748
  0
LINE
  5
AF
100
AcDbEntity
  8
RUA ANA RUSSO VESTRI - 31_12_20 - PHANTOM - DJI_0016
  6
ByLayer
 62
  256
370
   -1
100
AcDbLine
 10
343866.3690211742
 20
7369405.962873386
 11
343812.5088489908
 21
7369356.088287186
  0
ARC
  5
B0
100
AcDbEntity
  8
RUA ANA RUSSO VESTRI - 31_12_20 - PHANTOM - DJI_0016
  6
ByLayer
 62
  256
370
   -1
100
AcDbCircle
 10
343826.6485306839
 20
7369340.818672966
 40
20.81085574377656
100
AcDbArc
 50
132.7997250482254
 51
210.9300309855393
  0
LINE
  5
B1
100
AcDbEntity
  8
RUA ANA RUSSO VESTRI - 31_12_20 - PHANTOM - DJI_0016
  6
ByLayer
 62
  256
370
   -1
100
AcDbLine
 10
343808.7970697665
 20
7369330.122081925
 11
343871.9007505238
 21
7369273.576233969
  0
LWPOLYLINE
  5
B2
100
AcDbEntity
  8
RUA EMÍLIA - 31_12_20 - PHANTOM - DJI_0017
  6
ByLayer
 62
  256
370
   -1
100
AcDbPolyline
 90
    2
 70
    0
 43
0
 10
343855.8451357881
 20
7369287.963324212
 10
343789.1561881472
 20
7369207.499118556
  0
LWPOLYLINE
  5
B3
100
AcDbEntity
  8
RUA DONA LUÍSA - 31_12_20 - PHANTOM - DJI_0013
  6
ByLayer
 62
  256
370
   -1
100
AcDbPolyline
 90
    4
 70
    0
 43
0
 10
343770.2990423377
 20
7369185.887216262
 10
343801.1846970888
 20
7369147.830127372
 10
343815.9944632131
 20
7369123.160907762
 10
343855.0290844104
 20
7369064.805770253
  0
LWPOLYLINE
  5
B4
100
AcDbEntity
  8
RUA RIO ACIMA - 31_12_20 - PHANTOM - DJI_0009 - DJI_0010
  6
ByLayer
 62
  256
370
   -1
100
AcDbPolyline
 90
    6
 70
    0
 43
0
 10
343818.5430648442
 20
7369039.076470807
 10
343846.7593487059
 20
7369060.445239589
 10
343862.1329160213
 20
7369064.905755528
 10
343888.6197380915
 20
7369067.400368875
 10
343916.8001297627
 20
7369066.210389667
 10
343950.9225007852
 20
7369084.108810612
  0
LWPOLYLINE
  5
B5
100
AcDbEntity
  8
RUA SEXTO GUAZELI - 31_12_20 - MAVIC - DJI_0170
  6
ByLayer
 62
  256
370
   -1
100
AcDbPolyline
 90
    9
 70
    0
 43
0
 10
344052.4881421897
 20
7368935.453703343
 10
344038.8153293481
 20
7368949.799491409
 10
344032.6447387452
 20
7368956.290789383
 10
344022.7846631557
 20
7368966.985715449
 10
344011.0517131263
 20
7368985.447234319
 10
343993.0643313687
 20
7369016.044562634
 10
343985.4792189434
 20
7369029.622510103
 10
343961.1631265526
 20
7369067.669682497
 10
343950.9225007852
 20
7369084.108810612
  0
LWPOLYLINE
  5
B6
100
AcDbEntity
  8
RUA RIO ACIMA - 31_12_20 - PHANTOM - DJI_0009 - DJI_0010
  6
ByLayer
 62
  256
370
   -1
100
AcDbPolyline
 90
   13
 70
    0
 43
0
 10
343818.5430648442
 20
7369039.076470807
 10
343820.1869421221
 20
7369005.852940831
 10
343836.4857202938
 20
7368964.121996224
 10
343859.8567377685
 20
7368910.648717047
 10
343867.9644440263
 20
7368893.255646054
 10
343877.8151158853
 20
7368875.790143643
 10
343889.9234226859
 20
7368860.232130607
 10
343928.194228514
 20
7368823.281804416
 10
343956.4784310302
 20
7368794.351026056
 10
343974.2135497924
 20
7368773.785762924
 10
343982.9430645229
 20
7368758.776100609
 10
343986.333796161
 20
7368745.137013497
 10
343987.3012181447
 20
7368724.03551176
  0
LWPOLYLINE
  5
B7
100
AcDbEntity
  8
ESTRADA SIMÃO PORTELA - 31_12_20 - PHANTOM - DJI_0042
  6
ByLayer
 62
  256
370
   -1
100
AcDbPolyline
 90
   17
 70
    0
 43
0
 10
344656.9220074706
 20
7368914.197374019
 10
344655.2748225629
 20
7368903.974024264
 10
344657.7022529532
 20
7368886.213150289
 10
344662.9905306165
 20
7368874.257019982
 10
344666.8917051994
 20
7368867.499231328
 10
344719.1871184843
 20
7368810.254548058
 10
344733.1584205247
 20
7368785.31128579
 10
344748.9490274393
 20
7368745.588684438
 10
344758.9187251681
 20
7368728.260999567
 10
344766.9811561617
 20
7368721.243282974
 10
344773.0496264777
 20
7368716.564797201
 10
344783.4527939189
 20
7368712.146239369
 10
344794.4627661281
 20
7368710.846647924
 10
344801.5716165839
 20
7368713.272521392
 10
344807.2933111297
 20
7368723.322609983
 10
344812.4082009079
 20
7368739.264084888
 10
344817.5230906861
 20
7368761.183612882
  0
LWPOLYLINE
  5
B8
100
AcDbEntity
  8
RUA DAPHNIS - 31_12_20 - PHANTOM - DJI_0043
  6
ByLayer
 62
  256
370
   -1
100
AcDbPolyline
 90
    4
 70
    0
 43
0
 10
344438.1049466286
 20
7369372.888933628
 10
344461.2392509886
 20
7369385.769944353
 10
344519.2558833497
 20
7369446.884303933
 10
344636.5309933579
 20
7369568.333140055
  0
LWPOLYLINE
  5
B9
100
AcDbEntity
  8
RUA TAMIRES - 31_12_20 - PHANTOM - DJI_0045
  6
ByLayer
 62
  256
370
   -1
100
AcDbPolyline
 90
    5
 70
    0
 43
0
 10
344435.8302654907
 20
7369257.342403466
 10
344470.9534102653
 20
7369297.498049161
 10
344512.1177122735
 20
7369345.375940905
 10
344591.4781713948
 20
7369434.28109227
 10
344645.529434997
 20
7369497.399182852
  0
LWPOLYLINE
  5
BA
100
AcDbEntity
  8
RUA ADÔNIS - 31_12_20 - PHANTOM - DJI_0044
  6
ByLayer
 62
  256
370
   -1
100
AcDbPolyline
 90
    4
 70
    0
 43
0
 10
344423.9696783101
 20
7369398.47442006
 10
344440.0150312276
 20
7369369.431592565
 10
344446.9184788507
 20
7369354.647693338
 10
344459.965309154
 20
7369284.935555172
  0
LWPOLYLINE
  5
BB
100
AcDbEntity
  8
RUA VISTA ALEGRE - 31_12_20 - PHANTOM - DJI_0020
  6
ByLayer
 62
  256
370
   -1
100
AcDbPolyline
 90
   11
 70
    0
 43
0
 10
344539.2115272186
 20
7368542.344372825
 10
344554.7711848186
 20
7368518.501226899
 10
344561.4394863491
 20
7368516.279859995
 10
344569.0857758527
 20
7368518.767789963
 10
344578.6881469622
 20
7368528.452970898
 10
344615.9063689326
 20
7368571.162728898
 10
344647.311764699
 20
7368607.40695733
 10
344654.2702082967
 20
7368618.194654483
 10
344658.8045497907
 20
7368632.58162857
 10
344667.8658894163
 20
7368660.221018908
 10
344673.2945362478
 20
7368678.202589152
  0
LWPOLYLINE
  5
BC
100
AcDbEntity
  8
RUA DAYANE DE SÁ SILVA - 31_12_20 - PHANTOM - DJI_0018
  6
ByLayer
 62
  256
370
   -1
100
AcDbPolyline
 90
    8
 70
    0
 43
0
 10
344484.4369862381
 20
7368565.854847393
 10
344493.1448935204
 20
7368582.382408773
 10
344515.8184500388
 20
7368619.133874286
 10
344524.4700934277
 20
7368633.353667393
 10
344533.5475461869
 20
7368646.745276469
 10
344553.0559549395
 20
7368668.604967715
 10
344573.0052295973
 20
7368690.345974703
 10
344624.0482220618
 20
7368745.177012198
  0
LWPOLYLINE
  5
BD
100
AcDbEntity
  8
RUA LETICIA SALES - 31_12_20 - PHANTOM - DJI_0038
  6
ByLayer
 62
  256
370
   -1
100
AcDbPolyline
 90
   19
 70
    0
 43
0
 10
344325.3357980391
 20
7368852.274639275
 10
344307.7524597136
 20
7368820.994134535
 10
344304.0701067697
 20
7368810.229937781
 10
344303.8859415756
 20
7368800.477778291
 10
344306.7245474409
 20
7368776.579680651
 10
344309.976706129
 20
7368760.050961142
 10
344308.5911879471
 20
7368751.465931907
 10
344293.9967566854
 20
7368728.941835605
 10
344277.5153453882
 20
7368711.685086234
 10
344275.6645538658
 20
7368708.679496009
 10
344277.5731413497
 20
7368703.072913315
 10
344317.313253655
 20
7368665.632963277
 10
344321.3351446662
 20
7368663.460310242
 10
344338.9809279886
 20
7368671.680190543
 10
344348.4464695362
 20
7368678.014344669
 10
344348.4464695362
 20
7368686.592762907
 10
344344.7345318221
 20
7368689.896620022
 10
344328.0889250505
 20
7368706.126035151
 10
344297.9319639434
 20
7368735.015178624
  0
LWPOLYLINE
  5
BE
100
AcDbEntity
  8
RUA RIO GRANDE - 31_12_20 - PHANTOM - DJI_0040
  6
ByLayer
 62
  256
370
   -1
100
AcDbPolyline
 90
   25
 70
    0
 43
0
 10
344076.1937845466
 20
7367929.945376378
 10
344105.7889621899
 20
7367941.98127293
 10
344113.5378474499
 20
7367949.07219303
 10
344113.071042041
 20
7367961.854504764
 10
344109.165958042
 20
7367967.228254949
 10
344103.2066343959
 20
7367973.293481496
 10
344062.2350032034
 20
7368020.892263763
 10
344056.9575028493
 20
7368032.30776422
 10
344058.1906066349
 20
7368045.98077491
 10
344063.1863648834
 20
7368056.032552442
 10
344084.8240846371
 20
7368060.837901771
 10
344129.0611876642
 20
7368073.572126958
 10
344170.6924535711
 20
7368086.173649677
 10
344178.3740334789
 20
7368090.68939397
 10
344197.3520823968
 20
7368116.57969342
 10
344216.6915938098
 20
7368141.658601733
 10
344244.9332682191
 20
7368170.177761173
 10
344264.8398034499
 20
7368189.284575943
 10
344269.7519847226
 20
7368202.000825978
 10
344265.9200701997
 20
7368224.172343891
 10
344258.9661171473
 20
7368276.095513492
 10
344259.8568300486
 20
7368286.124803987
 10
344262.647783302
 20
7368292.830766298
 10
344275.8897150986
 20
7368310.893622831
 10
344320.5582260444
 20
7368365.161065687
  0
LWPOLYLINE
  5
BF
100
AcDbEntity
  8
RUA RIO DAS PEDRAS - 31_12_20 - PHANTOM - DJI_0041
  6
ByLayer
 62
  256
370
   -1
100
AcDbPolyline
 90
   11
 70
    0
 43
0
 10
344061.192081953
 20
7368052.019930662
 10
344060.9956126542
 20
7368072.758781478
 10
344062.7283820756
 20
7368078.132893578
 10
344068.4190126127
 20
7368085.464149909
 10
344095.3598552447
 20
7368107.621649617
 10
344116.4842264065
 20
7368126.434202703
 10
344142.9883238694
 20
7368156.717412216
 10
344164.8963216304
 20
7368186.053319141
 10
344175.4512695086
 20
7368198.809428171
 10
344193.7472838147
 20
7368218.333314732
 10
344199.5187970003
 20
7368224.822199932
  0
LWPOLYLINE
  5
C0
100
AcDbEntity
  8
PASSAGEM ANÁPOLIS - 31_12_20 - PHANTOM - DJI_0023
  6
ByLayer
 62
  256
370
   -1
100
AcDbPolyline
 90
    8
 70
    0
 43
0
 10
344121.0613073274
 20
7368568.711111151
 10
344134.3459257209
 20
7368551.575482943
 10
344174.7484198978
 20
7368509.082946816
 10
344187.5227010063
 20
7368499.411542809
 10
344213.7486487998
 20
7368469.913738874
 10
344241.9101273499
 20
7368442.833773878
 10
344267.2944412627
 20
7368418.692203403
 10
344295.1145855273
 20
7368395.673754219
  0
LWPOLYLINE
  5
C1
100
AcDbEntity
  8
RUA DA QUADRA - 31_12_20 - PHANTOM - DJI_0029
  6
ByLayer
 62
  256
370
   -1
100
AcDbPolyline
 90
    2
 70
    0
 43
0
 10
344197.6875299059
 20
7368593.826451646
 10
344223.1731281277
 20
7368557.560177992
  0
LWPOLYLINE
  5
C2
100
AcDbEntity
  8
RUA TROPICAL - 31_12_20 - PHANTOM - DJI_0028
  6
ByLayer
 62
  256
370
   -1
100
AcDbPolyline
 90
    2
 70
    0
 43
0
 10
344127.1398105686
 20
7368615.08057737
 10
344187.1193971933
 20
7368549.345430058
  0
LWPOLYLINE
  5
C3
100
AcDbEntity
  8
RUA TROPICAL - 31_12_20 - PHANTOM - DJI_0028
  6
ByLayer
 62
  256
370
   -1
100
AcDbPolyline
 90
    4
 70
    0
 43
0
 10
344163.0036721065
 20
7368575.77526778
 10
344193.1735505936
 20
7368591.158433046
 10
344214.5729016278
 20
7368603.806667033
 10
344226.1854563785
 20
7368615.462162799
  0
LWPOLYLINE
  5
C4
100
AcDbEntity
  8
RUA NOVA - 31_12_20 - PHANTOM - DJI_0027
  6
ByLayer
 62
  256
370
   -1
100
AcDbPolyline
 90
   10
 70
    0
 43
0
 10
344166.097860288
 20
7368652.419107116
 10
344184.1050260953
 20
7368636.867170275
 10
344200.9660205597
 20
7368629.085328753
 10
344213.1672552366
 20
7368623.386819439
 10
344220.7087301259
 20
7368617.627049843
 10
344228.0558436413
 20
7368614.722820175
 10
344240.8303888995
 20
7368612.820108084
 10
344244.883819389
 20
7368611.040157837
 10
344261.9575072186
 20
7368602.079025688
 10
344289.9778769812
 20
7368590.720152991
  0
LWPOLYLINE
  5
C5
100
AcDbEntity
  8
PASSAGEM 14 DE ABRIL - 31_12_20 - PHANTOM - DJI_0030
  6
ByLayer
 62
  256
370
   -1
100
AcDbPolyline
 90
   17
 70
    0
 43
0
 10
344184.6975443952
 20
7368501.550467945
 10
344206.5925155415
 20
7368535.906747797
 10
344210.7143608119
 20
7368542.116330497
 10
344221.154509216
 20
7368556.282632448
 10
344235.3933421065
 20
7368565.294119151
 10
344273.1670181363
 20
7368588.796811697
 10
344282.1633769274
 20
7368600.059921468
 10
344293.2358469633
 20
7368605.889058264
 10
344305.8839173292
 20
7368615.458064223
 10
344320.9530784918
 20
7368630.715904275
 10
344333.6428845156
 20
7368643.001426232
 10
344347.6214770888
 20
7368654.494352547
 10
344356.7422504044
 20
7368664.005717379
 10
344368.6273506801
 20
7368679.630540071
 10
344376.6666421571
 20
7368692.524997454
 10
344381.1328858499
 20
7368700.261696011
 10
344397.5092183833
 20
7368721.190395009
  0
LWPOLYLINE
  5
C6
100
AcDbEntity
  8
RUA PASSAGEM DA CONQUISTA - 31_12_20 - PHANTOM - DJI_0026
  6
ByLayer
 62
  256
370
   -1
100
AcDbPolyline
 90
    5
 70
    0
 43
0
 10
344200.8913786419
 20
7368689.888366718
 10
344213.2808924519
 20
7368678.303105237
 10
344220.256717102
 20
7368673.07453155
 10
344227.9176405008
 20
7368671.393915133
 10
344245.4817487256
 20
7368669.52657428
  0
LWPOLYLINE
  5
C7
100
AcDbEntity
  8
RUA BECHELI - 31_12_20 - PHANTOM - DJI_0012
  6
ByLayer
 62
  256
370
   -1
100
AcDbPolyline
 90
    2
 70
    0
 43
0
 10
343746.5814075829
 20
7369115.9991728
 10
343798.5654939919
 20
7369148.506789313
  0
LWPOLYLINE
  5
C8
100
AcDbEntity
  8
RUA MAFRA - 02_01_21 - PHANTOM - DJI_0010
  6
ByLayer
 62
  256
370
   -1
100
AcDbPolyline
 90
   13
 70
    0
 43
0
 10
344920.7422933499
 20
7369603.58712125
 10
344902.2437290282
 20
7369636.120071868
 10
344883.8485000822
 20
7369670.821911597
 10
344872.8111091309
 20
7369692.922059713
 10
344863.494442373
 20
7369715.578351803
 10
344852.218841192
 20
7369744.539699984
 10
344837.942816019
 20
7369783.637538128
 10
344835.1800211272
 20
7369790.621427655
 10
344829.6571785007
 20
7369818.57829055
 10
344832.3188568746
 20
7369835.036870775
 10
344843.2498483133
 20
7369855.260823165
 10
344855.5406297499
 20
7369865.982506873
 10
344872.7155925873
 20
7369876.606497439
  0
LWPOLYLINE
  5
C9
100
AcDbEntity
  8
MCT - RUA ALJUBARROTA
  6
ByLayer
 62
  256
370
   -1
100
AcDbPolyline
 90
    2
 70
    0
 43
0
 10
345415.193930342
 20
7369691.063115307
 10
345311.9988709639
 20
7369758.779446715
  0
LWPOLYLINE
  5
CA
100
AcDbEntity
  8
RUA CINTRA - 02_01_21 - PHANTOM - DJI_0012
  6
ByLayer
 62
  256
370
   -1
100
AcDbPolyline
 90
   13
 70
    0
 43
0
 10
344940.2672025494
 20
7369839.917217845
 10
344972.2196349103
 20
7369802.195519622
 10
344997.354327325
 20
7369781.094210909
 10
345013.4986307326
 20
7369767.682286292
 10
345038.3985996942
 20
7369750.533822135
 10
345051.5616563804
 20
7369741.026631397
 10
345079.8847417374
 20
7369726.941084933
 10
345099.9826270352
 20
7369720.643170645
 10
345117.8664092674
 20
7369717.579287846
 10
345164.364105713
 20
7369711.621791574
 10
345194.2613649915
 20
7369710.776404481
 10
345226.0413779099
 20
7369707.365926966
 10
345246.4590915516
 20
7369706.053343977
  0
LWPOLYLINE
  5
CB
100
AcDbEntity
  8
MCT - RUA ALJUBARROTA
  6
ByLayer
 62
  256
370
   -1
100
AcDbPolyline
 90
   14
 70
    0
 43
0
 10
345113.2575247186
 20
7369649.639027059
 10
345160.0042615329
 20
7369669.92870336
 10
345216.6462586813
 20
7369692.605407501
 10
345260.4926314226
 20
7369712.383576113
 10
345280.0003533859
 20
7369724.177423368
 10
345298.8013691524
 20
7369743.286940445
 10
345307.9882327313
 20
7369759.087002778
 10
345326.0863460573
 20
7369784.944802187
 10
345339.9784031777
 20
7369804.699277377
 10
345353.543601418
 20
7369825.587031632
 10
345375.6511378877
 20
7369841.001243446
 10
345395.8735433696
 20
7369850.249760884
 10
345413.0112082648
 20
7369852.476242865
 10
345430.3098005705
 20
7369859.168288091
  0
LWPOLYLINE
  5
CC
100
AcDbEntity
  8
PRAÇA INFANTE - 02_01_21 - PHANTOM - DJI_0013
  6
ByLayer
 62
  256
370
   -1
100
AcDbPolyline
 90
    2
 70
    0
 43
0
 10
345169.555023676
 20
7369711.475011061
 10
345177.3939640399
 20
7369676.890695499
  0
LWPOLYLINE
  5
CD
100
AcDbEntity
  8
MCT - RUA ALJUBARROTA
  6
ByLayer
 62
  256
370
   -1
100
AcDbPolyline
 90
   19
 70
    0
 43
0
 10
345415.193930342
 20
7369691.063115307
 10
345438.68053974
 20
7369638.760513161
 10
345442.9703314108
 20
7369627.185335446
 10
345441.5589265553
 20
7369611.777203817
 10
345434.3738953161
 20
7369597.080622813
 10
345424.6292003302
 20
7369584.086783346
 10
345416.6797197628
 20
7369581.939633312
 10
345384.9892007739
 20
7369596.003537212
 10
345366.1897699058
 20
7369605.880485278
 10
345357.9056644559
 20
7369607.950812645
 10
345344.6689099941
 20
7369611.520388352
 10
345338.1135588895
 20
7369612.0663263
 10
345313.7821986441
 20
7369606.25205218
 10
345304.6259236045
 20
7369605.068804608
 10
345296.074868434
 20
7369606.699066471
 10
345244.6327116181
 20
7369619.861076154
 10
345217.9198302061
 20
7369624.855828095
 10
345153.0508367802
 20
7369641.33503752
 10
345125.0411914968
 20
7369653.583764702
  0
LWPOLYLINE
  5
CE
100
AcDbEntity
  8
MCT - RUA BUSACO
  6
ByLayer
 62
  256
370
   -1
100
AcDbPolyline
 90
   19
 70
    0
 43
0
 10
345409.1412531883
 20
7369911.861099024
 10
345425.3455744073
 20
7369889.145095062
 10
345429.1519720659
 20
7369880.153706747
 10
345427.9408455383
 20
7369867.877039666
 10
345429.8440443675
 20
7369860.268965991
 10
345430.9923032588
 20
7369857.555393574
 10
345440.3905922843
 20
7369852.263894792
 10
345460.585473364
 20
7369839.731473867
 10
345462.6215923394
 20
7369831.660051432
 10
345454.2985512186
 20
7369820.400126518
 10
345420.8192630652
 20
7369787.919508927
 10
345396.7967995179
 20
7369761.522213671
 10
345370.9272953748
 20
7369722.04038285
 10
345348.2827424971
 20
7369689.487575118
 10
345328.2511059525
 20
7369671.035152397
 10
345310.3096334185
 20
7369656.760661747
 10
345282.2652788602
 20
7369644.923263957
 10
345263.278724321
 20
7369638.656426173
 10
345232.4428376686
 20
7369622.140328463
  0
LWPOLYLINE
  5
CF
100
AcDbEntity
  8
RUA PIRAQUARAS - 02_01_21 - MAVIC - DJI_0238
  6
ByLayer
 62
  256
370
   -1
100
AcDbPolyline
 90
   12
 70
    0
 43
0
 10
345295.9596991502
 20
7370020.744610941
 10
345287.5616395053
 20
7370060.746635432
 10
345278.9454450105
 20
7370091.156877398
 10
345261.9459304261
 20
7370139.575809164
 10
345251.0148333273
 20
7370164.046071585
 10
345244.6748170856
 20
7370172.239266628
 10
345234.1066617208
 20
7370181.012347317
 10
345222.4632056209
 20
7370190.894531098
 10
345195.5187177226
 20
7370211.695932238
 10
345170.3271274553
 20
7370231.382656787
 10
345160.5771494749
 20
7370238.937359942
 10
345079.0218702183
 20
7370302.877896011
  0
LWPOLYLINE
  5
D0
100
AcDbEntity
  8
RUA LAMBARÍ - 02_01_21 - MAVIC - DJI_0237
  6
ByLayer
 62
  256
370
   -1
100
AcDbPolyline
 90
    2
 70
    0
 43
0
 10
345191.0581084857
 20
7370215.181809249
 10
345191.4845955835
 20
7370013.487898152
  0
LWPOLYLINE
  5
D1
100
AcDbEntity
  8
RUA JOSÉFINA NANI GÉA - 02_01_21 - PHANTOM - DJI_0007
  6
ByLayer
 62
  256
370
   -1
100
AcDbPolyline
 90
    6
 70
    0
 43
0
 10
345003.5397119624
 20
7370238.806684059
 10
345107.5506753877
 20
7370110.074530836
 10
345119.6508463765
 20
7370093.358290678
 10
345128.1921808369
 20
7370069.350894461
 10
345138.1997576375
 20
7370038.434090989
 10
345147.6724716338
 20
7369993.37219681
  0
LWPOLYLINE
  5
D2
100
AcDbEntity
  8
RUA MARIA CAPUTO PAGANO - 02_01_21 - PHANTOM - DJI_0008
  6
ByLayer
 62
  256
370
   -1
100
AcDbPolyline
 90
    9
 70
    0
 43
0
 10
344958.1674040225
 20
7370150.763705042
 10
344978.9102306783
 20
7370137.110173211
 10
345006.2026037756
 20
7370112.067166945
 10
345102.24702421
 20
7370023.988848457
 10
345130.8089537562
 20
7369997.801874547
 10
345141.786277058
 20
7369993.609369338
 10
345156.2336825781
 20
7369993.027239807
 10
345168.4396719502
 20
7369998.398963263
 10
345201.1192308666
 20
7370019.796288959
  0
LWPOLYLINE
  5
D3
100
AcDbEntity
  8
RUA PORTUGAL - 02_01_21 - PHANTOM - DJI_0006
  6
ByLayer
 62
  256
370
   -1
100
AcDbPolyline
 90
   16
 70
    0
 43
0
 10
345030.292998913
 20
7369813.199467391
 10
345047.3353134756
 20
7369852.003001742
 10
345045.6489815773
 20
7369862.114664278
 10
345032.8328063211
 20
7369881.663884942
 10
345021.8154379196
 20
7369899.415469745
 10
345001.0843857107
 20
7369936.152796417
 10
344974.2676934536
 20
7369992.454978516
 10
344959.42733879
 20
7370031.128723702
 10
344955.1189509779
 20
7370059.856756821
 10
344957.5165324483
 20
7370101.573393691
 10
344958.3888605279
 20
7370147.222656088
 10
344956.3469830887
 20
7370179.871902323
 10
344959.2039209456
 20
7370199.632698976
 10
344971.8609195724
 20
7370215.479496704
 10
344997.4593004291
 20
7370233.529251885
 10
345096.2978967437
 20
7370319.315219712
  0
LWPOLYLINE
  5
D4
100
AcDbEntity
  8
RUA JURITI - 02_01_21 - PHANTOM - DJI_0009
  6
ByLayer
 62
  256
370
   -1
100
AcDbPolyline
 90
   12
 70
    0
 43
0
 10
345409.1412531883
 20
7369911.861099024
 10
345395.0783998421
 20
7369928.2657339
 10
345384.7987488161
 20
7369935.756595108
 10
345372.5202767572
 20
7369940.964539591
 10
345356.6724550106
 20
7369941.249922277
 10
345332.8294019622
 20
7369945.387729948
 10
345324.8727365219
 20
7369946.956297226
 10
345311.7616116733
 20
7369951.070507985
 10
345294.3994723347
 20
7369965.828035613
 10
345273.1986034101
 20
7369980.043437473
 10
345256.2038963507
 20
7369989.502903578
 10
345201.1192308669
 20
7370019.796288958
  0
LWPOLYLINE
  5
D5
100
AcDbEntity
  8
HEINRICH NORDOFF - 31_12_20 - PHANTOM - DJI_0005
  6
ByLayer
 62
  256
370
   -1
100
AcDbPolyline
 90
    3
 70
    0
 43
0
 10
344170.7425423241
 20
7369610.583628342
 10
344157.4760100404
 20
7369590.938615657
 10
344008.234820369
 20
7369414.320976512
  0
LWPOLYLINE
  5
D6
100
AcDbEntity
  8
HEINRICH NORDOFF - 31_12_20 - PHANTOM - DJI_0005
  6
ByLayer
 62
  256
370
   -1
100
AcDbPolyline
 90
    4
 70
    0
 43
0
 10
344008.234820369
 20
7369414.320976512
 10
343999.826389215
 20
7369407.667076464
 10
343941.8534074254
 20
7369403.974109657
 10
343941.8534074254
 20
7369403.974109657
  0
LWPOLYLINE
  5
D7
100
AcDbEntity
  8
RUA ALBERTINO PINOTI - 31_12_20 - PHANTOM - DJI_0015 - DJI_0014
  6
ByLayer
 62
  256
370
   -1
100
AcDbPolyline
 90
    4
 70
    0
 43
0
 10
343879.4832214519
 20
7369406.645055683
 10
343859.096092196
 20
7369405.584545827
 10
343826.0131343025
 20
7369408.733309951
 10
343819.2685463289
 20
7369408.930119773
  0
LWPOLYLINE
  5
D8
100
AcDbEntity
  8
AVENIDA IVAÍ  - 31_12_20 - PHANTOM - DJI_0004
  6
ByLayer
 62
  256
370
   -1
100
AcDbPolyline
 90
    3
 70
    0
 43
0
 10
343941.8534074254
 20
7369403.974109657
 10
343942.1748591913
 20
7369394.302038362
 10
343950.0675228274
 20
7369345.834399375
  0
LWPOLYLINE
  5
D9
100
AcDbEntity
  8
RUA RIO ACIMA - 31_12_20 - PHANTOM - DJI_0009 - DJI_0010
  6
ByLayer
 62
  256
370
   -1
100
AcDbPolyline
 90
    7
 70
    0
 43
0
 10
343950.0675228275
 20
7369345.834399375
 10
343950.8522304366
 20
7369341.01563009
 10
343937.1138451746
 20
7369329.773568739
 10
343881.8381619177
 20
7369263.251390703
 10
343883.067810757
 20
7369249.605644422
 10
343886.1927512034
 20
7369236.490933372
 10
343950.9225007852
 20
7369084.108810612
  0
LWPOLYLINE
  5
DA
100
AcDbEntity
  8
AVENIDA DA PRAIA - 31_12_20  - PHANTOM - DJI_0007
  6
ByLayer
 62
  256
370
   -1
100
AcDbPolyline
 90
    4
 70
    0
 43
0
 10
344008.234820369
 20
7369414.320976512
 10
344025.4835107683
 20
7369396.623510521
 10
344030.9940094226
 20
7369382.593544013
 10
344030.9940094226
 20
7369382.593544013
  0
LWPOLYLINE
  5
DB
100
AcDbEntity
  8
RUA SOFÍA D'ÂNGELO CAPUTO - 31_12_20 - MAVIC - DJI_0164 - DJI_0165
  6
ByLayer
 62
  256
370
   -1
100
AcDbPolyline
 90
    5
 70
    0
 43
0
 10
344021.0416794041
 20
7369378.072908631
 10
344021.3189622168
 20
7369378.198858482
 10
344050.3305790329
 20
7369314.32881356
 10
344057.4080981255
 20
7369301.293062743
 10
344331.6889689374
 20
7369083.854919772
  0
LWPOLYLINE
  5
DC
100
AcDbEntity
  8
AVENIDA IVAÍ  - 31_12_20 - PHANTOM - DJI_0004
  6
ByLayer
 62
  256
370
   -1
100
AcDbPolyline
 90
    3
 70
    0
 43
0
 10
343950.8522304366
 20
7369341.01563009
 10
343951.8567603013
 20
7369281.436359345
 10
343951.8567603013
 20
7369281.436359345
  0
LWPOLYLINE
  5
DD
100
AcDbEntity
  8
RUA MARCÍLIO CONRADO - 31_12_20 - PHANTOM - DJI_0032
  6
ByLayer
 62
  256
370
   -1
100
AcDbPolyline
 90
    7
 70
    0
 43
0
 10
343951.8567603013
 20
7369281.436359345
 10
343959.5944637851
 20
7369228.731004187
 10
343965.9105955904
 20
7369205.447739374
 10
343973.6472361716
 20
7369191.638777007
 10
343983.7530524768
 20
7369180.277659222
 10
343998.069614291
 20
7369167.093160449
 10
344064.0460584492
 20
7369107.855390937
  0
LWPOLYLINE
  5
DE
100
AcDbEntity
  8
PASSAGEM ANÁPOLIS - 31_12_20 - PHANTOM - DJI_0023
  6
ByLayer
 62
  256
370
   -1
100
AcDbPolyline
 90
    3
 70
    0
 43
0
 10
344295.1145855273
 20
7368395.673754219
 10
344308.0693096567
 20
7368384.954986688
 10
344320.5582260444
 20
7368365.161065687
  0
LWPOLYLINE
  5
DF
100
AcDbEntity
  8
PASSAGEM TROPICAL - 31_12_20 - PHANTOM - DJI_0024
  6
ByLayer
 62
  256
370
   -1
100
AcDbPolyline
 90
    3
 70
    0
 43
0
 10
344124.7475168574
 20
7368612.637485362
 10
344156.5612352818
 20
7368645.126740678
 10
344166.097860288
 20
7368652.419107116
  0
LWPOLYLINE
  5
E0
100
AcDbEntity
  8
RUA HORIZONTE - 31_12_20 - PHANTOM - DJI_0025
  6
ByLayer
 62
  256
370
   -1
100
AcDbPolyline
 90
    2
 70
    0
 43
0
 10
344166.097860288
 20
7368652.419107116
 10
344205.8068285746
 20
7368695.35821924
  0
LWPOLYLINE
  5
E1
100
AcDbEntity
  8
RUA MARCÍLIO CONRADO - 31_12_20 - PHANTOM - DJI_0032
  6
ByLayer
 62
  256
370
   -1
100
AcDbPolyline
 90
   13
 70
    0
 43
0
 10
344380.0513511813
 20
7368593.267220003
 10
344378.6920366532
 20
7368578.595394041
 10
344380.2326107284
 20
7368566.912268899
 10
344384.2200566145
 20
7368550.610253457
 10
344391.8289953456
 20
7368518.824321214
 10
344395.0969501877
 20
7368504.944246422
 10
344398.5464287266
 20
7368491.880653713
 10
344399.2726291738
 20
7368486.891065105
 10
344398.8187671017
 20
7368482.173661318
 10
344398.4556668783
 20
7368478.635620542
 10
344383.1705368936
 20
7368458.321671752
 10
344373.1992014364
 20
7368444.924513299
 10
344373.1992014364
 20
7368444.924513299
  0
LWPOLYLINE
  5
E2
100
AcDbEntity
  8
RUA BELO MONTE - 31_12_20 - PHANTOM - DJI_0031
  6
ByLayer
 62
  256
370
   -1
100
AcDbPolyline
 90
    8
 70
    0
 43
0
 10
344373.1992014364
 20
7368444.924513299
 10
344378.4790263082
 20
7368431.733212564
 10
344397.1936651118
 20
7368408.244176308
 10
344406.2563783159
 20
7368396.737786722
 10
344413.1919993766
 20
7368382.47253699
 10
344415.6286221777
 20
7368364.004865552
 10
344417.8268762593
 20
7368358.329518853
 10
344460.2944709763
 20
7368340.560233272
  0
LWPOLYLINE
  5
E3
100
AcDbEntity
  8
RUA JACIPORÃ - 31_12_20 - PHANTOM - DJI_0022 - DJI_0019
  6
ByLayer
 62
  256
370
   -1
100
AcDbPolyline
 90
   14
 70
    0
 43
0
 10
344320.5582260444
 20
7368365.161065687
 10
344328.4582063778
 20
7368357.786572743
 10
344364.4905017049
 20
7368332.779854571
 10
344391.1522965585
 20
7368310.158282272
 10
344402.2809776579
 20
7368301.541476832
 10
344414.9135160194
 20
7368301.441274407
 10
344429.5512150074
 20
7368307.453009792
 10
344443.8881531089
 20
7368319.476456442
 10
344464.2117279388
 20
7368345.594304428
 10
344474.6633404415
 20
7368363.96360715
 10
344475.4794046279
 20
7368374.628711352
 10
344470.8968293924
 20
7368389.62264239
 10
344460.1777916999
 20
7368422.299828528
 10
344456.9081541655
 20
7368435.452760652
  0
LWPOLYLINE
  5
E4
100
AcDbEntity
  8
RUA SEM NOME - 31_12_20 - PHANTOM - DJI_0021
  6
ByLayer
 62
  256
370
   -1
100
AcDbPolyline
 90
    7
 70
    0
 43
0
 10
344456.9081541655
 20
7368435.452760652
 10
344453.8342886815
 20
7368447.818150897
 10
344445.7912462783
 20
7368489.508392042
 10
344444.781930147
 20
7368500.80614922
 10
344446.2254556102
 20
7368509.810880164
 10
344448.3355893407
 20
7368529.73058199
 10
344448.5377695468
 20
7368553.677731288
  0
LWPOLYLINE
  5
E5
100
AcDbEntity
  8
RUA AÇORES - 02_01_21 - PHANTOM - DJI_0011
  6
ByLayer
 62
  256
370
   -1
100
AcDbPolyline
 90
    3
 70
    0
 43
0
 10
344801.7678270059
 20
7369927.594283548
 10
344844.1277763674
 20
7369898.190288194
 10
344872.7155925873
 20
7369876.606497439
  0
LWPOLYLINE
  5
E6
100
AcDbEntity
  8
RUA MAFRA - 02_01_21 - PHANTOM - DJI_0010
  6
ByLayer
 62
  256
370
   -1
100
AcDbPolyline
 90
   24
 70
    0
 43
0
 10
344872.7155925873
 20
7369876.606497439
 10
344872.7155925873
 20
7369876.606497439
 10
344891.8088636188
 20
7369871.288747694
 10
344906.4157627479
 20
7369864.92831848
 10
344929.0219082545
 20
7369846.040993587
 10
344945.291048826
 20
7369837.181415014
 10
344970.5501557652
 20
7369829.726166325
 10
345034.4299084393
 20
7369812.055071601
 10
345102.6664411568
 20
7369791.917231047
 10
345141.4876821993
 20
7369780.802458506
 10
345164.6754854188
 20
7369775.979061641
 10
345189.2337502852
 20
7369774.750791739
 10
345201.3942530732
 20
7369777.37844534
 10
345224.3349178021
 20
7369785.918307477
 10
345239.3876488513
 20
7369794.852320072
 10
345252.4611587779
 20
7369804.892854082
 10
345261.3142955834
 20
7369815.320372618
 10
345274.0670220737
 20
7369833.752841709
 10
345285.7657911277
 20
7369853.238582343
 10
345303.8936477135
 20
7369869.037848459
 10
345343.333368942
 20
7369897.17294283
 10
345365.0445223215
 20
7369907.988748781
 10
345384.2479966219
 20
7369912.077625428
 10
345409.6604530004
 20
7369911.133259527
  0
LWPOLYLINE
  5
E7
100
AcDbEntity
  8
ESTRADA SIMÃO PORTELA - 31_12_20 - PHANTOM - DJI_0042
  6
ByLayer
 62
  256
370
   -1
100
AcDbPolyline
 90
   12
 70
    0
 43
0
 10
344635.4322840401
 20
7369571.679592827
 10
344644.7372882611
 20
7369543.338377653
 10
344647.5328584498
 20
7369530.719445739
 10
344648.2075260413
 20
7369521.471945869
 10
344647.8218845552
 20
7369512.995137922
 10
344645.0233059702
 20
7369493.955894191
 10
344636.2868066825
 20
7369452.482903333
 10
344623.5610363532
 20
7369405.854473892
 10
344619.5688166711
 20
7369394.883224307
 10
344547.172659786
 20
7369280.804837152
 10
344536.6927055811
 20
7369263.599718149
 10
344469.5653883932
 20
7369153.39566019
  0
LWPOLYLINE
  5
E8
100
AcDbEntity
  8
RUA ÂNGELA GIANOTO - 31_12_20 - PHANTOM - DJI_0011
  6
ByLayer
 62
  256
370
   -1
100
AcDbPolyline
 90
   14
 70
    0
 43
0
 10
343406.5511236227
 20
7369208.869956416
 10
343452.6814406194
 20
7369269.097091429
 10
343517.8314893615
 20
7369350.803930207
 10
343539.5962651372
 20
7369377.703226827
 10
343576.363108043
 20
7369422.293692438
 10
343582.0108934933
 20
7369426.405924723
 10
343589.1916455067
 20
7369421.890542342
 10
343659.6483039036
 20
7369300.790300841
 10
343688.5615525952
 20
7369243.531526977
 10
343717.8155544427
 20
7369179.931481313
 10
343739.8399365763
 20
7369126.655422129
 10
343746.7309691621
 20
7369113.011847257
 10
343762.8101332454
 20
7369090.212091743
 10
343818.5430648443
 20
7369039.076470807
  0
LWPOLYLINE
  5
E9
100
AcDbEntity
  8
RUA AUGUSTO PAULINO - 31_12_20 - MAVIC - DJI_0171
  6
ByLayer
 62
  256
370
   -1
100
AcDbPolyline
 90
    7
 70
    0
 43
0
 10
343818.5430648442
 20
7369039.076470807
 10
343822.8852316491
 20
7369035.092481639
 10
343832.022487908
 20
7369030.004910355
 10
343876.5627819993
 20
7368983.658791116
 10
343918.9012824022
 20
7368937.558653993
 10
343935.6306246393
 20
7368919.364590912
 10
343965.407854279
 20
7368888.357091337
  0
LWPOLYLINE
  5
EA
100
AcDbEntity
  8
RUA NOSSA SRA. DO CARMO - 31_12_20 - MAVIC - DJI_0167 - DJI_0168
  6
ByLayer
 62
  256
370
   -1
100
AcDbPolyline
 90
    5
 70
    0
 43
0
 10
344064.0460584492
 20
7369107.855390937
 10
344087.3129034255
 20
7369138.555624378
 10
344142.7096987304
 20
7369207.21431219
 10
344150.4755952333
 20
7369217.68557428
 10
344158.259511711
 20
7369221.34237562
  0
LWPOLYLINE
  5
EB
100
AcDbEntity
  8
RUA ROWENA - 31_12_20 - MAVIC - DJI_0168
  6
ByLayer
 62
  256
370
   -1
100
AcDbPolyline
 90
    4
 70
    0
 43
0
 10
344158.259511711
 20
7369221.34237562
 10
344164.8980121887
 20
7369224.461072682
 10
344172.2940990646
 20
7369235.055530918
 10
344220.225917243
 20
7369296.521938073
  0
ENDSEC
  0
SECTION
  2
OBJECTS
  0
DICTIONARY
  5
C
330
0
100
AcDbDictionary
281
    1
  3
ACAD_GROUP
350
D
  0
DICTIONARY
  5
D
330
C
100
AcDbDictionary
281
    1
  0
ENDSEC
  0
EOF
