999
dxfrw 0.6.3
  0
SECTION
  2
HEADER
  9
$ACADVER
  1
AC1021
  9
$DWGCODEPAGE
  3
ANSI_1252
  9
$INSBASE
 10
0
 20
0
 30
0
  9
$EXTMIN
 10
335237.5859462703
 20
7369215.541406313
 30
0
  9
$EXTMAX
 10
340737.147206562
 20
7372734.673521073
 30
0
  9
$LIMMIN
 10
0
 20
0
  9
$LIMMAX
 10
12
 20
9
  9
$ORTHOMODE
 70
    0
  9
$REGENMODE
 70
    1
  9
$FILLMODE
 70
    1
  9
$QTEXTMODE
 70
    0
  9
$MIRRTEXT
 70
    1
  9
$LTSCALE
 40
1
  9
$ATTMODE
 70
    1
  9
$TEXTSIZE
 40
0.2
  9
$TRACEWID
 40
0.05
  9
$TEXTSTYLE
  7
Standard
  9
$CLAYER
  8
ESTRADA GALVÃO BUENO 30_12_20  - etapa 02 - DJI_0001 - DJI_0002
  9
$CELTYPE
  6
ByLayer
  9
$CECOLOR
 62
  256
  9
$CELTSCALE
 40
1
  9
$DISPSILH
 70
    0
  9
$DIMSCALE
 40
1
  9
$DIMASZ
 40
0.18
  9
$DIMEXO
 40
0.0625
  9
$DIMDLI
 40
0.38
  9
$DIMRND
 40
0
  9
$DIMDLE
 40
0
  9
$DIMEXE
 40
0.18
  9
$DIMTP
 40
0
  9
$DIMTM
 40
0
  9
$DIMTXT
 40
0.18
  9
$DIMCEN
 40
0.09
  9
$DIMTSZ
 40
0
  9
$DIMTOL
 70
    0
  9
$DIMLIM
 70
    0
  9
$DIMTIH
 70
    1
  9
$DIMTOH
 70
    1
  9
$DIMSE1
 70
    0
  9
$DIMSE2
 70
    0
  9
$DIMTAD
 70
    0
  9
$DIMZIN
 70
    0
  9
$DIMBLK
  1

  9
$DIMASO
 70
    1
  9
$DIMSHO
 70
    1
  9
$DIMPOST
  1

  9
$DIMAPOST
  1

  9
$DIMALT
 70
    0
  9
$DIMALTD
 70
    2
  9
$DIMALTF
 40
25.4
  9
$DIMLFAC
 40
1
  9
$DIMTOFL
 70
    0
  9
$DIMTVP
 40
0
  9
$DIMTIX
 70
    0
  9
$DIMSOXD
 70
    0
  9
$DIMSAH
 70
    0
  9
$DIMBLK1
  1

  9
$DIMBLK2
  1

  9
$DIMSTYLE
  2
STANDARD_ACAD
  9
$DIMCLRD
 70
    0
  9
$DIMCLRE
 70
    0
  9
$DIMCLRT
 70
    0
  9
$DIMTFAC
 40
1
  9
$DIMGAP
 40
0.09
  9
$DIMJUST
 70
    0
  9
$DIMSD1
 70
    0
  9
$DIMSD2
 70
    0
  9
$DIMTOLJ
 70
    1
  9
$DIMTZIN
 70
    0
  9
$DIMALTZ
 70
    0
  9
$DIMALTTZ
 70
    0
  9
$DIMUPT
 70
    0
  9
$DIMDEC
 70
    4
  9
$DIMTDEC
 70
    4
  9
$DIMALTU
 70
    2
  9
$DIMALTTD
 70
    2
  9
$DIMTXSTY
  7
Standard
  9
$DIMAUNIT
 70
    0
  9
$DIMADEC
 70
    0
  9
$DIMALTRND
 40
0
  9
$DIMAZIN
 70
    0
  9
$DIMDSEP
 70
   46
  9
$DIMATFIT
 70
    3
  9
$DIMFRAC
 70
    0
  9
$DIMLDRBLK
  1

  9
$DIMLUNIT
 70
    2
  9
$DIMLWD
 70
   -2
  9
$DIMLWE
 70
   -2
  9
$DIMTMOVE
 70
    2
  9
$DIMFXL
 40
1
  9
$DIMFXLON
 70
    0
  9
$DIMJOGANG
 40
0.7853981633974483
  9
$DIMTFILL
 70
    0
  9
$DIMTFILLCLR
 70
    0
  9
$DIMARCSYM
 70
    0
  9
$DIMLTYPE
  6

  9
$DIMLTEX1
  6

  9
$DIMLTEX2
  6

  9
$LUNITS
 70
    2
  9
$LUPREC
 70
    3
  9
$SKETCHINC
 40
0.1
  9
$FILLETRAD
 40
0.5
  9
$AUNITS
 70
    0
  9
$AUPREC
 70
    0
  9
$MENU
  1
.
  9
$ELEVATION
 40
0
  9
$PELEVATION
 40
0
  9
$THICKNESS
 40
0
  9
$LIMCHECK
 70
    0
  9
$CHAMFERA
 40
0
  9
$CHAMFERB
 40
0
  9
$CHAMFERC
 40
0
  9
$CHAMFERD
 40
0
  9
$SKPOLY
 70
    0
  9
$USRTIMER
 70
    1
  9
$ANGBASE
 50
0
  9
$ANGDIR
 70
    0
  9
$PDMODE
 70
    0
  9
$PDSIZE
 40
0
  9
$PLINEWID
 40
0
  9
$SPLFRAME
 70
    0
  9
$SPLINETYPE
 70
    6
  9
$SPLINESEGS
 70
    8
  9
$HANDSEED
  5
20000
  9
$SURFTAB1
 70
    6
  9
$SURFTAB2
 70
    6
  9
$SURFTYPE
 70
    6
  9
$SURFU
 70
    6
  9
$SURFV
 70
    6
  9
$UCSBASE
  2

  9
$UCSNAME
  2

  9
$UCSORG
 10
0
 20
0
 30
0
  9
$UCSXDIR
 10
1
 20
0
 30
0
  9
$UCSYDIR
 10
0
 20
1
 30
0
  9
$UCSORTHOREF
  2

  9
$UCSORTHOVIEW
 70
    0
  9
$UCSORGTOP
 10
0
 20
0
 30
0
  9
$UCSORGBOTTOM
 10
0
 20
0
 30
0
  9
$UCSORGLEFT
 10
0
 20
0
 30
0
  9
$UCSORGRIGHT
 10
0
 20
0
 30
0
  9
$UCSORGFRONT
 10
0
 20
0
 30
0
  9
$UCSORGBACK
 10
0
 20
0
 30
0
  9
$PUCSBASE
  2

  9
$PUCSNAME
  2

  9
$PUCSORG
 10
0
 20
0
 30
0
  9
$PUCSXDIR
 10
1
 20
0
 30
0
  9
$PUCSYDIR
 10
0
 20
1
 30
0
  9
$PUCSORTHOREF
  2

  9
$PUCSORTHOVIEW
 70
    0
  9
$PUCSORGTOP
 10
0
 20
0
 30
0
  9
$PUCSORGBOTTOM
 10
0
 20
0
 30
0
  9
$PUCSORGLEFT
 10
0
 20
0
 30
0
  9
$PUCSORGRIGHT
 10
0
 20
0
 30
0
  9
$PUCSORGFRONT
 10
0
 20
0
 30
0
  9
$PUCSORGBACK
 10
0
 20
0
 30
0
  9
$USERI1
 70
    0
  9
$USERI2
 70
    0
  9
$USERI3
 70
    0
  9
$USERI4
 70
    0
  9
$USERI5
 70
    0
  9
$USERR1
 40
0
  9
$USERR2
 40
0
  9
$USERR3
 40
0
  9
$USERR4
 40
0
  9
$USERR5
 40
0
  9
$WORLDVIEW
 70
    1
  9
$SHADEDGE
 70
    3
  9
$SHADEDIF
 70
   70
  9
$TILEMODE
 70
    1
  9
$MAXACTVP
 70
   64
  9
$PINSBASE
 10
0
 20
0
 30
0
  9
$PLIMCHECK
 70
    0
  9
$PEXTMIN
 10
1e+20
 20
1e+20
 30
1e+20
  9
$PEXTMAX
 10
-1e+20
 20
-1e+20
 30
-1e+20
  9
$GRIDMODE
 70
    0
  9
$SNAPSTYLE
 70
    0
  9
$PLIMMIN
 10
0
 20
0
  9
$PLIMMAX
 10
12
 20
9
  9
$UNITMODE
 70
    0
  9
$VISRETAIN
 70
    1
  9
$PLINEGEN
 70
    0
  9
$PSLTSCALE
 70
    1
  9
$TREEDEPTH
 70
 3020
  9
$CMLSTYLE
  2
Standard
  9
$CMLJUST
 70
    0
  9
$CMLSCALE
 40
1
  9
$PROXYGRAPHICS
 70
    1
  9
$MEASUREMENT
 70
    1
  9
$CELWEIGHT
370
   -1
  9
$ENDCAPS
280
    0
  9
$JOINSTYLE
280
    0
  9
$LWDISPLAY
290
    0
  9
$INSUNITS
 70
    6
  9
$HYPERLINKBASE
  1

  9
$STYLESHEET
  1

  9
$XEDIT
290
    1
  9
$CEPSNTYPE
380
    0
  9
$PSTYLEMODE
290
    1
  9
$EXTNAMES
290
    1
  9
$PSVPSCALE
 40
0
  9
$OLESTARTUP
290
    0
  9
$SORTENTS
280
  127
  9
$INDEXCTL
280
    0
  9
$HIDETEXT
280
    1
  9
$XCLIPFRAME
290
    0
  9
$HALOGAP
280
    0
  9
$OBSCOLOR
 70
  257
  9
$OBSLTYPE
280
    0
  9
$INTERSECTIONDISPLAY
280
    0
  9
$INTERSECTIONCOLOR
 70
  257
  9
$DIMASSOC
280
    2
  9
$PROJECTNAME
  1

  9
$CAMERADISPLAY
290
    0
  9
$LENSLENGTH
 40
50
  9
$CAMERAHEIGHT
 40
0
  9
$STEPSPERSEC
 40
2
  9
$STEPSIZE
 40
6
  9
$3DDWFPREC
 40
2
  9
$PSOLWIDTH
 40
0.25
  9
$PSOLHEIGHT
 40
4
  9
$LOFTANG1
 40
1.570796326794897
  9
$LOFTANG2
 40
1.570796326794897
  9
$LOFTMAG1
 40
0
  9
$LOFTMAG2
 40
0
  9
$LOFTPARAM
 70
    7
  9
$LOFTNORMALS
280
    1
  9
$LATITUDE
 40
37.795
  9
$LONGITUDE
 40
-122.394
  9
$NORTHDIRECTION
 40
0
  9
$TIMEZONE
 70
-8000
  9
$LIGHTGLYPHDISPLAY
280
    1
  9
$TILEMODELIGHTSYNCH
280
    1
  9
$SOLIDHIST
280
    0
  9
$SHOWHIST
280
    1
  9
$DWFFRAME
280
    2
  9
$DGNFRAME
280
    2
  9
$REALWORLDSCALE
290
    1
  9
$INTERFERECOLOR
 62
  256
  9
$CSHADOW
280
    0
  9
$SHADOWPLANELOCATION
 40
0
  0
ENDSEC
  0
SECTION
  2
CLASSES
  0
ENDSEC
  0
SECTION
  2
TABLES
  0
TABLE
  2
VPORT
  5
8
330
0
100
AcDbSymbolTable
 70
    1
  0
VPORT
  5
31
330
2
100
AcDbSymbolTableRecord
100
AcDbViewportTableRecord
  2
*ACTIVE
 70
    0
 10
0
 20
0
 11
1
 21
1
 12
13.45352143004865
 22
4.27959117546363
 13
0
 23
0
 14
10
 24
10
 15
10
 25
10
 16
0
 26
0
 36
1
 17
0
 27
0
 37
0
 40
19.26998236465668
 41
1.23558282208589
 42
50
 43
0
 44
0
 50
0
 51
0
 71
    0
 72
  100
 73
    1
 74
    3
 75
    0
 76
    0
 77
    0
 78
    0
281
    0
 65
    1
110
0
120
0
130
0
111
1
121
0
131
0
112
0
122
1
132
0
 79
    0
146
0
348
10020
 60
    7
 61
    5
292
1
282
    1
141
0
142
0
 63
  250
421
3358443
  0
ENDTAB
  0
TABLE
  2
LTYPE
  5
5
330
0
100
AcDbSymbolTable
 70
    4
  0
LTYPE
  5
14
330
5
100
AcDbSymbolTableRecord
100
AcDbLinetypeTableRecord
  2
ByBlock
 70
    0
  3

 72
   65
 73
    0
 40
0
  0
LTYPE
  5
15
330
5
100
AcDbSymbolTableRecord
100
AcDbLinetypeTableRecord
  2
ByLayer
 70
    0
  3

 72
   65
 73
    0
 40
0
  0
LTYPE
  5
16
330
5
100
AcDbSymbolTableRecord
100
AcDbLinetypeTableRecord
  2
Continuous
 70
    0
  3
Solid line
 72
   65
 73
    0
 40
0
  0
LTYPE
  5
32
330
5
100
AcDbSymbolTableRecord
100
AcDbLinetypeTableRecord
  2
DOT
 70
    0
  3
Dot . . . . . . . . . . . . . . . . . . . . . .
 72
   65
 73
    2
 40
6.35
 49
0
 74
    0
 49
-6.35
 74
    0
  0
LTYPE
  5
33
330
5
100
AcDbSymbolTableRecord
100
AcDbLinetypeTableRecord
  2
DOTTINY
 70
    0
  3
Dot (.15x) .....................................
 72
   65
 73
    2
 40
0.9525
 49
0
 74
    0
 49
-0.9525
 74
    0
  0
LTYPE
  5
34
330
5
100
AcDbSymbolTableRecord
100
AcDbLinetypeTableRecord
  2
DOT2
 70
    0
  3
Dot (.5x) .....................................
 72
   65
 73
    2
 40
3.175
 49
0
 74
    0
 49
-3.175
 74
    0
  0
LTYPE
  5
35
330
5
100
AcDbSymbolTableRecord
100
AcDbLinetypeTableRecord
  2
DOTX2
 70
    0
  3
Dot (2x) .  .  .  .  .  .  .  .  .  .  .  .  .
 72
   65
 73
    2
 40
12.7
 49
0
 74
    0
 49
-12.7
 74
    0
  0
LTYPE
  5
36
330
5
100
AcDbSymbolTableRecord
100
AcDbLinetypeTableRecord
  2
DASHED
 70
    0
  3
Dashed _ _ _ _ _ _ _ _ _ _ _ _ _ _ _ _ _
 72
   65
 73
    2
 40
19.05
 49
12.7
 74
    0
 49
-6.35
 74
    0
  0
LTYPE
  5
37
330
5
100
AcDbSymbolTableRecord
100
AcDbLinetypeTableRecord
  2
DASHEDTINY
 70
    0
  3
Dashed (.15x) _ _ _ _ _ _ _ _ _ _ _ _ _ _ _ _ _
 72
   65
 73
    2
 40
2.8575
 49
1.905
 74
    0
 49
-0.9525
 74
    0
  0
LTYPE
  5
38
330
5
100
AcDbSymbolTableRecord
100
AcDbLinetypeTableRecord
  2
DASHED2
 70
    0
  3
Dashed (.5x) _ _ _ _ _ _ _ _ _ _ _ _ _ _ _ _ _
 72
   65
 73
    2
 40
9.524999999999999
 49
6.35
 74
    0
 49
-3.175
 74
    0
  0
LTYPE
  5
39
330
5
100
AcDbSymbolTableRecord
100
AcDbLinetypeTableRecord
  2
DASHEDX2
 70
    0
  3
Dashed (2x) ____  ____  ____  ____  ____  ___
 72
   65
 73
    2
 40
38.09999999999999
 49
25.4
 74
    0
 49
-12.7
 74
    0
  0
LTYPE
  5
3A
330
5
100
AcDbSymbolTableRecord
100
AcDbLinetypeTableRecord
  2
DASHDOT
 70
    0
  3
Dash dot __ . __ . __ . __ . __ . __ . __ . __
 72
   65
 73
    4
 40
25.4
 49
12.7
 74
    0
 49
-6.35
 74
    0
 49
0
 74
    0
 49
-6.35
 74
    0
  0
LTYPE
  5
3B
330
5
100
AcDbSymbolTableRecord
100
AcDbLinetypeTableRecord
  2
DASHDOTTINY
 70
    0
  3
Dash dot (.15x) _._._._._._._._._._._._._._._.
 72
   65
 73
    4
 40
3.81
 49
1.905
 74
    0
 49
-0.9525
 74
    0
 49
0
 74
    0
 49
-0.9525
 74
    0
  0
LTYPE
  5
3C
330
5
100
AcDbSymbolTableRecord
100
AcDbLinetypeTableRecord
  2
DASHDOT2
 70
    0
  3
Dash dot (.5x) _._._._._._._._._._._._._._._.
 72
   65
 73
    4
 40
12.7
 49
6.35
 74
    0
 49
-3.175
 74
    0
 49
0
 74
    0
 49
-3.175
 74
    0
  0
LTYPE
  5
3D
330
5
100
AcDbSymbolTableRecord
100
AcDbLinetypeTableRecord
  2
DASHDOTX2
 70
    0
  3
Dash dot (2x) ____  .  ____  .  ____  .  ___
 72
   65
 73
    4
 40
50.8
 49
25.4
 74
    0
 49
-12.7
 74
    0
 49
0
 74
    0
 49
-12.7
 74
    0
  0
LTYPE
  5
3E
330
5
100
AcDbSymbolTableRecord
100
AcDbLinetypeTableRecord
  2
DIVIDE
 70
    0
  3
Divide ____ . . ____ . . ____ . . ____ . . ____
 72
   65
 73
    6
 40
31.75
 49
12.7
 74
    0
 49
-6.35
 74
    0
 49
0
 74
    0
 49
-6.35
 74
    0
 49
0
 74
    0
 49
-6.35
 74
    0
  0
LTYPE
  5
3F
330
5
100
AcDbSymbolTableRecord
100
AcDbLinetypeTableRecord
  2
DIVIDETINY
 70
    0
  3
Divide (.15x) __..__..__..__..__..__..__..__.._
 72
   65
 73
    6
 40
4.7625
 49
1.905
 74
    0
 49
-0.9525
 74
    0
 49
0
 74
    0
 49
-0.9525
 74
    0
 49
0
 74
    0
 49
-0.9525
 74
    0
  0
LTYPE
  5
40
330
5
100
AcDbSymbolTableRecord
100
AcDbLinetypeTableRecord
  2
DIVIDE2
 70
    0
  3
Divide (.5x) __..__..__..__..__..__..__..__.._
 72
   65
 73
    6
 40
15.875
 49
6.35
 74
    0
 49
-3.175
 74
    0
 49
0
 74
    0
 49
-3.175
 74
    0
 49
0
 74
    0
 49
-3.175
 74
    0
  0
LTYPE
  5
41
330
5
100
AcDbSymbolTableRecord
100
AcDbLinetypeTableRecord
  2
DIVIDEX2
 70
    0
  3
Divide (2x) ________  .  .  ________  .  .  _
 72
   65
 73
    6
 40
63.5
 49
25.4
 74
    0
 49
-12.7
 74
    0
 49
0
 74
    0
 49
-12.7
 74
    0
 49
0
 74
    0
 49
-12.7
 74
    0
  0
LTYPE
  5
42
330
5
100
AcDbSymbolTableRecord
100
AcDbLinetypeTableRecord
  2
BORDER
 70
    0
  3
Border __ __ . __ __ . __ __ . __ __ . __ __ .
 72
   65
 73
    6
 40
44.45
 49
12.7
 74
    0
 49
-6.35
 74
    0
 49
12.7
 74
    0
 49
-6.35
 74
    0
 49
0
 74
    0
 49
-6.35
 74
    0
  0
LTYPE
  5
43
330
5
100
AcDbSymbolTableRecord
100
AcDbLinetypeTableRecord
  2
BORDERTINY
 70
    0
  3
Border (.15x) __.__.__.__.__.__.__.__.__.__.__.
 72
   65
 73
    6
 40
6.6675
 49
1.905
 74
    0
 49
-0.9525
 74
    0
 49
1.905
 74
    0
 49
-0.9525
 74
    0
 49
0
 74
    0
 49
-0.9525
 74
    0
  0
LTYPE
  5
44
330
5
100
AcDbSymbolTableRecord
100
AcDbLinetypeTableRecord
  2
BORDER2
 70
    0
  3
Border (.5x) __.__.__.__.__.__.__.__.__.__.__.
 72
   65
 73
    6
 40
22.225
 49
6.35
 74
    0
 49
-3.175
 74
    0
 49
6.35
 74
    0
 49
-3.175
 74
    0
 49
0
 74
    0
 49
-3.175
 74
    0
  0
LTYPE
  5
45
330
5
100
AcDbSymbolTableRecord
100
AcDbLinetypeTableRecord
  2
BORDERX2
 70
    0
  3
Border (2x) ____  ____  .  ____  ____  .  ___
 72
   65
 73
    6
 40
88.89999999999999
 49
25.4
 74
    0
 49
-12.7
 74
    0
 49
25.4
 74
    0
 49
-12.7
 74
    0
 49
0
 74
    0
 49
-12.7
 74
    0
  0
LTYPE
  5
46
330
5
100
AcDbSymbolTableRecord
100
AcDbLinetypeTableRecord
  2
CENTER
 70
    0
  3
Center ____ _ ____ _ ____ _ ____ _ ____ _ ____
 72
   65
 73
    4
 40
50.8
 49
31.75
 74
    0
 49
-6.35
 74
    0
 49
6.35
 74
    0
 49
-6.35
 74
    0
  0
LTYPE
  5
47
330
5
100
AcDbSymbolTableRecord
100
AcDbLinetypeTableRecord
  2
CENTERTINY
 70
    0
  3
Center (.15x) ___ _ ___ _ ___ _ ___ _ ___ _ ___
 72
   65
 73
    4
 40
7.619999999999999
 49
4.7625
 74
    0
 49
-0.9525
 74
    0
 49
0.9525
 74
    0
 49
-0.9525
 74
    0
  0
LTYPE
  5
48
330
5
100
AcDbSymbolTableRecord
100
AcDbLinetypeTableRecord
  2
CENTER2
 70
    0
  3
Center (.5x) ___ _ ___ _ ___ _ ___ _ ___ _ ___
 72
   65
 73
    4
 40
28.575
 49
19.05
 74
    0
 49
-3.175
 74
    0
 49
3.175
 74
    0
 49
-3.175
 74
    0
  0
LTYPE
  5
49
330
5
100
AcDbSymbolTableRecord
100
AcDbLinetypeTableRecord
  2
CENTERX2
 70
    0
  3
Center (2x) ________  __  ________  __  _____
 72
   65
 73
    4
 40
101.6
 49
63.5
 74
    0
 49
-12.7
 74
    0
 49
12.7
 74
    0
 49
-12.7
 74
    0
  0
ENDTAB
  0
TABLE
  2
LAYER
  5
2
330
0
100
AcDbSymbolTable
 70
    1
  0
LAYER
  5
10
330
2
100
AcDbSymbolTableRecord
100
AcDbLayerTableRecord
  2
0
 70
    0
 62
    7
  6
CONTINUOUS
370
   -3
390
F
  0
LAYER
  5
4A
330
2
100
AcDbSymbolTableRecord
100
AcDbLayerTableRecord
  2
AVENIDA VITOR BRECHERET - 30_12_20 - etapa 02 - DJI_0023
 70
    0
 62
    7
  6
CONTINUOUS
370
   -3
390
F
  0
LAYER
  5
4B
330
2
100
AcDbSymbolTableRecord
100
AcDbLayerTableRecord
  2
AVENIDA ÂNGEKO DEMACHI - 30_12_20 - etapa 01 - DJI_0004
 70
    0
 62
    7
  6
CONTINUOUS
370
   -3
390
F
  0
LAYER
  5
4C
330
2
100
AcDbSymbolTableRecord
100
AcDbLayerTableRecord
  2
ESTRADA ARTHUR MARSON - 30_12_20 - etapa 01 - DJI_0007
 70
    0
 62
    7
  6
CONTINUOUS
370
   -3
390
F
  0
LAYER
  5
4D
330
2
100
AcDbSymbolTableRecord
100
AcDbLayerTableRecord
  2
ESTRADA GALVÃO - 30_12_20 - etapa 01  - DJI_0028
 70
    0
 62
    7
  6
CONTINUOUS
370
   -3
390
F
  0
LAYER
  5
4E
330
2
100
AcDbSymbolTableRecord
100
AcDbLayerTableRecord
  2
ESTRADA GALVÃO BUENO 30_12_20  - etapa 02 - DJI_0001 - DJI_0002
 70
    0
 62
    7
  6
CONTINUOUS
370
   -3
390
F
  0
LAYER
  5
4F
330
2
100
AcDbSymbolTableRecord
100
AcDbLayerTableRecord
  2
ESTRADA JOSÉ MOURA - 30_12_20 - etapa 01 - DJI_0041
 70
    0
 62
    7
  6
CONTINUOUS
370
   -3
390
F
  0
LAYER
  5
50
330
2
100
AcDbSymbolTableRecord
100
AcDbLayerTableRecord
  2
ESTRADA LUIZ MARSON - 30_12_20 - etapa 01 - DJI_0025
 70
    0
 62
    7
  6
CONTINUOUS
370
   -3
390
F
  0
LAYER
  5
51
330
2
100
AcDbSymbolTableRecord
100
AcDbLayerTableRecord
  2
ESTRADA MARCO POLO - 30_12_20 - etapa 01 - DJI_0031 - DJI_0032 - DJI_0033
 70
    0
 62
    7
  6
CONTINUOUS
370
   -3
390
F
  0
LAYER
  5
52
330
2
100
AcDbSymbolTableRecord
100
AcDbLayerTableRecord
  2
IRMÃ DOROTHY STANG - 30_12_20 - DJI_0136 - etapa 03
 70
    0
 62
    7
  6
CONTINUOUS
370
   -3
390
F
  0
LAYER
  5
53
330
2
100
AcDbSymbolTableRecord
100
AcDbLayerTableRecord
  2
MARIA ENCARNAÇÃO NUTE - 30_12_20 - etapa 04 - DJI_0032
 70
    0
 62
    7
  6
CONTINUOUS
370
   -3
390
F
  0
LAYER
  5
54
330
2
100
AcDbSymbolTableRecord
100
AcDbLayerTableRecord
  2
MCT - AVENIDA VENÂNCIA TOMÁS DE AQUINO
 70
    0
 62
    7
  6
CONTINUOUS
370
   -3
390
F
  0
LAYER
  5
55
330
2
100
AcDbSymbolTableRecord
100
AcDbLayerTableRecord
  2
MCT - RUA BOA VISTA
 70
    0
 62
    7
  6
CONTINUOUS
370
   -3
390
F
  0
LAYER
  5
56
330
2
100
AcDbSymbolTableRecord
100
AcDbLayerTableRecord
  2
MCT - RUA CANADÁ
 70
    0
 62
    7
  6
CONTINUOUS
370
   -3
390
F
  0
LAYER
  5
57
330
2
100
AcDbSymbolTableRecord
100
AcDbLayerTableRecord
  2
MCT - RUA JOÃO ANTUNES
 70
    0
 62
    7
  6
CONTINUOUS
370
   -3
390
F
  0
LAYER
  5
58
330
2
100
AcDbSymbolTableRecord
100
AcDbLayerTableRecord
  2
MCT - RUA NOVA YORQUE
 70
    0
 62
    7
  6
CONTINUOUS
370
   -3
390
F
  0
LAYER
  5
59
330
2
100
AcDbSymbolTableRecord
100
AcDbLayerTableRecord
  2
MCT - RUA PARAÍBA
 70
    0
 62
    7
  6
CONTINUOUS
370
   -3
390
F
  0
LAYER
  5
5A
330
2
100
AcDbSymbolTableRecord
100
AcDbLayerTableRecord
  2
MCT - RUA TIBAGI
 70
    0
 62
    7
  6
CONTINUOUS
370
   -3
390
F
  0
LAYER
  5
5B
330
2
100
AcDbSymbolTableRecord
100
AcDbLayerTableRecord
  2
MCT - TV. DAS GOIABEIRAS
 70
    0
 62
    7
  6
CONTINUOUS
370
   -3
390
F
  0
LAYER
  5
5C
330
2
100
AcDbSymbolTableRecord
100
AcDbLayerTableRecord
  2
MCT - ÚNA
 70
    0
 62
    7
  6
CONTINUOUS
370
   -3
390
F
  0
LAYER
  5
5D
330
2
100
AcDbSymbolTableRecord
100
AcDbLayerTableRecord
  2
MCT RUA PROF. BENEDITO CARLOS DOS SANTOS
 70
    0
 62
    7
  6
CONTINUOUS
370
   -3
390
F
  0
LAYER
  5
5E
330
2
100
AcDbSymbolTableRecord
100
AcDbLayerTableRecord
  2
PASSAGEM DE ACÁCIA - 30_12_20 - etapa 01 - DJI_0013
 70
    0
 62
    7
  6
CONTINUOUS
370
   -3
390
F
  0
LAYER
  5
5F
330
2
100
AcDbSymbolTableRecord
100
AcDbLayerTableRecord
  2
PASSAGEM INÊS DE ARAÚJO - 30_12_20 - etapa 01 - DJI_0038
 70
    0
 62
    7
  6
CONTINUOUS
370
   -3
390
F
  0
LAYER
  5
60
330
2
100
AcDbSymbolTableRecord
100
AcDbLayerTableRecord
  2
PASSAGEM SÃO RAFAEL - 30_12_20 - etapa 01 - DJI_0014
 70
    0
 62
    7
  6
CONTINUOUS
370
   -3
390
F
  0
LAYER
  5
61
330
2
100
AcDbSymbolTableRecord
100
AcDbLayerTableRecord
  2
RUA ACRE - 31_12_20 - MAVIC - DJI_0161
 70
    0
 62
    7
  6
CONTINUOUS
370
   -3
390
F
  0
LAYER
  5
62
330
2
100
AcDbSymbolTableRecord
100
AcDbLayerTableRecord
  2
RUA ACRISIATAS - 30_12_20 - etapa 04 - DJI_0013
 70
    0
 62
    7
  6
CONTINUOUS
370
   -3
390
F
  0
LAYER
  5
63
330
2
100
AcDbSymbolTableRecord
100
AcDbLayerTableRecord
  2
RUA AGUAS DE PRATA - 30_12_20 - etapa 01 - DJI_0012
 70
    0
 62
    7
  6
CONTINUOUS
370
   -3
390
F
  0
LAYER
  5
64
330
2
100
AcDbSymbolTableRecord
100
AcDbLayerTableRecord
  2
RUA ALAMEDA DAS PAINEIRAS - 30_12_20 - etapa 01 - DJI_0004 - DJI_0001
 70
    0
 62
    7
  6
CONTINUOUS
370
   -3
390
F
  0
LAYER
  5
65
330
2
100
AcDbSymbolTableRecord
100
AcDbLayerTableRecord
  2
RUA AMABILE MASSINI ORTEGA - 30_12_20 - etapa 04 - DJI_0004
 70
    0
 62
    7
  6
CONTINUOUS
370
   -3
390
F
  0
LAYER
  5
66
330
2
100
AcDbSymbolTableRecord
100
AcDbLayerTableRecord
  2
RUA AMÁBILE GRASIOTIN GRASSIOTTO - 30_12_20 - etapa 02 - DJI_0017
 70
    0
 62
    7
  6
CONTINUOUS
370
   -3
390
F
  0
LAYER
  5
67
330
2
100
AcDbSymbolTableRecord
100
AcDbLayerTableRecord
  2
RUA ANITA MALFATTI - 30_12_20 - etapa 02 - DJI_0019
 70
    0
 62
    7
  6
CONTINUOUS
370
   -3
390
F
  0
LAYER
  5
68
330
2
100
AcDbSymbolTableRecord
100
AcDbLayerTableRecord
  2
RUA ANTONIA MARIA SALATIEL - 30_12_20 - etapa 01 - DJI_0009
 70
    0
 62
    7
  6
CONTINUOUS
370
   -3
390
F
  0
LAYER
  5
69
330
2
100
AcDbSymbolTableRecord
100
AcDbLayerTableRecord
  2
RUA ANTONIO BATTISTINI - 30_12_20 - etapa 01 - DJI_0026
 70
    0
 62
    7
  6
CONTINUOUS
370
   -3
390
F
  0
LAYER
  5
6A
330
2
100
AcDbSymbolTableRecord
100
AcDbLayerTableRecord
  2
RUA ARACATI - 30_12_20 - etapa 02 - DJI_0022
 70
    0
 62
    7
  6
CONTINUOUS
370
   -3
390
F
  0
LAYER
  5
6B
330
2
100
AcDbSymbolTableRecord
100
AcDbLayerTableRecord
  2
RUA ASSUMPTA SABATINI ROSSI - 30_12_20 - etapa 01 - DJI_0024
 70
    0
 62
    7
  6
CONTINUOUS
370
   -3
390
F
  0
LAYER
  5
6C
330
2
100
AcDbSymbolTableRecord
100
AcDbLayerTableRecord
  2
RUA AUGUSTO VENTURINI - 30_12_20 - etapa 01 - DJI_0039
 70
    0
 62
    7
  6
CONTINUOUS
370
   -3
390
F
  0
LAYER
  5
6D
330
2
100
AcDbSymbolTableRecord
100
AcDbLayerTableRecord
  2
RUA BELA VISTA - 30_12_20 - etapa 03 - DJI_0120 - DJI_0123
 70
    0
 62
    7
  6
CONTINUOUS
370
   -3
390
F
  0
LAYER
  5
6E
330
2
100
AcDbSymbolTableRecord
100
AcDbLayerTableRecord
  2
RUA CANAÃ - 30_12_20 - etapa 04 - DJI_0012
 70
    0
 62
    7
  6
CONTINUOUS
370
   -3
390
F
  0
LAYER
  5
6F
330
2
100
AcDbSymbolTableRecord
100
AcDbLayerTableRecord
  2
RUA CAPIVARI - 30_12_20 - etapa 03 - DJI_0141
 70
    0
 62
    7
  6
CONTINUOUS
370
   -3
390
F
  0
LAYER
  5
70
330
2
100
AcDbSymbolTableRecord
100
AcDbLayerTableRecord
  2
RUA CARMEN MIRANDA - 30_12_20 - etapa 02 - DJI_0021
 70
    0
 62
    7
  6
CONTINUOUS
370
   -3
390
F
  0
LAYER
  5
71
330
2
100
AcDbSymbolTableRecord
100
AcDbLayerTableRecord
  2
RUA CASSIANO RICARDO - 30_12_20 - etapa 03 - DJI_0139
 70
    0
 62
    7
  6
CONTINUOUS
370
   -3
390
F
  0
LAYER
  5
72
330
2
100
AcDbSymbolTableRecord
100
AcDbLayerTableRecord
  2
RUA CEARÁ MIRIM - 31_12_20 - MAVIC - DJI_0153
 70
    0
 62
    7
  6
CONTINUOUS
370
   -3
390
F
  0
LAYER
  5
73
330
2
100
AcDbSymbolTableRecord
100
AcDbLayerTableRecord
  2
RUA CORREIA - 30_12_20 - etapa 03 - DJI_0115
 70
    0
 62
    7
  6
CONTINUOUS
370
   -3
390
F
  0
LAYER
  5
74
330
2
100
AcDbSymbolTableRecord
100
AcDbLayerTableRecord
  2
RUA COTEGIPE - 31_12_20 - MAVIC - DJI_0147
 70
    0
 62
    7
  6
CONTINUOUS
370
   -3
390
F
  0
LAYER
  5
75
330
2
100
AcDbSymbolTableRecord
100
AcDbLayerTableRecord
  2
RUA CURITIBA - 30_12_20 - etapa 03 - DJI_0117
 70
    0
 62
    7
  6
CONTINUOUS
370
   -3
390
F
  0
LAYER
  5
76
330
2
100
AcDbSymbolTableRecord
100
AcDbLayerTableRecord
  2
RUA DA CONQUISTA - 30_12_20 - etapa 01 - DJI_0002 - DJI_0003
 70
    0
 62
    7
  6
CONTINUOUS
370
   -3
390
F
  0
LAYER
  5
77
330
2
100
AcDbSymbolTableRecord
100
AcDbLayerTableRecord
  2
RUA DA FONTE - 30_12_20 - etapa 03 - DJI_0118
 70
    0
 62
    7
  6
CONTINUOUS
370
   -3
390
F
  0
LAYER
  5
78
330
2
100
AcDbSymbolTableRecord
100
AcDbLayerTableRecord
  2
RUA DA ÁRVORE - 30_12_20 - etapa 01 - DJI_0006
 70
    0
 62
    7
  6
CONTINUOUS
370
   -3
390
F
  0
LAYER
  5
79
330
2
100
AcDbSymbolTableRecord
100
AcDbLayerTableRecord
  2
RUA DAS AROEIRAS - 30_12_20 - etapa 04 - DJI_0031 - DJI_0032 - DJI_0033
 70
    0
 62
    7
  6
CONTINUOUS
370
   -3
390
F
  0
LAYER
  5
7A
330
2
100
AcDbSymbolTableRecord
100
AcDbLayerTableRecord
  2
RUA DAS FLORES - 30_12_20 - etapa 01 - DJI_0001
 70
    0
 62
    7
  6
CONTINUOUS
370
   -3
390
F
  0
LAYER
  5
7B
330
2
100
AcDbSymbolTableRecord
100
AcDbLayerTableRecord
  2
RUA DEOCLÉCIO ALVES MOREIRA - 31_12_20 - MAVIC - DJI_0158
 70
    0
 62
    7
  6
CONTINUOUS
370
   -3
390
F
  0
LAYER
  5
7C
330
2
100
AcDbSymbolTableRecord
100
AcDbLayerTableRecord
  2
RUA DO SOL NASCENTE - 30_12_20 - etapa 03 - DJI_0121
 70
    0
 62
    7
  6
CONTINUOUS
370
   -3
390
F
  0
LAYER
  5
7D
330
2
100
AcDbSymbolTableRecord
100
AcDbLayerTableRecord
  2
RUA DUAS PITANGUEIRAS - 30_12_20 - etapa 04 - DJI_0030
 70
    0
 62
    7
  6
CONTINUOUS
370
   -3
390
F
  0
LAYER
  5
7E
330
2
100
AcDbSymbolTableRecord
100
AcDbLayerTableRecord
  2
RUA FERNANDO PESSOA - 30_12_20 - etapa 03 - DJI_0138
 70
    0
 62
    7
  6
CONTINUOUS
370
   -3
390
F
  0
LAYER
  5
7F
330
2
100
AcDbSymbolTableRecord
100
AcDbLayerTableRecord
  2
RUA FLORESTAL - 31_12_20 - MAVIC - DJI_0159
 70
    0
 62
    7
  6
CONTINUOUS
370
   -3
390
F
  0
LAYER
  5
80
330
2
100
AcDbSymbolTableRecord
100
AcDbLayerTableRecord
  2
RUA FLÓRIDA - 30_12_20 - etapa 03 - DJI_0128
 70
    0
 62
    7
  6
CONTINUOUS
370
   -3
390
F
  0
LAYER
  5
81
330
2
100
AcDbSymbolTableRecord
100
AcDbLayerTableRecord
  2
RUA FRANCISCO AFONSO RIGUEIRA - 30_12_20 - etapa 04 - DJI_0029
 70
    0
 62
    7
  6
CONTINUOUS
370
   -3
390
F
  0
LAYER
  5
82
330
2
100
AcDbSymbolTableRecord
100
AcDbLayerTableRecord
  2
RUA GALATAS - 30_12_20 - etapa 04 - DJI_0011
 70
    0
 62
    7
  6
CONTINUOUS
370
   -3
390
F
  0
LAYER
  5
83
330
2
100
AcDbSymbolTableRecord
100
AcDbLayerTableRecord
  2
RUA GINÉS GONSALES - 30_12_20  - etapa 04 - DJI_0027
 70
    0
 62
    7
  6
CONTINUOUS
370
   -3
390
F
  0
LAYER
  5
84
330
2
100
AcDbSymbolTableRecord
100
AcDbLayerTableRecord
  2
RUA GIUSEPPE VENTURINE - 30_12_20 - etapa 01 - DJI_0020
 70
    0
 62
    7
  6
CONTINUOUS
370
   -3
390
F
  0
LAYER
  5
85
330
2
100
AcDbSymbolTableRecord
100
AcDbLayerTableRecord
  2
RUA GOIÂNIA - 31_12_20 - MAVIC - DJI_0151
 70
    0
 62
    7
  6
CONTINUOUS
370
   -3
390
F
  0
LAYER
  5
86
330
2
100
AcDbSymbolTableRecord
100
AcDbLayerTableRecord
  2
RUA GUARAPUAVA - 30_12_20 - etapa 03 - DJI_0123
 70
    0
 62
    7
  6
CONTINUOUS
370
   -3
390
F
  0
LAYER
  5
87
330
2
100
AcDbSymbolTableRecord
100
AcDbLayerTableRecord
  2
RUA GÁLATAS ( 2) - 30_12_20 - etapa 04 - DJI_0016
 70
    0
 62
    7
  6
CONTINUOUS
370
   -3
390
F
  0
LAYER
  5
88
330
2
100
AcDbSymbolTableRecord
100
AcDbLayerTableRecord
  2
RUA GÊNESIS - 30_12_20 - etapa 04 - DJI_0010
 70
    0
 62
    7
  6
CONTINUOUS
370
   -3
390
F
  0
LAYER
  5
89
330
2
100
AcDbSymbolTableRecord
100
AcDbLayerTableRecord
  2
RUA IPÓLITO MINUCCI - 30_12_20 - etapa 01 - DJI_0017
 70
    0
 62
    7
  6
CONTINUOUS
370
   -3
390
F
  0
LAYER
  5
8A
330
2
100
AcDbSymbolTableRecord
100
AcDbLayerTableRecord
  2
RUA IRATI - 30_12_20 - etapa 03 - DJI_0112
 70
    0
 62
    7
  6
CONTINUOUS
370
   -3
390
F
  0
LAYER
  5
8B
330
2
100
AcDbSymbolTableRecord
100
AcDbLayerTableRecord
  2
RUA ITAIPÚ - 31_12_20 - MAVIC - DJI_0150
 70
    0
 62
    7
  6
CONTINUOUS
370
   -3
390
F
  0
LAYER
  5
8C
330
2
100
AcDbSymbolTableRecord
100
AcDbLayerTableRecord
  2
RUA ITARANÉ - 30_12_20 - etapa 03 - DJI_0116
 70
    0
 62
    7
  6
CONTINUOUS
370
   -3
390
F
  0
LAYER
  5
8D
330
2
100
AcDbSymbolTableRecord
100
AcDbLayerTableRecord
  2
RUA JANDIR CARVALHO LANES - 30_12_20 - etapa 04 - DJI_0033
 70
    0
 62
    7
  6
CONTINUOUS
370
   -3
390
F
  0
LAYER
  5
8E
330
2
100
AcDbSymbolTableRecord
100
AcDbLayerTableRecord
  2
RUA JOANA SANTANA - 30_12_20 - etapa 03 - DJI_0135
 70
    0
 62
    7
  6
CONTINUOUS
370
   -3
390
F
  0
LAYER
  5
8F
330
2
100
AcDbSymbolTableRecord
100
AcDbLayerTableRecord
  2
RUA JOSÉ CARDOSO - 30_12_20 - etapa 04 - DJI_0003
 70
    0
 62
    7
  6
CONTINUOUS
370
   -3
390
F
  0
LAYER
  5
90
330
2
100
AcDbSymbolTableRecord
100
AcDbLayerTableRecord
  2
RUA JOSÉ DE OLIVEIRA - 30_12_20 - etapa 02 - DJI_0020
 70
    0
 62
    7
  6
CONTINUOUS
370
   -3
390
F
  0
LAYER
  5
91
330
2
100
AcDbSymbolTableRecord
100
AcDbLayerTableRecord
  2
RUA JOSÉ JOÃO SANTANA - 30_12_20 - etapa 01 - DJI_0023
 70
    0
 62
    7
  6
CONTINUOUS
370
   -3
390
F
  0
LAYER
  5
92
330
2
100
AcDbSymbolTableRecord
100
AcDbLayerTableRecord
  2
RUA JOSÉ MARTINS FERNANDES - 31_12_20 - MAVIC - DJI_0162
 70
    0
 62
    7
  6
CONTINUOUS
370
   -3
390
F
  0
LAYER
  5
93
330
2
100
AcDbSymbolTableRecord
100
AcDbLayerTableRecord
  2
RUA JOÃO SALDANHA - 30_12_20 - etapa 04 - DJI_0005
 70
    0
 62
    7
  6
CONTINUOUS
370
   -3
390
F
  0
LAYER
  5
94
330
2
100
AcDbSymbolTableRecord
100
AcDbLayerTableRecord
  2
RUA JURUÁ - 31_12_20 - MAVIC - DJI_0160
 70
    0
 62
    7
  6
CONTINUOUS
370
   -3
390
F
  0
LAYER
  5
95
330
2
100
AcDbSymbolTableRecord
100
AcDbLayerTableRecord
  2
RUA JÚPITER - 30_12_20 - etapa 01 - DJI_0037
 70
    0
 62
    7
  6
CONTINUOUS
370
   -3
390
F
  0
LAYER
  5
96
330
2
100
AcDbSymbolTableRecord
100
AcDbLayerTableRecord
  2
RUA LOS ANGELES - 30_12_20 - etapa 03 - DJI_0129
 70
    0
 62
    7
  6
CONTINUOUS
370
   -3
390
F
  0
LAYER
  5
97
330
2
100
AcDbSymbolTableRecord
100
AcDbLayerTableRecord
  2
RUA LUIGI BATISTINI - 30_12_20 - etapa 01 - DJI_0027
 70
    0
 62
    7
  6
CONTINUOUS
370
   -3
390
F
  0
LAYER
  5
98
330
2
100
AcDbSymbolTableRecord
100
AcDbLayerTableRecord
  2
RUA LUIZA DE O. SANTANA - 30_12_20 - etapa 01 - DJI_0021
 70
    0
 62
    7
  6
CONTINUOUS
370
   -3
390
F
  0
LAYER
  5
99
330
2
100
AcDbSymbolTableRecord
100
AcDbLayerTableRecord
  2
RUA LUÍS VAZ DE CAMÕES - 30_12_20 - etapa 03 - DJI_0134
 70
    0
 62
    7
  6
CONTINUOUS
370
   -3
390
F
  0
LAYER
  5
9A
330
2
100
AcDbSymbolTableRecord
100
AcDbLayerTableRecord
  2
RUA MANAUS - 31_12_20 - MAVIC - DJI_0154 - DJI_155
 70
    0
 62
    7
  6
CONTINUOUS
370
   -3
390
F
  0
LAYER
  5
9B
330
2
100
AcDbSymbolTableRecord
100
AcDbLayerTableRecord
  2
RUA MARICÁ - 30_12_20 - etapa 03 - DJI_0142
 70
    0
 62
    7
  6
CONTINUOUS
370
   -3
390
F
  0
LAYER
  5
9C
330
2
100
AcDbSymbolTableRecord
100
AcDbLayerTableRecord
  2
RUA MARINGÁ - 30_12_20 - etapa 03 - DJI_0119
 70
    0
 62
    7
  6
CONTINUOUS
370
   -3
390
F
  0
LAYER
  5
9D
330
2
100
AcDbSymbolTableRecord
100
AcDbLayerTableRecord
  2
RUA MARTE - 30_12_20 - etapa 01 - DJI_0034
 70
    0
 62
    7
  6
CONTINUOUS
370
   -3
390
F
  0
LAYER
  5
9E
330
2
100
AcDbSymbolTableRecord
100
AcDbLayerTableRecord
  2
RUA MATO GROSSO - 31_12_20 - MAVIC - DJI_0148
 70
    0
 62
    7
  6
CONTINUOUS
370
   -3
390
F
  0
LAYER
  5
9F
330
2
100
AcDbSymbolTableRecord
100
AcDbLayerTableRecord
  2
RUA MERCÚRIO - 30_12_20 - etapa 01 - DJI_0035
 70
    0
 62
    7
  6
CONTINUOUS
370
   -3
390
F
  0
LAYER
  5
A0
330
2
100
AcDbSymbolTableRecord
100
AcDbLayerTableRecord
  2
RUA MIAMI - 30_12_20 - etapa 03 - DJI_0130
 70
    0
 62
    7
  6
CONTINUOUS
370
   -3
390
F
  0
LAYER
  5
A1
330
2
100
AcDbSymbolTableRecord
100
AcDbLayerTableRecord
  2
RUA MIRACEMA -30_12_20 - DJI_0141 - etapa 03
 70
    0
 62
    7
  6
CONTINUOUS
370
   -3
390
F
  0
LAYER
  5
A2
330
2
100
AcDbSymbolTableRecord
100
AcDbLayerTableRecord
  2
RUA NETUNO - 30_12_20 - etapa 01 - DJI_0036
 70
    0
 62
    7
  6
CONTINUOUS
370
   -3
390
F
  0
LAYER
  5
A3
330
2
100
AcDbSymbolTableRecord
100
AcDbLayerTableRecord
  2
RUA NITERÓI - 30_12_20 - etapa 03 - DJI_0140
 70
    0
 62
    7
  6
CONTINUOUS
370
   -3
390
F
  0
LAYER
  5
A4
330
2
100
AcDbSymbolTableRecord
100
AcDbLayerTableRecord
  2
RUA OCTAVIO EDGAR DE OLIVEIRA - 30_12_20 - etapa 04 - DJI_0007
 70
    0
 62
    7
  6
CONTINUOUS
370
   -3
390
F
  0
LAYER
  5
A5
330
2
100
AcDbSymbolTableRecord
100
AcDbLayerTableRecord
  2
RUA PABLO NERUDA  -30_12_20 - etapa 02 - DJI_0018
 70
    0
 62
    7
  6
CONTINUOUS
370
   -3
390
F
  0
LAYER
  5
A6
330
2
100
AcDbSymbolTableRecord
100
AcDbLayerTableRecord
  2
RUA PARANAGUÁ - 30_12_20 - etapa 03 - DJI_0125
 70
    0
 62
    7
  6
CONTINUOUS
370
   -3
390
F
  0
LAYER
  5
A7
330
2
100
AcDbSymbolTableRecord
100
AcDbLayerTableRecord
  2
RUA PAULO MORANDO - 30_12_20 - etapa 04 - DJI_0008
 70
    0
 62
    7
  6
CONTINUOUS
370
   -3
390
F
  0
LAYER
  5
A8
330
2
100
AcDbSymbolTableRecord
100
AcDbLayerTableRecord
  2
RUA PEDRO ZAMPIERRI - 30_12_20 - etapa 01 - DJI_0015
 70
    0
 62
    7
  6
CONTINUOUS
370
   -3
390
F
  0
LAYER
  5
A9
330
2
100
AcDbSymbolTableRecord
100
AcDbLayerTableRecord
  2
RUA PONTA GROSSA - 30_12_20 - etapa 03 - DJI_0122
 70
    0
 62
    7
  6
CONTINUOUS
370
   -3
390
F
  0
LAYER
  5
AA
330
2
100
AcDbSymbolTableRecord
100
AcDbLayerTableRecord
  2
RUA PROFESSOR CLAUDEMIR GOMES DO VALE - 30_12_20 - etapa 04 - DJI_0006
 70
    0
 62
    7
  6
CONTINUOUS
370
   -3
390
F
  0
LAYER
  5
AB
330
2
100
AcDbSymbolTableRecord
100
AcDbLayerTableRecord
  2
RUA ROMANOS - 30_12_20 - etapa 04 - DJI_0014
 70
    0
 62
    7
  6
CONTINUOUS
370
   -3
390
F
  0
LAYER
  5
AC
330
2
100
AcDbSymbolTableRecord
100
AcDbLayerTableRecord
  2
RUA RUBENS MARTINS - 30_12_20 - etapa 04 - DJI_0009
 70
    0
 62
    7
  6
CONTINUOUS
370
   -3
390
F
  0
LAYER
  5
AD
330
2
100
AcDbSymbolTableRecord
100
AcDbLayerTableRecord
  2
RUA SALMOS - 30_12_20 - etapa 04 - DJI_0017
 70
    0
 62
    7
  6
CONTINUOUS
370
   -3
390
F
  0
LAYER
  5
AE
330
2
100
AcDbSymbolTableRecord
100
AcDbLayerTableRecord
  2
RUA SANTE BATTISTINI - 30_12_20 - etapa 01 - DJI_0005
 70
    0
 62
    7
  6
CONTINUOUS
370
   -3
390
F
  0
LAYER
  5
AF
330
2
100
AcDbSymbolTableRecord
100
AcDbLayerTableRecord
  2
RUA SERVIDÃO PARTICULAR - 30_12_20 - etapa 01 - DJI_0029
 70
    0
 62
    7
  6
CONTINUOUS
370
   -3
390
F
  0
LAYER
  5
B0
330
2
100
AcDbSymbolTableRecord
100
AcDbLayerTableRecord
  2
RUA SIMON BOLIVAR - 31_12_20 - MAVIC - DJI_0157
 70
    0
 62
    7
  6
CONTINUOUS
370
   -3
390
F
  0
LAYER
  5
B1
330
2
100
AcDbSymbolTableRecord
100
AcDbLayerTableRecord
  2
RUA TAVÁRES - 30_12_20 - etapa 03 - DJI_0114
 70
    0
 62
    7
  6
CONTINUOUS
370
   -3
390
F
  0
LAYER
  5
B2
330
2
100
AcDbSymbolTableRecord
100
AcDbLayerTableRecord
  2
RUA VÊNUS - 30_12_20 - etapa 01 - DJI_0040
 70
    0
 62
    7
  6
CONTINUOUS
370
   -3
390
F
  0
LAYER
  5
B3
330
2
100
AcDbSymbolTableRecord
100
AcDbLayerTableRecord
  2
RUA ZURIQUE - 30_12_20 - etapa 03 - DJI_0131
 70
    0
 62
    7
  6
CONTINUOUS
370
   -3
390
F
  0
LAYER
  5
B4
330
2
100
AcDbSymbolTableRecord
100
AcDbLayerTableRecord
  2
RUA ÁGUAS DE SANTA BÁRBARA - 30_12_20 - etapa 01 - DJI_0010
 70
    0
 62
    7
  6
CONTINUOUS
370
   -3
390
F
  0
LAYER
  5
B5
330
2
100
AcDbSymbolTableRecord
100
AcDbLayerTableRecord
  2
RUA ÁGUAS DE SANTA CLARA - 30_12_20 - etapa 01 - DJI_0011
 70
    0
 62
    7
  6
CONTINUOUS
370
   -3
390
F
  0
LAYER
  5
B6
330
2
100
AcDbSymbolTableRecord
100
AcDbLayerTableRecord
  2
RUA ÚNA - 30_12_20 - etapa 03 -  DJI_0113
 70
    0
 62
    7
  6
CONTINUOUS
370
   -3
390
F
  0
LAYER
  5
B7
330
2
100
AcDbSymbolTableRecord
100
AcDbLayerTableRecord
  2
TV SOSSEGO - 30_12_20 - etapa 01 - DJI_0030
 70
    0
 62
    7
  6
CONTINUOUS
370
   -3
390
F
  0
ENDTAB
  0
TABLE
  2
STYLE
  5
3
330
0
100
AcDbSymbolTable
 70
    3
  0
STYLE
  5
B8
330
2
100
AcDbSymbolTableRecord
100
AcDbTextStyleTableRecord
  2
Standard
 70
    0
 40
0
 41
1
 50
0
 71
    0
 42
1
  3
txt
  4

  0
ENDTAB
  0
TABLE
  2
VIEW
  5
6
330
0
100
AcDbSymbolTable
 70
    0
  0
ENDTAB
  0
TABLE
  2
UCS
  5
7
330
0
100
AcDbSymbolTable
 70
    0
  0
ENDTAB
  0
TABLE
  2
APPID
  5
9
330
0
100
AcDbSymbolTable
 70
    1
  0
APPID
  5
12
330
9
100
AcDbSymbolTableRecord
100
AcDbRegAppTableRecord
  2
ACAD
 70
    0
  0
APPID
  5
B9
330
9
100
AcDbSymbolTableRecord
100
AcDbRegAppTableRecord
  2
LibreCad
 70
    0
  0
ENDTAB
  0
TABLE
  2
DIMSTYLE
  5
A
330
0
100
AcDbSymbolTable
 70
    1
100
AcDbDimStyleTable
 71
    1
  0
DIMSTYLE
105
BA
330
A
100
AcDbSymbolTableRecord
100
AcDbDimStyleTableRecord
  2
Standard
 70
    0
 40
1
 41
0.18
 42
0.0625
 43
0.38
 44
0.18
 45
0
 46
0
 47
0
 48
0
 49
1
140
0.18
141
0.09
142
0
143
25.4
144
1
145
0
146
1
147
0.09
148
0
 71
    0
 72
    0
 73
    1
 74
    1
 75
    0
 76
    0
 77
    0
 78
    0
 79
    0
170
    0
171
    2
172
    0
173
    0
174
    0
175
    0
176
    0
177
    0
178
    0
179
    0
271
    4
272
    4
273
    2
274
    2
275
    0
276
    0
277
    2
278
   46
279
    0
280
    0
281
    0
282
    0
283
    1
284
    0
285
    0
286
    0
288
    0
289
    3
340
Standard
341

371
   -2
372
   -2
  0
ENDTAB
  0
TABLE
  2
BLOCK_RECORD
  5
1
330
0
100
AcDbSymbolTable
 70
    2
  0
BLOCK_RECORD
  5
1F
330
1
100
AcDbSymbolTableRecord
100
AcDbBlockTableRecord
  2
*Model_Space
 70
    0
280
    1
281
    0
  0
BLOCK_RECORD
  5
1E
330
1
100
AcDbSymbolTableRecord
100
AcDbBlockTableRecord
  2
*Paper_Space
 70
    0
280
    1
281
    0
  0
ENDTAB
  0
ENDSEC
  0
SECTION
  2
BLOCKS
  0
BLOCK
  5
20
330
1F
100
AcDbEntity
  8
0
100
AcDbBlockBegin
  2
*Model_Space
 70
    0
 10
0
 20
0
 30
0
  3
*Model_Space
  1

  0
ENDBLK
  5
21
330
1F
100
AcDbEntity
  8
0
100
AcDbBlockEnd
  0
BLOCK
  5
1C
330
1B
100
AcDbEntity
  8
0
100
AcDbBlockBegin
  2
*Paper_Space
 70
    0
 10
0
 20
0
 30
0
  3
*Paper_Space
  1

  0
ENDBLK
  5
1D
330
1F
100
AcDbEntity
  8
0
100
AcDbBlockEnd
  0
ENDSEC
  0
SECTION
  2
ENTITIES
  0
LWPOLYLINE
  5
BB
100
AcDbEntity
  8
RUA CAPIVARI - 30_12_20 - etapa 03 - DJI_0141
  6
ByLayer
 62
  256
370
   -1
100
AcDbPolyline
 90
    6
 70
    0
 43
0
 10
336580.4452773776
 20
7369985.052822093
 10
336519.6332136703
 20
7370191.051338967
 10
336527.8114718941
 20
7370231.930684158
 10
336572.7917458227
 20
7370246.238457366
 10
336626.4870330463
 20
7370131.444289048
 10
336653.7953286814
 20
7370074.405119346
  0
LWPOLYLINE
  5
BC
100
AcDbEntity
  8
ESTRADA GALVÃO - 30_12_20 - etapa 01  - DJI_0028
  6
ByLayer
 62
  256
370
   -1
100
AcDbPolyline
 90
   19
 70
    0
 43
0
 10
339486.9732049199
 20
7372027.56276492
 10
339482.2071546502
 20
7372017.930760351
 10
339446.7012043239
 20
7372001.803989891
 10
339387.8176632674
 20
7372008.490698108
 10
339357.1534369049
 20
7372003.65264263
 10
339264.5152657683
 20
7371939.145560794
 10
339116.5606060634
 20
7371826.387997417
 10
338998.745424578
 20
7371711.565357673
 10
338905.3341570349
 20
7371690.503166961
 10
338845.6196631165
 20
7371700.179247494
 10
338774.2850164393
 20
7371729.529979468
 10
338683.8293828993
 20
7371741.13957222
 10
338589.5772529565
 20
7371740.171979381
 10
338556.2818918418
 20
7371725.601676067
 10
338514.3203349729
 20
7371673.673453283
 10
338468.1183344055
 20
7371599.060395022
 10
338436.4501194052
 20
7371534.744330698
 10
338388.0329559934
 20
7371423.792123164
 10
338369.9183208128
 20
7371396.575109725
  0
LWPOLYLINE
  5
BD
100
AcDbEntity
  8
ESTRADA MARCO POLO - 30_12_20 - etapa 01 - DJI_0031 - DJI_0032 - DJI_0033
  6
ByLayer
 62
  256
370
   -1
100
AcDbPolyline
 90
   14
 70
    0
 43
0
 10
340005.9144145452
 20
7372528.368341964
 10
339953.6238414714
 20
7372499.340161223
 10
339888.7448013372
 20
7372492.566889637
 10
339790.6193379593
 20
7372466.118997038
 10
339746.0755079823
 20
7372445.799243137
 10
339724.449161271
 20
7372416.448511164
 10
339713.0812443639
 20
7372377.679350186
 10
339700.8155995553
 20
7372346.393402107
 10
339631.6910847262
 20
7372272.294734105
 10
339581.3372164834
 20
7372216.173558302
 10
339556.4639715836
 20
7372147.371533852
 10
339528.0592723042
 20
7372097.378527175
 10
339499.6544967979
 20
7372053.191168812
 10
339486.9732049199
 20
7372027.56276492
  0
LWPOLYLINE
  5
BE
100
AcDbEntity
  8
RUA FRANCISCO AFONSO RIGUEIRA - 30_12_20 - etapa 04 - DJI_0029
  6
ByLayer
 62
  256
370
   -1
100
AcDbPolyline
 90
   10
 70
    0
 43
0
 10
338731.4406268084
 20
7370094.118862486
 10
338726.2184668315
 20
7370095.623410272
 10
338722.956136719
 20
7370098.883524408
 10
338686.1338293888
 20
7370136.571995255
 10
338667.1776616289
 20
7370154.396013471
 10
338634.354729822
 20
7370187.700121958
 10
338608.8152161244
 20
7370210.688769482
 10
338597.4574834417
 20
7370223.55720794
 10
338591.6986531633
 20
7370233.708111988
 10
338632.5604730747
 20
7370239.113583053
  0
LWPOLYLINE
  5
BF
100
AcDbEntity
  8
MARIA ENCARNAÇÃO NUTE - 30_12_20 - etapa 04 - DJI_0032
  6
ByLayer
 62
  256
370
   -1
100
AcDbPolyline
 90
    7
 70
    0
 43
0
 10
338997.5861851674
 20
7370212.243381078
 10
338986.4806097617
 20
7370202.929083949
 10
338964.4682563135
 20
7370191.130690609
 10
338866.3032494102
 20
7370153.858398707
 10
338798.4120058919
 20
7370127.518567048
 10
338787.3217088433
 20
7370122.276555668
 10
338731.4406268084
 20
7370094.118862486
  0
LWPOLYLINE
  5
C0
100
AcDbEntity
  8
RUA CEARÁ MIRIM - 31_12_20 - MAVIC - DJI_0153
  6
ByLayer
 62
  256
370
   -1
100
AcDbPolyline
 90
    7
 70
    0
 43
0
 10
338294.5663113904
 20
7369890.016829027
 10
338192.4341254598
 20
7369940.681102187
 10
338165.2264734656
 20
7369950.241066145
 10
338138.5939538681
 20
7369956.833519506
 10
338096.6904315297
 20
7369968.187205945
 10
338060.7266353886
 20
7369983.969226193
 10
337984.6782369952
 20
7369993.089219653
  0
LWPOLYLINE
  5
C1
100
AcDbEntity
  8
MCT - RUA PARAÍBA
  6
ByLayer
 62
  256
370
   -1
100
AcDbPolyline
 90
   22
 70
    0
 43
0
 10
337966.0515673524
 20
7369973.726566375
 10
338016.261413429
 20
7370025.92032185
 10
338038.6180646665
 20
7370050.825170039
 10
338072.8508183744
 20
7370085.678373812
 10
338091.5424661754
 20
7370096.421644348
 10
338104.858725974
 20
7370096.055389318
 10
338117.5641828845
 20
7370091.172089517
 10
338125.3829065109
 20
7370084.823797031
 10
338141.5090705166
 20
7370073.958459772
 10
338159.1356284547
 20
7370061.827523763
 10
338179.5375987852
 20
7370039.242245037
 10
338204.5820060593
 20
7370019.220696653
 10
338213.8667558744
 20
7370014.947812753
 10
338258.6253443641
 20
7369976.902961938
 10
338282.3427473131
 20
7369959.283439767
 10
338293.3378196582
 20
7369946.098505616
 10
338299.6905170955
 20
7369931.814861242
 10
338303.1180481113
 20
7369917.973729307
 10
338304.3397779589
 20
7369907.596713797
 10
338302.6293933933
 20
7369898.196369222
 10
338299.9416993923
 20
7369892.214304337
 10
338294.5663113904
 20
7369890.016829027
  0
LWPOLYLINE
  5
C2
100
AcDbEntity
  8
RUA COTEGIPE - 31_12_20 - MAVIC - DJI_0147
  6
ByLayer
 62
  256
370
   -1
100
AcDbPolyline
 90
   40
 70
    0
 43
0
 10
337992.0322635842
 20
7369666.498445707
 10
337999.9095017379
 20
7369664.699215189
 10
338018.1348896861
 20
7369655.148659969
 10
338034.8044238421
 20
7369642.044399577
 10
338049.4736188622
 20
7369626.496994308
 10
338065.4763939849
 20
7369616.058040226
 10
338081.0346217282
 20
7369602.065380973
 10
338093.4812039229
 20
7369590.293760019
 10
338099.9267687098
 20
7369583.408483678
 10
338103.7052353275
 20
7369566.750545543
 10
338102.8540346941
 20
7369549.811919939
 10
338102.7145261943
 20
7369542.004713263
 10
338102.4509988058
 20
7369535.15762049
 10
338098.8932549867
 20
7369528.573890097
 10
338094.0179362599
 20
7369524.096921614
 10
338086.1119284913
 20
7369517.381523749
 10
338075.0076411793
 20
7369508.527391391
 10
338069.1139776697
 20
7369504.477370488
 10
338061.6033230197
 20
7369496.840245432
 10
338050.9302156343
 20
7369488.018030796
 10
338043.9371863449
 20
7369477.833743558
 10
338038.9300418881
 20
7369461.769406292
 10
338037.3488155201
 20
7369455.317315948
 10
338039.4570966655
 20
7369441.623130402
 10
338045.522507065
 20
7369416.03934436
 10
338058.6991866791
 20
7369384.569062073
 10
338062.9310097369
 20
7369380.434237013
 10
338089.5478963536
 20
7369362.263110413
 10
338095.7483583362
 20
7369353.535586638
 10
338098.7789853422
 20
7369343.923339718
 10
338098.383694259
 20
7369333.126003225
 10
338085.4705420337
 20
7369316.008271294
 10
338083.3367022056
 20
7369312.122572067
 10
338070.4235499802
 20
7369307.250601158
 10
338040.3603975854
 20
7369274.546841495
 10
338023.6260361879
 20
7369259.799261282
 10
338011.7669935173
 20
7369256.770744754
 10
337995.6914505918
 20
7369258.350836758
 10
337981.7241888118
 20
7369258.350836758
 10
337976.9511048156
 20
7369254.695528183
  0
LWPOLYLINE
  5
C3
100
AcDbEntity
  8
AVENIDA VITOR BRECHERET - 30_12_20 - etapa 02 - DJI_0023
  6
ByLayer
 62
  256
370
   -1
100
AcDbPolyline
 90
    2
 70
    0
 43
0
 10
337290.6542931938
 20
7370180.316462343
 10
337474.6502217627
 20
7370139.344583126
  0
LWPOLYLINE
  5
C4
100
AcDbEntity
  8
ESTRADA GALVÃO - 30_12_20 - etapa 01  - DJI_0028
  6
ByLayer
 62
  256
370
   -1
100
AcDbPolyline
 90
   11
 70
    0
 43
0
 10
337143.5688772884
 20
7370137.959715586
 10
337171.087700041
 20
7370179.994996134
 10
337184.847142435
 20
7370191.387716495
 10
337196.4443947147
 20
7370195.512666497
 10
337211.1866677161
 20
7370198.851918266
 10
337227.5014200603
 20
7370197.280521806
 10
337236.5433003543
 20
7370194.137701449
 10
337246.7646021908
 20
7370191.387716495
 10
337256.199664356
 20
7370187.852033308
 10
337265.634726521
 20
7370185.887774015
 10
337290.6542931938
 20
7370180.316462343
  0
LWPOLYLINE
  5
C5
100
AcDbEntity
  8
RUA FERNANDO PESSOA - 30_12_20 - etapa 03 - DJI_0138
  6
ByLayer
 62
  256
370
   -1
100
AcDbPolyline
 90
    3
 70
    0
 43
0
 10
337160.3738972771
 20
7370596.471867712
 10
337242.2622417174
 20
7370336.570255231
 10
337290.6542931949
 20
7370180.316462345
  0
LWPOLYLINE
  5
C6
100
AcDbEntity
  8
RUA NITERÓI - 30_12_20 - etapa 03 - DJI_0140
  6
ByLayer
 62
  256
370
   -1
100
AcDbPolyline
 90
   12
 70
    0
 43
0
 10
337363.8522145387
 20
7370331.24030442
 10
337306.9246543677
 20
7370510.697419763
 10
337271.6765633782
 20
7370617.137928394
 10
337254.016816374
 20
7370647.092087129
 10
337238.913123748
 20
7370659.166625569
 10
337227.9919978832
 20
7370662.417440686
 10
337219.8592498588
 20
7370655.451380863
 10
337209.4028329556
 20
7370641.751407434
 10
337186.6311012668
 20
7370626.658227528
 10
337165.7182674602
 20
7370614.119286927
 10
337161.0709917372
 20
7370607.849802913
 10
337160.3738972771
 20
7370596.471867712
  0
LWPOLYLINE
  5
C7
100
AcDbEntity
  8
RUA FLÓRIDA - 30_12_20 - etapa 03 - DJI_0128
  6
ByLayer
 62
  256
370
   -1
100
AcDbPolyline
 90
   11
 70
    0
 43
0
 10
337080.0433297338
 20
7369532.004431321
 10
337092.0060959902
 20
7369537.469317338
 10
337103.9688002113
 20
7369539.518639304
 10
337124.4763551973
 20
7369539.518639304
 10
337142.5913817459
 20
7369536.615426323
 10
337156.4339518947
 20
7369534.05378072
 10
337180.0176060089
 20
7369525.17335809
 10
337199.6706821217
 20
7369517.659150107
 10
337214.1968849972
 20
7369511.681967887
 10
337228.8939340188
 20
7369507.583296523
 10
337247.5903887522
 20
7369499.651672147
  0
LWPOLYLINE
  5
C8
100
AcDbEntity
  8
RUA LOS ANGELES - 30_12_20 - etapa 03 - DJI_0129
  6
ByLayer
 62
  256
370
   -1
100
AcDbPolyline
 90
    3
 70
    0
 43
0
 10
337050.1365071457
 20
7369455.667057683
 10
337075.4291190056
 20
7369522.270145111
 10
337080.0433297338
 20
7369532.004431321
  0
LWPOLYLINE
  5
C9
100
AcDbEntity
  8
RUA ÚNA - 30_12_20 - etapa 03 -  DJI_0113
  6
ByLayer
 62
  256
370
   -1
100
AcDbPolyline
 90
    4
 70
    0
 43
0
 10
337089.3641842898
 20
7369632.078598055
 10
337082.8026128606
 20
7369642.187258788
 10
337087.4506330109
 20
7369729.707013994
 10
337094.1093300824
 20
7369782.631739614
  0
LWPOLYLINE
  5
CA
100
AcDbEntity
  8
MCT - RUA NOVA YORQUE
  6
ByLayer
 62
  256
370
   -1
100
AcDbPolyline
 90
    3
 70
    0
 43
0
 10
337277.1251946723
 20
7369602.747267848
 10
337159.9008135044
 20
7369626.068032645
 10
337089.3641842898
 20
7369632.078598055
  0
LWPOLYLINE
  5
CB
100
AcDbEntity
  8
RUA GUARAPUAVA - 30_12_20 - etapa 03 - DJI_0123
  6
ByLayer
 62
  256
370
   -1
100
AcDbPolyline
 90
    7
 70
    0
 43
0
 10
337189.6366304878
 20
7369271.172513182
 10
337091.5276771528
 20
7369340.747465343
 10
337071.3687004147
 20
7369354.795918687
 10
337045.8420901294
 20
7369360.349954558
 10
337025.9483777783
 20
7369360.88008073
 10
337004.9936078804
 20
7369360.084891467
 10
336994.1183883874
 20
7369326.686668167
  0
LWPOLYLINE
  5
CC
100
AcDbEntity
  8
RUA BELA VISTA - 30_12_20 - etapa 03 - DJI_0120 - DJI_0123
  6
ByLayer
 62
  256
370
   -1
100
AcDbPolyline
 90
   16
 70
    0
 43
0
 10
337189.6366304878
 20
7369271.172513182
 10
337210.4214581258
 20
7369256.432743371
 10
337218.3789554735
 20
7369261.203906372
 10
337231.9066947608
 20
7369291.156282109
 10
337249.1479493534
 20
7369340.193337282
 10
337263.4303521729
 20
7369389.028749202
 10
337286.31089437
 20
7369428.802695712
 10
337303.5698911551
 20
7369474.272961258
 10
337327.4548523613
 20
7369541.149231269
 10
337325.796825874
 20
7369551.587554443
 10
337320.1595234098
 20
7369587.707454194
 10
337319.9801783814
 20
7369616.630684024
 10
337324.125213582
 20
7369662.857516373
 10
337303.0505908324
 20
7369740.548157355
 10
337282.1391218096
 20
7369807.577710251
 10
337213.7271161562
 20
7369891.165330415
  0
LWPOLYLINE
  5
CD
100
AcDbEntity
  8
ESTRADA GALVÃO BUENO 30_12_20  - etapa 02 - DJI_0001 - DJI_0002
  6
ByLayer
 62
  256
370
   -1
100
AcDbPolyline
 90
   58
 70
    0
 43
0
 10
335585.0948318759
 20
7370085.560096579
 10
335616.5871580243
 20
7370049.790115439
 10
335650.9087929577
 20
7370012.666068503
 10
335662.163433523
 20
7369998.145698732
 10
335706.3665549136
 20
7369938.536074421
 10
335732.2654433101
 20
7369897.870033845
 10
335749.3975129306
 20
7369871.999890527
 10
335778.7995515354
 20
7369829.997554281
 10
335826.6951581495
 20
7369773.835752545
 10
335856.0595411221
 20
7369737.50883312
 10
335878.454592419
 20
7369715.044112426
 10
335897.9638078883
 20
7369703.818116008
 10
335935.7628042977
 20
7369694.134110313
 10
335970.5987305104
 20
7369691.247876951
 10
335991.3543039758
 20
7369703.228547453
 10
336018.1063042114
 20
7369729.114565215
 10
336044.9439756628
 20
7369746.317195238
 10
336084.3358611399
 20
7369743.954010922
 10
336121.5876411897
 20
7369736.988115684
 10
336221.3307726789
 20
7369718.02775229
 10
336251.7232102384
 20
7369722.17116317
 10
336312.854438345
 20
7369773.531502347
 10
336392.8131240736
 20
7369844.571477408
 10
336424.2522805052
 20
7369871.357099184
 10
336446.2123586009
 20
7369886.637292593
 10
336509.3784499811
 20
7369914.733145998
 10
336532.8254191724
 20
7369927.771983965
 10
336580.4452773776
 20
7369985.052822093
 10
336658.1858852208
 20
7370079.753531597
 10
336695.7492505283
 20
7370126.871056201
 10
336716.2907144277
 20
7370148.399971724
 10
336738.2403574019
 20
7370156.591740591
 10
336777.9151336795
 20
7370150.152325031
 10
336850.1150172958
 20
7370132.101123182
 10
336899.7151602927
 20
7370116.580281346
 10
336933.0853642638
 20
7370111.336711818
 10
336960.3905128327
 20
7370123.102509118
 10
336981.776522349
 20
7370132.918689122
 10
337013.1753640583
 20
7370132.531339867
 10
337036.6447861743
 20
7370131.931208527
 10
337103.3141071464
 20
7370127.381223936
 10
337142.8940245229
 20
7370114.363737021
 10
337204.2679236683
 20
7370098.842895183
 10
337230.336138523
 20
7370100.794101773
 10
337270.3845938588
 20
7370145.476190558
 10
337298.6197693903
 20
7370194.007802853
 10
337316.1255644431
 20
7370235.767554352
 10
337383.9917422917
 20
7370371.52756732
 10
337413.356297291
 20
7370424.573745373
 10
337448.3678873968
 20
7370452.225475837
 10
337482.2500980349
 20
7370482.134489183
 10
337523.4734129806
 20
7370528.973142354
 10
337564.8486601597
 20
7370592.946817454
 10
337581.4891875111
 20
7370610.440768882
 10
337595.9073394677
 20
7370631.320638559
 10
337604.8117704074
 20
7370640.755863117
 10
337626.4706271138
 20
7370684.984907483
 10
337641.4705598099
 20
7370724.93856287
  0
LWPOLYLINE
  5
CE
100
AcDbEntity
  8
RUA GÁLATAS ( 2) - 30_12_20 - etapa 04 - DJI_0016
  6
ByLayer
 62
  256
370
   -1
100
AcDbPolyline
 90
    3
 70
    0
 43
0
 10
335350.9111852132
 20
7369867.073702233
 10
335345.872811883
 20
7369865.814975435
 10
335248.1086172347
 20
7369802.39821349
  0
LWPOLYLINE
  5
CF
100
AcDbEntity
  8
RUA SALMOS - 30_12_20 - etapa 04 - DJI_0017
  6
ByLayer
 62
  256
370
   -1
100
AcDbPolyline
 90
    3
 70
    0
 43
0
 10
335463.3613615921
 20
7369708.558529167
 10
335357.450150723
 20
7369864.957984752
 10
335350.9111852132
 20
7369867.073702233
  0
LWPOLYLINE
  5
D0
100
AcDbEntity
  8
MCT - AVENIDA VENÂNCIA TOMÁS DE AQUINO
  6
ByLayer
 62
  256
370
   -1
100
AcDbPolyline
 90
   13
 70
    0
 43
0
 10
338448.5595377557
 20
7370280.386144022
 10
338432.5745130347
 20
7370282.024479747
 10
338418.1468227518
 20
7370286.280850347
 10
338380.6888982782
 20
7370312.260187432
 10
338343.2948705115
 20
7370346.635877158
 10
338259.0596558633
 20
7370434.929288507
 10
338236.0231560731
 20
7370457.868780175
 10
338189.7023861561
 20
7370504.295747083
 10
338182.0355878065
 20
7370513.354908314
 10
338106.308312719
 20
7370614.847380637
 10
338099.4153469133
 20
7370626.348178052
 10
338096.6347855625
 20
7370635.119316678
 10
338094.1607357325
 20
7370650.772469687
  0
LWPOLYLINE
  5
D1
100
AcDbEntity
  8
RUA JANDIR CARVALHO LANES - 30_12_20 - etapa 04 - DJI_0033
  6
ByLayer
 62
  256
370
   -1
100
AcDbPolyline
 90
    9
 70
    0
 43
0
 10
339057.5874395397
 20
7370324.752578093
 10
339072.5880599541
 20
7370327.11927354
 10
339104.0642601033
 20
7370312.789106654
 10
339111.7303760609
 20
7370305.759215536
 10
339128.1508991677
 20
7370273.732610733
 10
339133.1737432756
 20
7370263.936050528
 10
339142.6714567998
 20
7370258.411042617
 10
339153.4981023886
 20
7370252.486801696
 10
339282.333578373
 20
7370196.154579433
  0
LWPOLYLINE
  5
D2
100
AcDbEntity
  8
ESTRADA MARCO POLO - 30_12_20 - etapa 01 - DJI_0031 - DJI_0032 - DJI_0033
  6
ByLayer
 62
  256
370
   -1
100
AcDbPolyline
 90
   26
 70
    0
 43
0
 10
339066.9753244339
 20
7369834.17194494
 10
339063.8214938201
 20
7369849.011736755
 10
339060.9301368208
 20
7369866.296686381
 10
339058.4216637769
 20
7369885.560927336
 10
339053.5357989918
 20
7369907.089656862
 10
339046.9102688199
 20
7369923.986818342
 10
339039.4475677179
 20
7369935.541654282
 10
339024.596856422
 20
7369950.049435106
 10
339013.9683526601
 20
7369963.636119642
 10
338998.6982804534
 20
7369981.950516915
 10
338989.9217886176
 20
7369998.084281341
 10
338985.5142185984
 20
7370009.078350988
 10
338981.2858075009
 20
7370023.842252483
 10
338980.9320802952
 20
7370036.319967706
 10
338981.2048509938
 20
7370043.079254728
 10
338985.161111749
 20
7370059.240422449
 10
338991.2159760901
 20
7370074.729811737
 10
338996.4616931563
 20
7370088.149262468
 10
339003.2531230762
 20
7370102.207826434
 10
339007.7597640086
 20
7370114.46905838
 10
339007.7597640086
 20
7370121.965079794
 10
339005.4383904479
 20
7370139.046658032
 10
339002.4557685725
 20
7370160.993961032
 10
338999.8039319161
 20
7370180.507216499
 10
338998.9949348727
 20
7370192.777795873
 10
338996.4254993032
 20
7370211.26990851
  0
LWPOLYLINE
  5
D3
100
AcDbEntity
  8
RUA JOSÉ MARTINS FERNANDES - 31_12_20 - MAVIC - DJI_0162
  6
ByLayer
 62
  256
370
   -1
100
AcDbPolyline
 90
   37
 70
    0
 43
0
 10
338126.4540758661
 20
7370846.68519531
 10
338132.7399609216
 20
7370830.256523167
 10
338149.9054079653
 20
7370806.338330694
 10
338163.6860665472
 20
7370790.392850757
 10
338168.5214343235
 20
7370776.380167076
 10
338170.4555814341
 20
7370760.676269527
 10
338168.0378665282
 20
7370744.247624817
 10
338164.4043771956
 20
7370736.619222729
 10
338154.0084450389
 20
7370719.224166175
 10
338143.3706979667
 20
7370701.587499804
 10
338124.0293509329
 20
7370679.360493766
 10
338101.545092389
 20
7370659.549448754
 10
338078.2967408965
 20
7370631.916669913
 10
338057.5048145474
 20
7370597.609721581
 10
338034.5267523279
 20
7370553.05591653
 10
338022.9219937362
 20
7370533.003261702
 10
338008.4160144787
 20
7370513.917018712
 10
337987.3823352499
 20
7370492.656397086
 10
337977.9319502822
 20
7370478.302063731
 10
337973.0966445418
 20
7370461.631781772
 10
337968.7448445607
 20
7370443.270340807
 10
337965.6018710152
 20
7370398.333081666
 10
337965.6189308154
 20
7370382.231301462
 10
337968.7619043611
 20
7370351.548335819
 10
337970.2124836762
 20
7370335.602855883
 10
337982.543121264
 20
7370287.696851757
 10
337988.10374768
 20
7370257.013913548
 10
337991.4884741057
 20
7370240.343631585
 10
337993.9069954749
 20
7370219.030589844
 10
337993.9069954749
 20
7370192.937991298
 10
337985.928654153
 20
7370165.879008343
 10
337979.8768295581
 20
7370152.994084024
 10
337975.0415238176
 20
7370145.262953873
 10
337946.2712561468
 20
7370118.687135691
 10
337905.1465912387
 20
7370076.572388336
 10
337855.8262121347
 20
7370026.803179706
 10
337851.2440743735
 20
7370017.931279694
  0
LWPOLYLINE
  5
D4
100
AcDbEntity
  8
RUA JURUÁ - 31_12_20 - MAVIC - DJI_0160
  6
ByLayer
 62
  256
370
   -1
100
AcDbPolyline
 90
    2
 70
    0
 43
0
 10
337989.848024526
 20
7370179.171768309
 10
337812.1357532536
 20
7370322.108832331
  0
LWPOLYLINE
  5
D5
100
AcDbEntity
  8
RUA ACRE - 31_12_20 - MAVIC - DJI_0161
  6
ByLayer
 62
  256
370
   -1
100
AcDbPolyline
 90
    2
 70
    0
 43
0
 10
337917.1267875655
 20
7370237.662721292
 10
337787.7901774379
 20
7370265.996049299
  0
LWPOLYLINE
  5
D6
100
AcDbEntity
  8
RUA DEOCLÉCIO ALVES MOREIRA - 31_12_20 - MAVIC - DJI_0158
  6
ByLayer
 62
  256
370
   -1
100
AcDbPolyline
 90
   33
 70
    0
 43
0
 10
337980.4319937509
 20
7370154.17608269
 10
337944.7126107508
 20
7370163.351788299
 10
337929.3818056554
 20
7370173.841681235
 10
337916.8277777362
 20
7370181.151530323
 10
337910.4024365669
 20
7370183.621090988
 10
337904.0760422398
 20
7370184.411342719
 10
337898.342646573
 20
7370184.510120758
 10
337883.0428278045
 20
7370178.307667142
 10
337879.6598698686
 20
7370172.853845998
 10
337882.526536684
 20
7370155.270669538
 10
337882.2300063363
 20
7370152.109635182
 10
337881.4391760274
 20
7370149.24496237
 10
337877.9793864802
 20
7370143.219255203
 10
337874.5195969332
 20
7370141.539973701
 10
337868.786263302
 20
7370142.330225433
 10
337835.1439027574
 20
7370157.538532088
 10
337832.474943519
 20
7370158.427561858
 10
337828.9163312011
 20
7370158.921479477
 10
337826.8404326586
 20
7370158.921479477
 10
337824.6657113454
 20
7370158.230005783
 10
337822.6886976091
 20
7370156.254362738
 10
337811.913975849
 20
7370141.733415167
 10
337810.133366942
 20
7370137.064513908
 10
337809.4414214395
 20
7370132.322976086
 10
337809.2437138624
 20
7370127.779021772
 10
337809.637888304
 20
7370123.10855696
 10
337814.9758067806
 20
7370106.118048728
 10
337816.3610005336
 20
7370102.336860559
 10
337817.547183961
 20
7370094.434315814
 10
337816.1632929565
 20
7370084.951240174
 10
337812.6018890348
 20
7370071.877071287
 10
337809.5375146422
 20
7370064.96233435
 10
337791.1695238029
 20
7370037.41818244
  0
LWPOLYLINE
  5
D7
100
AcDbEntity
  8
RUA MANAUS - 31_12_20 - MAVIC - DJI_0154 - DJI_155
  6
ByLayer
 62
  256
370
   -1
100
AcDbPolyline
 90
   10
 70
    0
 43
0
 10
337703.4461522815
 20
7370113.28487402
 10
337776.5837496754
 20
7370045.293627365
 10
337790.2870498174
 20
7370037.809812624
 10
337819.4934900565
 20
7370024.848384012
 10
337853.1144483063
 20
7370017.523804624
 10
337873.5295701922
 20
7370009.375343437
 10
337914.1615480658
 20
7369999.980786746
 10
337946.5077359974
 20
7369990.108496564
 10
337962.7605767755
 20
7369981.191618501
 10
337967.5351253462
 20
7369975.268743242
  0
LWPOLYLINE
  5
D8
100
AcDbEntity
  8
RUA FLORESTAL - 31_12_20 - MAVIC - DJI_0159
  6
ByLayer
 62
  256
370
   -1
100
AcDbPolyline
 90
   22
 70
    0
 43
0
 10
337990.7425039053
 20
7370182.205444272
 10
337996.0879203519
 20
7370178.199161488
 10
337999.0538441879
 20
7370178.607961569
 10
338029.1222075764
 20
7370191.281038407
 10
338039.34952687
 20
7370195.982335355
 10
338045.8950310691
 20
7370197.924156317
 10
338048.3495951438
 20
7370196.493342318
 10
338058.8837427011
 20
7370172.169257418
 10
338060.1110557562
 20
7370166.854746632
 10
338060.6814734443
 20
7370157.925085853
 10
338059.9762523156
 20
7370142.322709414
 10
338058.1152452221
 20
7370124.751986503
 10
338055.097831807
 20
7370115.428914279
 10
338052.9770814983
 20
7370110.789226739
 10
338035.9074795152
 20
7370090.332791652
 10
338029.2978304665
 20
7370097.130234811
 10
338026.7309198519
 20
7370102.709260073
 10
338022.7523262672
 20
7370113.482567249
 10
337999.4483908433
 20
7370139.738762633
 10
337992.188112027
 20
7370146.363611678
 10
337989.3004151303
 20
7370147.582002153
 10
337976.959406568
 20
7370148.329440657
  0
LWPOLYLINE
  5
D9
100
AcDbEntity
  8
RUA FLORESTAL - 31_12_20 - MAVIC - DJI_0159
  6
ByLayer
 62
  256
370
   -1
100
AcDbPolyline
 90
    5
 70
    0
 43
0
 10
338035.9074795152
 20
7370090.332791652
 10
338029.97141342
 20
7370085.546267443
 10
338019.9762935183
 20
7370079.903575475
 10
338008.8128564529
 20
7370075.81749481
 10
338006.2815542942
 20
7370072.379986184
  0
LWPOLYLINE
  5
DA
100
AcDbEntity
  8
RUA GOIÂNIA - 31_12_20 - MAVIC - DJI_0151
  6
ByLayer
 62
  256
370
   -1
100
AcDbPolyline
 90
   22
 70
    0
 43
0
 10
337980.3398635574
 20
7369722.072741731
 10
337973.1872410687
 20
7369706.127837527
 10
337953.4135431804
 20
7369687.270065354
 10
337890.2375044078
 20
7369629.164961398
 10
337884.3899631677
 20
7369620.789867568
 10
337878.5373350054
 20
7369617.988422572
 10
337872.6820393106
 20
7369618.376265584
 10
337856.9135107556
 20
7369615.43544508
 10
337843.4175337146
 20
7369614.115917527
 10
337824.9915225141
 20
7369616.610714456
 10
337801.1708302287
 20
7369623.294786435
 10
337793.7477078635
 20
7369624.304319375
 10
337787.8619526706
 20
7369626.060050304
 10
337767.7376538541
 20
7369638.581407807
 10
337788.3610293756
 20
7369703.632876327
 10
337797.5558275161
 20
7369734.036761782
 10
337806.6247553477
 20
7369770.433026077
 10
337823.5088087388
 20
7369819.93895462
 10
337828.6058428346
 20
7369829.333648464
 10
337867.1240183912
 20
7369869.899849147
 10
337917.6586830668
 20
7369923.158108735
 10
337966.0515673524
 20
7369973.726566375
  0
LWPOLYLINE
  5
DB
100
AcDbEntity
  8
RUA MANAUS - 31_12_20 - MAVIC - DJI_0154 - DJI_155
  6
ByLayer
 62
  256
370
   -1
100
AcDbPolyline
 90
   39
 70
    0
 43
0
 10
337967.5351253462
 20
7369975.268743242
 10
337976.16691232
 20
7369951.655888033
 10
337974.6663322811
 20
7369900.171107054
 10
337969.6643367819
 20
7369866.680990827
 10
337964.0025850367
 20
7369842.862200619
 10
337955.5721548511
 20
7369827.561237265
 10
337931.6490841397
 20
7369793.702564217
 10
337929.9588858825
 20
7369779.99535427
 10
337930.8117875672
 20
7369766.81794531
 10
337933.8184354438
 20
7369756.042018142
 10
337940.3349419091
 20
7369745.935002957
 10
337946.1234417416
 20
7369738.771981176
 10
337956.6466647211
 20
7369732.235779459
 10
337967.625163337
 20
7369726.333857848
 10
337980.3398635574
 20
7369722.072741731
 10
337988.9143673572
 20
7369733.994024714
 10
337993.6192121519
 20
7369756.483049028
 10
337994.0914894613
 20
7369789.191828512
 10
338002.4085453647
 20
7369813.442645948
 10
338018.1789349889
 20
7369833.593173599
 10
338028.7647582322
 20
7369843.074603394
 10
338040.0695745159
 20
7369847.961908083
 10
338050.5769847134
 20
7369849.842531096
 10
338061.084394911
 20
7369850.626117163
 10
338069.9451311429
 20
7369849.450738064
 10
338084.6084327773
 20
7369845.846231188
 10
338093.3907559633
 20
7369845.140987272
 10
338099.8991008155
 20
7369842.320066465
 10
338114.6550836927
 20
7369830.234747753
 10
338131.1219474206
 20
7369813.152511178
 10
338175.297524988
 20
7369781.227976099
 10
338191.2366515463
 20
7369766.064189508
 10
338201.0478357825
 20
7369752.791861068
 10
338203.0081619321
 20
7369741.508177837
 10
338200.1818182811
 20
7369727.533430845
 10
338194.3007777967
 20
7369718.208712775
 10
338181.7546284035
 20
7369707.238452999
 10
338175.795174873
 20
7369702.693648332
 10
338167.4833299634
 20
7369701.518269237
  0
LWPOLYLINE
  5
DC
100
AcDbEntity
  8
RUA MATO GROSSO - 31_12_20 - MAVIC - DJI_0148
  6
ByLayer
 62
  256
370
   -1
100
AcDbPolyline
 90
   11
 70
    0
 43
0
 10
337980.3398635574
 20
7369722.072741731
 10
337989.8557581584
 20
7369697.969062701
 10
337992.045492096
 20
7369666.561212743
 10
337985.0821158418
 20
7369633.521179836
 10
337966.6480400083
 20
7369569.736270143
 10
337948.3467824752
 20
7369507.877792774
 10
337943.9671905288
 20
7369482.329748966
 10
337941.5198225881
 20
7369458.902566454
 10
337941.906242575
 20
7369446.159212097
 10
337961.2421925084
 20
7369383.141155728
 10
337974.7752668607
 20
7369357.337210693
  0
LWPOLYLINE
  5
DD
100
AcDbEntity
  8
RUA ITAIPÚ - 31_12_20 - MAVIC - DJI_0150
  6
ByLayer
 62
  256
370
   -1
100
AcDbPolyline
 90
    7
 70
    0
 43
0
 10
337971.368023433
 20
7369586.068182802
 10
338030.3832680184
 20
7369570.710335156
 10
338103.0551638807
 20
7369549.753920259
 10
338160.9850348841
 20
7369537.719512972
 10
338171.9896607174
 20
7369532.324794748
 10
338175.3117931845
 20
7369529.419963352
 10
338177.1804926975
 20
7369523.195273712
  0
LWPOLYLINE
  5
DE
100
AcDbEntity
  8
RUA COTEGIPE - 31_12_20 - MAVIC - DJI_0147
  6
ByLayer
 62
  256
370
   -1
100
AcDbPolyline
 90
   22
 70
    0
 43
0
 10
337883.0939766616
 20
7369619.494122452
 10
337871.2274897146
 20
7369549.375348837
 10
337863.6257047133
 20
7369506.707680375
 10
337855.8955679775
 20
7369456.973336193
 10
337856.0404832271
 20
7369430.941743583
 10
337860.7049428215
 20
7369415.493198642
 10
337866.0498092897
 20
7369408.385513991
 10
337876.9779451818
 20
7369399.862157097
 10
337890.838071416
 20
7369390.53974321
 10
337909.3625952087
 20
7369378.686982177
 10
337916.4259108754
 20
7369364.303819132
 10
337920.1622552951
 20
7369355.731525827
 10
337921.4949668986
 20
7369338.951191803
 10
337920.5641841915
 20
7369329.715925324
 10
337922.6964731286
 20
7369305.877199659
 10
337929.6265362456
 20
7369290.428654721
 10
337942.4341658513
 20
7369274.805293778
 10
337956.8273643196
 20
7369264.017942071
 10
337970.021103734
 20
7369256.826374263
 10
337976.9511048156
 20
7369254.695528183
 10
338001.4728618422
 20
7369228.193251773
 10
338022.1296745721
 20
7369215.541406313
  0
LWPOLYLINE
  5
DF
100
AcDbEntity
  8
RUA SIMON BOLIVAR - 31_12_20 - MAVIC - DJI_0157
  6
ByLayer
 62
  256
370
   -1
100
AcDbPolyline
 90
    3
 70
    0
 43
0
 10
337604.1995540358
 20
7369725.412212948
 10
337660.6132120196
 20
7369842.464653812
 10
337773.0735251548
 20
7370047.323583243
  0
LWPOLYLINE
  5
E0
100
AcDbEntity
  8
MCT - RUA BOA VISTA
  6
ByLayer
 62
  256
370
   -1
100
AcDbPolyline
 90
    9
 70
    0
 43
0
 10
337219.5682406827
 20
7370099.652243019
 10
337228.2511207414
 20
7370029.152648657
 10
337228.0451624243
 20
7370022.558083133
 10
337214.1476287008
 20
7369900.772470819
 10
337212.1850692682
 20
7369855.780597104
 10
337204.3616309336
 20
7369753.72606924
 10
337198.7176286206
 20
7369658.414479693
 10
337199.8029421011
 20
7369649.086853966
 10
337193.0003358174
 20
7369619.483172336
  0
LWPOLYLINE
  5
E1
100
AcDbEntity
  8
RUA CASSIANO RICARDO - 30_12_20 - etapa 03 - DJI_0139
  6
ByLayer
 62
  256
370
   -1
100
AcDbPolyline
 90
    2
 70
    0
 43
0
 10
336984.8227823356
 20
7370249.780952776
 10
337352.5505290577
 20
7370366.867474615
  0
LWPOLYLINE
  5
E2
100
AcDbEntity
  8
RUA JOSÉ DE OLIVEIRA - 30_12_20 - etapa 02 - DJI_0020
  6
ByLayer
 62
  256
370
   -1
100
AcDbPolyline
 90
    6
 70
    0
 43
0
 10
337441.8955771815
 20
7370447.1137235
 10
337490.7650952825
 20
7370329.410863662
 10
337506.3858549485
 20
7370299.166762176
 10
337527.1601011407
 20
7370269.563799003
 10
337556.9371451748
 20
7370235.173324117
 10
337602.823045272
 20
7370200.051134665
  0
LWPOLYLINE
  5
E3
100
AcDbEntity
  8
RUA ANITA MALFATTI - 30_12_20 - etapa 02 - DJI_0019
  6
ByLayer
 62
  256
370
   -1
100
AcDbPolyline
 90
    8
 70
    0
 43
0
 10
337302.5169602771
 20
7369741.927483886
 10
337357.9043006719
 20
7369748.439098903
 10
337365.1723339427
 20
7369758.707433882
 10
337388.480177612
 20
7369799.029418827
 10
337415.8285884681
 20
7369853.739476921
 10
337477.271103382
 20
7369974.59949431
 10
337532.9332616515
 20
7370085.421677092
 10
337595.1006629911
 20
7370206.02968842
  0
LWPOLYLINE
  5
E4
100
AcDbEntity
  8
RUA ARACATI - 30_12_20 - etapa 02 - DJI_0022
  6
ByLayer
 62
  256
370
   -1
100
AcDbPolyline
 90
    2
 70
    0
 43
0
 10
337499.7584252753
 20
7370311.998446416
 10
337439.0701632097
 20
7369899.456634353
  0
LWPOLYLINE
  5
E5
100
AcDbEntity
  8
RUA PABLO NERUDA  -30_12_20 - etapa 02 - DJI_0018
  6
ByLayer
 62
  256
370
   -1
100
AcDbPolyline
 90
   16
 70
    0
 43
0
 10
337214.724560131
 20
7369902.167762034
 10
337254.6279914762
 20
7369916.260323983
 10
337283.3135805016
 20
7369920.103752465
 10
337291.9673038107
 20
7369914.018328609
 10
337299.4992987197
 20
7369898.804755254
 10
337306.0696792097
 20
7369878.947023153
 10
337311.9991074915
 20
7369867.096429142
 10
337324.3387402467
 20
7369855.085721998
 10
337336.6783109664
 20
7369848.359708442
 10
337347.8961532863
 20
7369844.996701665
 10
337359.9152479018
 20
7369844.03585826
 10
337371.2933282736
 20
7369844.836561098
 10
337379.7868135305
 20
7369847.87928674
 10
337402.8635124139
 20
7369852.042996357
 10
337412.4787881064
 20
7369856.046565404
 10
337417.7485826781
 20
7369857.516186482
  0
LWPOLYLINE
  5
E6
100
AcDbEntity
  8
MCT - RUA CANADÁ
  6
ByLayer
 62
  256
370
   -1
100
AcDbPolyline
 90
    8
 70
    0
 43
0
 10
337321.1158647998
 20
7369628.506294851
 10
337273.1416590327
 20
7369600.414682285
 10
337268.5967421118
 20
7369587.966893982
 10
337259.5043027733
 20
7369548.851367142
 10
337253.9493836359
 20
7369517.395513418
 10
337249.9094368055
 20
7369506.12521638
 10
337225.661070834
 20
7369438.436722626
 10
337199.3977873517
 20
7369368.36460867
  0
LWPOLYLINE
  5
E7
100
AcDbEntity
  8
RUA ZURIQUE - 30_12_20 - etapa 03 - DJI_0131
  6
ByLayer
 62
  256
370
   -1
100
AcDbPolyline
 90
    3
 70
    0
 43
0
 10
337215.803670212
 20
7369614.946648511
 10
337195.6259585472
 20
7369522.021513026
 10
337149.3124467998
 20
7369395.166291432
  0
LWPOLYLINE
  5
E8
100
AcDbEntity
  8
RUA MIAMI - 30_12_20 - etapa 03 - DJI_0130
  6
ByLayer
 62
  256
370
   -1
100
AcDbPolyline
 90
    2
 70
    0
 43
0
 10
337100.183075424
 20
7369426.379136375
 10
337141.0078180675
 20
7369536.869216878
  0
LWPOLYLINE
  5
E9
100
AcDbEntity
  8
RUA DO SOL NASCENTE - 30_12_20 - etapa 03 - DJI_0121
  6
ByLayer
 62
  256
370
   -1
100
AcDbPolyline
 90
    2
 70
    0
 43
0
 10
337159.2014123459
 20
7369626.127629998
 10
337152.305306296
 20
7369534.81780985
  0
LWPOLYLINE
  5
EA
100
AcDbEntity
  8
RUA CORREIA - 30_12_20 - etapa 03 - DJI_0115
  6
ByLayer
 62
  256
370
   -1
100
AcDbPolyline
 90
    2
 70
    0
 43
0
 10
337071.295932612
 20
7369599.285331942
 10
336969.5373466973
 20
7369607.939606575
  0
LWPOLYLINE
  5
EB
100
AcDbEntity
  8
RUA TAVÁRES - 30_12_20 - etapa 03 - DJI_0114
  6
ByLayer
 62
  256
370
   -1
100
AcDbPolyline
 90
    5
 70
    0
 43
0
 10
337043.2101190401
 20
7369601.67394949
 10
337037.9413553904
 20
7369548.468763404
 10
337036.8477911699
 20
7369544.917060673
 10
337030.5596107956
 20
7369544.097458067
 10
336946.0739836457
 20
7369551.571293998
  0
LWPOLYLINE
  5
EC
100
AcDbEntity
  8
MCT - ÚNA
  6
ByLayer
 62
  256
370
   -1
100
AcDbPolyline
 90
    5
 70
    0
 43
0
 10
336936.7557092189
 20
7369529.960952096
 10
336951.2458073531
 20
7369563.565454442
 10
336992.8023023347
 20
7369664.378961484
 10
336997.4500743429
 20
7369665.745011547
 10
337083.7082266127
 20
7369659.239485612
  0
LWPOLYLINE
  5
ED
100
AcDbEntity
  8
RUA PARANAGUÁ - 30_12_20 - etapa 03 - DJI_0125
  6
ByLayer
 62
  256
370
   -1
100
AcDbPolyline
 90
   29
 70
    0
 43
0
 10
337003.8254533994
 20
7369356.497443487
 10
336998.923149157
 20
7369360.182439146
 10
336997.6441979328
 20
7369379.555740639
 10
336998.5375590706
 20
7369426.653004725
 10
336993.9200604538
 20
7369470.784678362
 10
336988.65490978
 20
7369486.349803877
 10
336974.7243110615
 20
7369495.886177412
 10
336951.4700041476
 20
7369499.832279096
 10
336939.8428506907
 20
7369500.928410833
 10
336912.7494063054
 20
7369494.132366638
 10
336899.023897405
 20
7369478.318060422
 10
336875.3104027011
 20
7369448.549936861
 10
336863.6833112799
 20
7369429.586802962
 10
336853.1530099323
 20
7369415.994714572
 10
336836.8092249093
 20
7369399.662296841
 10
336818.271611597
 20
7369384.754850367
 10
336806.2717480289
 20
7369375.817454124
 10
336796.1802867819
 20
7369372.857871006
 10
336782.4690460782
 20
7369377.023199035
 10
336773.1453999183
 20
7369381.517366583
 10
336768.2093483021
 20
7369388.861476648
 10
336766.2349400627
 20
7369397.849784315
 10
336764.7007367081
 20
7369411.041795593
 10
336770.4046654472
 20
7369422.660846858
 10
336784.5620044211
 20
7369450.23185171
 10
336797.9442081028
 20
7369477.854481186
 10
336821.2113563937
 20
7369527.579252043
 10
336849.2796908244
 20
7369583.212463723
 10
336864.0686686758
 20
7369618.956239415
  0
LWPOLYLINE
  5
EE
100
AcDbEntity
  8
MCT - RUA TIBAGI
  6
ByLayer
 62
  256
370
   -1
100
AcDbPolyline
 90
   17
 70
    0
 43
0
 10
336780.5810167718
 20
7369792.656255509
 10
336769.6147036374
 20
7369758.480060608
 10
336770.1552821838
 20
7369735.792136112
 10
336780.0655993689
 20
7369710.763410772
 10
336794.4806964175
 20
7369695.818192192
 10
336813.0569579321
 20
7369688.203478034
 10
336826.9314764339
 20
7369681.000965369
 10
336841.8870899932
 20
7369666.59596747
 10
336846.0314428016
 20
7369657.59281978
 10
336855.9610530701
 20
7369635.169711495
 10
336860.2855573705
 20
7369623.105514439
 10
336867.6733194222
 20
7369615.002697977
 10
336884.7911851315
 20
7369610.321041427
 10
336895.9628729366
 20
7369605.459357037
 10
336912.1797950804
 20
7369595.015712301
 10
336923.8920614324
 20
7369588.893586135
 10
336955.2006903621
 20
7369573.159757963
  0
LWPOLYLINE
  5
EF
100
AcDbEntity
  8
RUA IRATI - 30_12_20 - etapa 03 - DJI_0112
  6
ByLayer
 62
  256
370
   -1
100
AcDbPolyline
 90
    2
 70
    0
 43
0
 10
337086.0385778269
 20
7369720.639788132
 10
336958.135055926
 20
7369732.00105556
  0
LWPOLYLINE
  5
F0
100
AcDbEntity
  8
RUA ITARANÉ - 30_12_20 - etapa 03 - DJI_0116
  6
ByLayer
 62
  256
370
   -1
100
AcDbPolyline
 90
    2
 70
    0
 43
0
 10
336999.4612924572
 20
7369825.402775693
 10
336900.7747164098
 20
7369602.360545602
  0
LWPOLYLINE
  5
F1
100
AcDbEntity
  8
RUA NITERÓI - 30_12_20 - etapa 03 - DJI_0140
  6
ByLayer
 62
  256
370
   -1
100
AcDbPolyline
 90
    5
 70
    0
 43
0
 10
337097.9079770624
 20
7370127.750176378
 10
337101.0943322848
 20
7370271.212374028
 10
337100.9020064286
 20
7370373.462467019
 10
337090.9024199608
 20
7370446.515450335
 10
337068.4349110393
 20
7370509.879655013
  0
LWPOLYLINE
  5
F2
100
AcDbEntity
  8
RUA AMÁBILE GRASIOTIN GRASSIOTTO - 30_12_20 - etapa 02 - DJI_0017
  6
ByLayer
 62
  256
370
   -1
100
AcDbPolyline
 90
    2
 70
    0
 43
0
 10
337330.5504272274
 20
7370171.432463673
 10
337293.0197597689
 20
7369911.89251518
  0
LWPOLYLINE
  5
F3
100
AcDbEntity
  8
RUA LUIZA DE O. SANTANA - 30_12_20 - etapa 01 - DJI_0021
  6
ByLayer
 62
  256
370
   -1
100
AcDbPolyline
 90
    3
 70
    0
 43
0
 10
339426.5628500381
 20
7372304.359882852
 10
339540.4637547507
 20
7372289.107796757
 10
339590.1245233988
 20
7372290.246007223
  0
LWPOLYLINE
  5
F4
100
AcDbEntity
  8
RUA JOSÉ JOÃO SANTANA - 30_12_20 - etapa 01 - DJI_0023
  6
ByLayer
 62
  256
370
   -1
100
AcDbPolyline
 90
    2
 70
    0
 43
0
 10
339490.3473343443
 20
7372295.254171682
 10
339583.1393293624
 20
7372218.182077157
  0
LWPOLYLINE
  5
F5
100
AcDbEntity
  8
RUA ASSUMPTA SABATINI ROSSI - 30_12_20 - etapa 01 - DJI_0024
  6
ByLayer
 62
  256
370
   -1
100
AcDbPolyline
 90
   12
 70
    0
 43
0
 10
339037.1449289198
 20
7372695.600021907
 10
339059.2996541565
 20
7372665.304158645
 10
339077.3732408995
 20
7372649.573625863
 10
339137.4241723897
 20
7372623.356080367
 10
339255.1939296441
 20
7372573.833995133
 10
339349.6429398169
 20
7372527.224997938
 10
339421.3542138301
 20
7372475.372508103
 10
339467.9957079937
 20
7372442.746185376
 10
339495.7113698247
 20
7372418.800205577
 10
339543.7053029247
 20
7372359.775568891
 10
339574.4625100336
 20
7372318.947432219
 10
339609.2177350864
 20
7372247.247387198
  0
LWPOLYLINE
  5
F6
100
AcDbEntity
  8
RUA SERVIDÃO PARTICULAR - 30_12_20 - etapa 01 - DJI_0029
  6
ByLayer
 62
  256
370
   -1
100
AcDbPolyline
 90
    8
 70
    0
 43
0
 10
338574.5885627807
 20
7371733.612814534
 10
338560.2911264648
 20
7371781.237704849
 10
338526.1275424929
 20
7371808.867137144
 10
338516.5935334855
 20
7371816.012676196
 10
338469.5147501123
 20
7371859.115121633
 10
338450.7472327265
 20
7371882.830463902
 10
338441.3720969874
 20
7371899.820972136
 10
338435.3338581971
 20
7371916.493887444
  0
LWPOLYLINE
  5
F7
100
AcDbEntity
  8
TV SOSSEGO - 30_12_20 - etapa 01 - DJI_0030
  6
ByLayer
 62
  256
370
   -1
100
AcDbPolyline
 90
    7
 70
    0
 43
0
 10
338531.5333869247
 20
7371694.974931666
 10
338476.4938834184
 20
7371730.701149142
 10
338454.8518827269
 20
7371746.032894058
 10
338435.4976943161
 20
7371760.005199713
 10
338412.8396739513
 20
7371780.81985263
 10
338407.6577751031
 20
7371788.536471926
 10
338406.1336835574
 20
7371797.573085098
  0
LWPOLYLINE
  5
F8
100
AcDbEntity
  8
RUA ROMANOS - 30_12_20 - etapa 04 - DJI_0014
  6
ByLayer
 62
  256
370
   -1
100
AcDbPolyline
 90
    2
 70
    0
 43
0
 10
335731.3899451778
 20
7369899.244727693
 10
335327.3977304933
 20
7369632.240247312
  0
LWPOLYLINE
  5
F9
100
AcDbEntity
  8
RUA ACRISIATAS - 30_12_20 - etapa 04 - DJI_0013
  6
ByLayer
 62
  256
370
   -1
100
AcDbPolyline
 90
    2
 70
    0
 43
0
 10
335697.4439071154
 20
7369950.609597922
 10
335287.8253532522
 20
7369681.423921477
  0
LWPOLYLINE
  5
FA
100
AcDbEntity
  8
RUA CANAÃ - 30_12_20 - etapa 04 - DJI_0012
  6
ByLayer
 62
  256
370
   -1
100
AcDbPolyline
 90
    2
 70
    0
 43
0
 10
335660.5373553892
 20
7370000.01005533
 10
335254.544276464
 20
7369732.668380577
  0
LWPOLYLINE
  5
FB
100
AcDbEntity
  8
RUA ACRISIATAS - 30_12_20 - etapa 04 - DJI_0013
  6
ByLayer
 62
  256
370
   -1
100
AcDbPolyline
 90
    6
 70
    0
 43
0
 10
335248.1086172347
 20
7369802.39821349
 10
335237.5859462703
 20
7369760.931681577
 10
335238.5988021261
 20
7369757.220386897
 10
335313.2756897971
 20
7369642.236826106
 10
335318.4069055295
 20
7369633.870647261
 10
335327.3977304933
 20
7369632.240247312
  0
LWPOLYLINE
  5
FC
100
AcDbEntity
  8
RUA GALATAS - 30_12_20 - etapa 04 - DJI_0011
  6
ByLayer
 62
  256
370
   -1
100
AcDbPolyline
 90
    4
 70
    0
 43
0
 10
335522.1577218801
 20
7369908.888691703
 10
335535.3404434533
 20
7369887.95277676
 10
335543.1944033217
 20
7369879.421766695
 10
335605.3696831875
 20
7369784.815805092
  0
LWPOLYLINE
  5
FD
100
AcDbEntity
  8
RUA PAULO MORANDO - 30_12_20 - etapa 04 - DJI_0008
  6
ByLayer
 62
  256
370
   -1
100
AcDbPolyline
 90
    5
 70
    0
 43
0
 10
335646.0770456344
 20
7370017.892335105
 10
335667.863454017
 20
7370103.718683288
 10
335674.7008979269
 20
7370108.624201976
 10
335738.8676458322
 20
7370096.010018901
 10
335884.9795679877
 20
7370061.256294401
  0
LWPOLYLINE
  5
FE
100
AcDbEntity
  8
RUA PROFESSOR CLAUDEMIR GOMES DO VALE - 30_12_20 - etapa 04 - DJI_0006
  6
ByLayer
 62
  256
370
   -1
100
AcDbPolyline
 90
    9
 70
    0
 43
0
 10
335703.075375746
 20
7369942.974357229
 10
335742.2096297034
 20
7370095.959793244
 10
335779.3944733003
 20
7370261.81322047
 10
335808.5661735822
 20
7370390.239865957
 10
335813.9846143167
 20
7370409.094209601
 10
335820.4574127487
 20
7370423.901890532
 10
335819.9704950288
 20
7370437.776021628
 10
335828.6124315668
 20
7370470.390192541
 10
335838.6439164919
 20
7370509.609347857
  0
LWPOLYLINE
  5
FF
100
AcDbEntity
  8
RUA JOSÉ CARDOSO - 30_12_20 - etapa 04 - DJI_0003
  6
ByLayer
 62
  256
370
   -1
100
AcDbPolyline
 90
   24
 70
    0
 43
0
 10
335765.277209348
 20
7370446.986243853
 10
335831.1748135796
 20
7370504.080443334
 10
335852.1514200218
 20
7370519.608098477
 10
335874.0034733823
 20
7370528.365576602
 10
335891.6444235882
 20
7370529.502909286
 10
335908.0334946265
 20
7370524.95357855
 10
335925.3330006828
 20
7370520.859158943
 10
335951.7696737724
 20
7370504.221738992
 10
335964.0614150154
 20
7370494.09947262
 10
335973.2910151486
 20
7370483.609524823
 10
335989.8024825
 20
7370456.055801325
 10
336003.4600003415
 20
7370424.779097658
 10
336008.3637313904
 20
7370410.401036727
 10
336013.7198263092
 20
7370353.612086351
 10
336014.9312582411
 20
7370321.712622953
 10
336016.3426930687
 20
7370289.263420412
 10
336014.7485012527
 20
7370230.180027113
 10
336012.915720374
 20
7370209.81093145
 10
336007.6604954021
 20
7370186.635562985
 10
336001.2553778509
 20
7370153.813055722
 10
335995.1935655182
 20
7370124.990085187
 10
335989.8240709018
 20
7370109.920385983
 10
335983.5406672718
 20
7370103.184689383
 10
335898.8917327333
 20
7370121.755106622
  0
LWPOLYLINE
  5
100
100
AcDbEntity
  8
RUA JOÃO SALDANHA - 30_12_20 - etapa 04 - DJI_0005
  6
ByLayer
 62
  256
370
   -1
100
AcDbPolyline
 90
    9
 70
    0
 43
0
 10
335755.8210143436
 20
7369862.823585784
 10
335776.7173253575
 20
7369929.767925745
 10
335810.558510121
 20
7370078.568192963
 10
335845.0945560613
 20
7370224.583830222
 10
335880.8345276216
 20
7370373.822851871
 10
335898.2620131983
 20
7370451.937297542
 10
335902.4652378272
 20
7370463.938157056
 10
335903.065680764
 20
7370474.73892239
 10
335914.5813924544
 20
7370523.403832497
  0
LWPOLYLINE
  5
101
100
AcDbEntity
  8
RUA OCTAVIO EDGAR DE OLIVEIRA - 30_12_20 - etapa 04 - DJI_0007
  6
ByLayer
 62
  256
370
   -1
100
AcDbPolyline
 90
    5
 70
    0
 43
0
 10
335714.8339852027
 20
7370256.830209987
 10
335776.3323321905
 20
7370240.319794286
 10
335846.7035743949
 20
7370221.974866617
 10
335853.7407110225
 20
7370221.974866617
 10
336007.7725556069
 20
7370187.129744786
  0
LWPOLYLINE
  5
102
100
AcDbEntity
  8
RUA AMABILE MASSINI ORTEGA - 30_12_20 - etapa 04 - DJI_0004
  6
ByLayer
 62
  256
370
   -1
100
AcDbPolyline
 90
    7
 70
    0
 43
0
 10
335981.252862137
 20
7370470.323090263
 10
335952.102060719
 20
7370351.650844435
 10
335917.424821667
 20
7370206.436239183
 10
335898.8563766427
 20
7370121.593558068
 10
335878.7537282637
 20
7370034.185939661
 10
335866.665153734
 20
7369989.304227731
 10
335849.5078953946
 20
7369904.493722854
  0
LWPOLYLINE
  5
103
100
AcDbEntity
  8
RUA RUBENS MARTINS - 30_12_20 - etapa 04 - DJI_0009
  6
ByLayer
 62
  256
370
   -1
100
AcDbPolyline
 90
    2
 70
    0
 43
0
 10
335851.8167848548
 20
7369915.906856407
 10
335777.5605769158
 20
7369933.475717248
  0
LWPOLYLINE
  5
104
100
AcDbEntity
  8
RUA MARINGÁ - 30_12_20 - etapa 03 - DJI_0119
  6
ByLayer
 62
  256
370
   -1
100
AcDbPolyline
 90
    8
 70
    0
 43
0
 10
336707.8077938713
 20
7370139.509267492
 10
336799.1437912279
 20
7369941.702183459
 10
336814.687130418
 20
7369913.873055493
 10
336827.316159423
 20
7369903.194411746
 10
337096.2078317635
 20
7369781.683435842
 10
337135.3900367856
 20
7369768.416044934
 10
337172.9532357362
 20
7369768.739645188
 10
337205.892726183
 20
7369773.69877128
  0
LWPOLYLINE
  5
105
100
AcDbEntity
  8
RUA LUÍS VAZ DE CAMÕES - 30_12_20 - etapa 03 - DJI_0134
  6
ByLayer
 62
  256
370
   -1
100
AcDbPolyline
 90
    2
 70
    0
 43
0
 10
337444.2888020219
 20
7370639.192888932
 10
337536.3443692613
 20
7370548.873987218
  0
LWPOLYLINE
  5
106
100
AcDbEntity
  8
IRMÃ DOROTHY STANG - 30_12_20 - DJI_0136 - etapa 03
  6
ByLayer
 62
  256
370
   -1
100
AcDbPolyline
 90
    6
 70
    0
 43
0
 10
337412.4667531928
 20
7370579.675815882
 10
337414.5201948344
 20
7370576.803023578
 10
337420.7625929083
 20
7370571.467802592
 10
337425.8550984024
 20
7370563.423962189
 10
337427.3335937544
 20
7370559.155796375
 10
337479.4409004302
 20
7370479.654712124
  0
LWPOLYLINE
  5
107
100
AcDbEntity
  8
RUA JOANA SANTANA - 30_12_20 - etapa 03 - DJI_0135
  6
ByLayer
 62
  256
370
   -1
100
AcDbPolyline
 90
    2
 70
    0
 43
0
 10
337396.0426940548
 20
7370565.590139043
 10
337429.0002431954
 20
7370437.212539692
  0
LWPOLYLINE
  5
108
100
AcDbEntity
  8
RUA CARMEN MIRANDA - 30_12_20 - etapa 02 - DJI_0021
  6
ByLayer
 62
  256
370
   -1
100
AcDbPolyline
 90
    6
 70
    0
 43
0
 10
337490.4009552769
 20
7370330.287899526
 10
337555.3002108043
 20
7370348.29173282
 10
337588.0428684963
 20
7370363.164369704
 10
337609.9421930127
 20
7370370.600701863
 10
337656.292181715
 20
7370437.74014224
 10
337642.4722545745
 20
7370453.037735902
  0
LWPOLYLINE
  5
109
100
AcDbEntity
  8
PASSAGEM INÊS DE ARAÚJO - 30_12_20 - etapa 01 - DJI_0038
  6
ByLayer
 62
  256
370
   -1
100
AcDbPolyline
 90
    2
 70
    0
 43
0
 10
339356.7190968604
 20
7371550.337252882
 10
339471.698054037
 20
7371356.060245631
  0
LWPOLYLINE
  5
10A
100
AcDbEntity
  8
RUA MERCÚRIO - 30_12_20 - etapa 01 - DJI_0035
  6
ByLayer
 62
  256
370
   -1
100
AcDbPolyline
 90
    2
 70
    0
 43
0
 10
339245.7343456698
 20
7371378.524034851
 10
339345.0678735761
 20
7371518.68266356
  0
LWPOLYLINE
  5
10B
100
AcDbEntity
  8
RUA MARTE - 30_12_20 - etapa 01 - DJI_0034
  6
ByLayer
 62
  256
370
   -1
100
AcDbPolyline
 90
    2
 70
    0
 43
0
 10
339224.1960862968
 20
7371395.581089688
 10
339389.1331517795
 20
7371264.960480024
  0
LWPOLYLINE
  5
10C
100
AcDbEntity
  8
RUA VÊNUS - 30_12_20 - etapa 01 - DJI_0040
  6
ByLayer
 62
  256
370
   -1
100
AcDbPolyline
 90
    2
 70
    0
 43
0
 10
339279.8099892488
 20
7371426.604432048
 10
339463.0609830517
 20
7371282.421126148
  0
LWPOLYLINE
  5
10D
100
AcDbEntity
  8
RUA NETUNO - 30_12_20 - etapa 01 - DJI_0036
  6
ByLayer
 62
  256
370
   -1
100
AcDbPolyline
 90
    2
 70
    0
 43
0
 10
339327.3404456911
 20
7371493.67703489
 10
339377.6542014609
 20
7371411.168379229
  0
LWPOLYLINE
  5
10E
100
AcDbEntity
  8
RUA JÚPITER - 30_12_20 - etapa 01 - DJI_0037
  6
ByLayer
 62
  256
370
   -1
100
AcDbPolyline
 90
    3
 70
    0
 43
0
 10
339307.3661226099
 20
7371465.485864586
 10
339428.7795694781
 20
7371371.931087403
 10
339462.7259291274
 20
7371325.38595925
  0
LWPOLYLINE
  5
10F
100
AcDbEntity
  8
RUA AUGUSTO VENTURINI - 30_12_20 - etapa 01 - DJI_0039
  6
ByLayer
 62
  256
370
   -1
100
AcDbPolyline
 90
    4
 70
    0
 43
0
 10
339179.4315423855
 20
7371874.047475204
 10
339321.3912280411
 20
7371758.471520498
 10
339325.6461283558
 20
7371737.984801888
 10
339261.8164200697
 20
7371619.544832707
  0
LWPOLYLINE
  5
110
100
AcDbEntity
  8
ESTRADA JOSÉ MOURA - 30_12_20 - etapa 01 - DJI_0041
  6
ByLayer
 62
  256
370
   -1
100
AcDbPolyline
 90
   71
 70
    0
 43
0
 10
339449.7541510094
 20
7371107.465489745
 10
339470.7446932049
 20
7371107.624402363
 10
339490.1220242369
 20
7371105.417697086
 10
339507.6316416695
 20
7371095.337303244
 10
339524.8326882278
 20
7371073.58773874
 10
339536.4573692005
 20
7371044.970461428
 10
339544.3848412997
 20
7371027.509872873
 10
339556.8422797307
 20
7371009.564254258
 10
339570.9488115173
 20
7370984.394919024
 10
339579.5233773526
 20
7370961.599136921
 10
339585.1858662858
 20
7370935.56990335
 10
339595.7162296691
 20
7370895.866097201
 10
339603.1583349393
 20
7370874.525377859
 10
339618.6897012513
 20
7370859.974887397
 10
339637.2949334088
 20
7370849.14285104
 10
339649.1052160683
 20
7370843.6459808
 10
339673.5786473333
 20
7370807.956085082
 10
339681.0207526032
 20
7370792.112208548
 10
339683.9328915413
 20
7370782.088528198
 10
339695.4325617629
 20
7370760.857559182
 10
339699.8007391522
 20
7370712.355896882
 10
339701.9039333752
 20
7370698.937115808
 10
339710.6590849516
 20
7370673.006742568
 10
339724.0872570407
 20
7370653.282735244
 10
339734.9268060421
 20
7370643.420731583
 10
339749.0021339033
 20
7370636.145472635
 10
339759.3563781113
 20
7370634.690437308
 10
339770.5195049989
 20
7370632.750371911
 10
339804.3325876181
 20
7370633.882081295
 10
339814.5249808475
 20
7370635.175439937
 10
339826.6589034285
 20
7370632.750371911
 10
339836.2042029218
 20
7370628.708564432
 10
339855.6631695245
 20
7370619.246198991
 10
339865.6938358467
 20
7370606.635773924
 10
339881.225202159
 20
7370595.318707503
 10
339899.0215516374
 20
7370585.780057216
 10
339920.0535559038
 20
7370582.223252373
 10
339938.8206390399
 20
7370581.091542987
 10
339951.6016553569
 20
7370582.38492906
 10
339965.5151322395
 20
7370583.193285067
 10
339980.7229206656
 20
7370584.001641078
 10
339999.8694757972
 20
7370579.282459299
 10
340008.4440416325
 20
7370572.33055373
 10
340019.6072305556
 20
7370556.163323819
 10
340029.9614747638
 20
7370545.654640838
 10
340045.1692631899
 20
7370535.630960488
 10
340057.1413347922
 20
7370529.16405755
 10
340068.7898285086
 20
7370525.930633513
 10
340078.4969169447
 20
7370526.092310201
 10
340090.9543553761
 20
7370530.942473688
 10
340099.205405361
 20
7370539.834444652
 10
340155.275261841
 20
7370606.62801103
 10
340176.7926329366
 20
7370621.016852234
 10
340194.9125603007
 20
7370627.807081116
 10
340207.3699987319
 20
7370622.956917627
 10
340218.5331256192
 20
7370618.915110151
 10
340225.3281371531
 20
7370611.316525257
 10
340236.6530529835
 20
7370602.424554296
 10
340264.0381269015
 20
7370558.715588115
 10
340280.0548600427
 20
7370546.590193113
 10
340295.2626484687
 20
7370541.416676251
 10
340312.4118421749
 20
7370542.225032262
 10
340327.4578416583
 20
7370547.236872432
 10
340342.9891459349
 20
7370552.895391933
 10
340361.4733465633
 20
7370558.719949602
 10
340371.5040128854
 20
7370558.396596224
 10
340380.8875234358
 20
7370554.678142123
 10
340386.3882234258
 20
7370549.666301947
 10
340390.4328229292
 20
7370531.720683333
 10
340397.0831673559
 20
7370506.763524751
 10
340399.9953062938
 20
7370491.728004226
  0
LWPOLYLINE
  5
111
100
AcDbEntity
  8
RUA MIRACEMA -30_12_20 - DJI_0141 - etapa 03
  6
ByLayer
 62
  256
370
   -1
100
AcDbPolyline
 90
    9
 70
    0
 43
0
 10
336989.8255753112
 20
7370132.819392635
 10
336968.7925027662
 20
7370152.475038232
 10
336953.5274160701
 20
7370165.092212884
 10
336881.741947434
 20
7370224.393543288
 10
336842.3707494144
 20
7370236.917514962
 10
336806.8520847911
 20
7370251.793941433
 10
336781.7800975788
 20
7370261.972551578
 10
336740.1793216855
 20
7370277.686622013
 10
336719.8083337977
 20
7370284.994330896
  0
LWPOLYLINE
  5
112
100
AcDbEntity
  8
RUA MARICÁ - 30_12_20 - etapa 03 - DJI_0142
  6
ByLayer
 62
  256
370
   -1
100
AcDbPolyline
 90
    5
 70
    0
 43
0
 10
336792.449022097
 20
7370146.518605137
 10
336795.6766194397
 20
7370163.165341668
 10
336798.8829934073
 20
7370182.746544642
 10
336791.8678078245
 20
7370221.336929999
 10
336788.3118816646
 20
7370259.320807893
  0
LWPOLYLINE
  5
113
100
AcDbEntity
  8
RUA CURITIBA - 30_12_20 - etapa 03 - DJI_0117
  6
ByLayer
 62
  256
370
   -1
100
AcDbPolyline
 90
   14
 70
    0
 43
0
 10
336580.4452773776
 20
7369985.052822093
 10
336588.002359599
 20
7369971.477478522
 10
336592.6597135374
 20
7369955.653236558
 10
336597.5033318753
 20
7369936.105658553
 10
336601.7930891641
 20
7369915.523902234
 10
336612.9706890195
 20
7369896.162491637
 10
336627.1290152344
 20
7369876.242566657
 10
336649.8567988518
 20
7369860.046002028
 10
336668.6724514511
 20
7369851.296133776
 10
336713.0103220738
 20
7369834.354899507
 10
336781.2398719538
 20
7369792.249668485
 10
336844.6989173052
 20
7369763.838844582
 10
336903.6394729171
 20
7369730.67548314
 10
336947.8550768889
 20
7369708.767202062
  0
LWPOLYLINE
  5
114
100
AcDbEntity
  8
RUA GÊNESIS - 30_12_20 - etapa 04 - DJI_0010
  6
ByLayer
 62
  256
370
   -1
100
AcDbPolyline
 90
    6
 70
    0
 43
0
 10
335618.6573167823
 20
7370047.55092517
 10
335576.5602251366
 20
7370017.949640724
 10
335540.1616221215
 20
7369992.994748007
 10
335535.9034416081
 20
7369989.02312799
 10
335534.3644988016
 20
7369984.886838778
 10
335565.3499907511
 20
7369937.330293534
  0
LWPOLYLINE
  5
115
100
AcDbEntity
  8
RUA DA FONTE - 30_12_20 - etapa 03 - DJI_0118
  6
ByLayer
 62
  256
370
   -1
100
AcDbPolyline
 90
   14
 70
    0
 43
0
 10
336752.8388635932
 20
7370041.985127496
 10
336744.0639614893
 20
7370018.934621628
 10
336742.2825461185
 20
7370002.072489183
 10
336738.3329976276
 20
7369959.637809415
 10
336738.3329976276
 20
7369935.082512828
 10
336734.0029014215
 20
7369919.880068547
 10
336732.1595727158
 20
7369903.989735814
 10
336730.2842539261
 20
7369898.257279341
 10
336727.6894475633
 20
7369889.363282659
 10
336725.5711584375
 20
7369882.821463435
 10
336723.3673144358
 20
7369874.630218947
 10
336720.2724598009
 20
7369865.339799197
 10
336717.5996758863
 20
7369856.147275942
 10
336709.7554739603
 20
7369835.598557435
  0
LWPOLYLINE
  5
116
100
AcDbEntity
  8
RUA PONTA GROSSA - 30_12_20 - etapa 03 - DJI_0122
  6
ByLayer
 62
  256
370
   -1
100
AcDbPolyline
 90
   19
 70
    0
 43
0
 10
336751.3948000925
 20
7370045.112547119
 10
336794.6323179131
 20
7370021.54131027
 10
336809.0020652426
 20
7370010.858864368
 10
336836.33958965
 20
7369993.521790397
 10
336887.3719295326
 20
7369958.933701432
 10
336901.7416493085
 20
7369949.477118942
 10
336917.8637974564
 20
7369939.320032657
 10
336928.2029870837
 20
7369933.541016104
 10
336940.1193346918
 20
7369933.541016104
 10
336951.5099813424
 20
7369933.541016104
 10
336969.0340446343
 20
7369936.342958367
 10
336981.8266064288
 20
7369941.071255688
 10
336993.0420102422
 20
7369946.675164523
 10
337008.6384023245
 20
7369950.702970202
 10
337036.0220244155
 20
7369956.131321641
 10
337044.9592988988
 20
7369956.131321641
 10
337065.2641455278
 20
7369952.831267132
 10
337088.9821688332
 20
7369942.710070557
 10
337213.7271161562
 20
7369891.165330415
  0
LWPOLYLINE
  5
117
100
AcDbEntity
  8
ESTRADA MARCO POLO - 30_12_20 - etapa 01 - DJI_0031 - DJI_0032 - DJI_0033
  6
ByLayer
 62
  256
370
   -1
100
AcDbPolyline
 90
   63
 70
    0
 43
0
 10
339486.9732049199
 20
7372027.562764919
 10
339488.6038005963
 20
7371833.952733417
 10
339492.0862553031
 20
7371815.701364908
 10
339513.9396734477
 20
7371780.226196896
 10
339542.0210353626
 20
7371734.009267043
 10
339554.8690501684
 20
7371703.228565727
 10
339561.1442030587
 20
7371678.119824963
 10
339568.2273080939
 20
7371604.961370515
 10
339571.2947842687
 20
7371591.165170106
 10
339580.6313338411
 20
7371570.670304572
 10
339624.1970390546
 20
7371530.751359255
 10
339632.1488911593
 20
7371510.535162448
 10
339628.5362458011
 20
7371488.518988956
 10
339611.1322096952
 20
7371448.155995075
 10
339591.6208229787
 20
7371426.538033403
 10
339533.1460929697
 20
7371399.112493681
 10
339480.4728117224
 20
7371370.538210094
 10
339463.3211365903
 20
7371342.238700073
 10
339462.653136844
 20
7371323.324914047
 10
339465.9026255796
 20
7371286.959536746
 10
339456.9732158969
 20
7371272.698303271
 10
339393.5217388936
 20
7371234.420209008
 10
339386.6598529422
 20
7371210.47532644
 10
339447.065938458
 20
7371124.759607668
 10
339450.8769416687
 20
7371100.242223848
 10
339448.4226317632
 20
7371091.756006836
 10
339441.8166068717
 20
7371082.327212526
 10
339425.9533453216
 20
7371076.264474059
 10
339365.5385793931
 20
7371060.66692525
 10
339337.6402226095
 20
7371047.368071299
 10
339328.6159604369
 20
7371036.861582775
 10
339297.2291536413
 20
7370989.474375935
 10
339271.8563917377
 20
7370950.446791997
 10
339220.5191099821
 20
7370911.260082428
 10
339195.2810274475
 20
7370887.083903992
 10
339180.7138810513
 20
7370865.809182974
 10
339159.4871469183
 20
7370839.503886595
 10
339138.5459007896
 20
7370823.424297849
 10
339101.5551046674
 20
7370807.706904383
 10
339079.9061559846
 20
7370793.980570027
 10
339060.5076120927
 20
7370769.544951807
 10
339048.1835502826
 20
7370747.136436667
 10
339043.7632629576
 20
7370732.543648029
 10
339043.325601534
 20
7370708.052043697
 10
339051.6688364768
 20
7370679.239469411
 10
339063.0245219834
 20
7370639.296686793
 10
339069.1374516813
 20
7370604.012546348
 10
339067.7369351258
 20
7370581.584089069
 10
339061.218912714
 20
7370568.335213903
 10
339054.1722846339
 20
7370547.93177497
 10
339054.0678166202
 20
7370521.119174777
 10
339049.5156415298
 20
7370506.708087257
 10
339045.1462234277
 20
7370495.130538678
 10
339043.691673832
 20
7370480.754096163
 10
339047.8827787428
 20
7370465.874993045
 10
339073.0007809763
 20
7370433.650858284
 10
339081.0702547248
 20
7370418.210426737
 10
339080.5548626474
 20
7370396.779515173
 10
339063.6336499093
 20
7370343.066179873
 10
339051.54122917
 20
7370306.438976312
 10
339040.8326994354
 20
7370277.41940978
 10
339026.1653654845
 20
7370252.148855175
 10
338997.5861851674
 20
7370212.243381078
  0
LWPOLYLINE
  5
118
100
AcDbEntity
  8
RUA LUIGI BATISTINI - 30_12_20 - etapa 01 - DJI_0027
  6
ByLayer
 62
  256
370
   -1
100
AcDbPolyline
 90
   18
 70
    0
 43
0
 10
338670.4202435449
 20
7372634.326861603
 10
338716.0019794496
 20
7372597.536082539
 10
338762.8010751028
 20
7372557.22538144
 10
338798.4253813991
 20
7372529.373470573
 10
338840.755426502
 20
7372493.982678978
 10
338871.6054400858
 20
7372469.380785843
 10
338892.5609014111
 20
7372453.674809648
 10
338923.994120953
 20
7372428.126437903
 10
338998.8547474272
 20
7372364.764922762
 10
339025.0490878609
 20
7372344.242451249
 10
339072.545373367
 20
7372304.931681644
 10
339094.9628790683
 20
7372288.077440408
 10
339241.7620679218
 20
7372169.132046483
 10
339263.1331128337
 20
7372150.433420345
 10
339295.4359443252
 20
7372107.897286363
 10
339330.9079323843
 20
7372065.575778864
 10
339354.2785567947
 20
7372043.859111144
 10
339396.6240559314
 20
7372007.490660117
  0
LWPOLYLINE
  5
119
100
AcDbEntity
  8
AVENIDA ÂNGEKO DEMACHI - 30_12_20 - etapa 01 - DJI_0004
  6
ByLayer
 62
  256
370
   -1
100
AcDbPolyline
 90
   60
 70
    0
 43
0
 10
340581.8361928745
 20
7370794.686848259
 10
340602.4864546881
 20
7370790.918738926
 10
340618.2306351917
 20
7370800.186721468
 10
340627.7139719857
 20
7370823.95568827
 10
340628.6707114386
 20
7370826.353653119
 10
340620.709981912
 20
7370859.081197062
 10
340613.1469879362
 20
7370874.365391115
 10
340606.7546138969
 20
7370883.566655785
 10
340602.0787106652
 20
7370892.193566606
 10
340599.204772954
 20
7370907.271805492
 10
340600.3885459243
 20
7370909.096394233
 10
340603.8412170873
 20
7370911.669383438
 10
340623.3142824464
 20
7370926.715713777
 10
340637.5984762863
 20
7370929.485955822
 10
340657.6305455487
 20
7370933.242462048
 10
340670.5205178905
 20
7370929.799239738
 10
340682.6081552198
 20
7370918.912623627
 10
340689.5989922602
 20
7370916.182992462
 10
340693.3015710497
 20
7370918.860409642
 10
340695.5573162099
 20
7370922.434166916
 10
340696.3662277394
 20
7370927.533732895
 10
340705.0011939054
 20
7370956.6140224
 10
340716.7008167602
 20
7370975.941899604
 10
340720.5743849802
 20
7370983.597050127
 10
340721.2123070805
 20
7370989.210053639
 10
340722.317161852
 20
7370996.589630347
 10
340722.8695892384
 20
7371008.111516623
 10
340721.8896882799
 20
7371025.240604855
 10
340725.9276694114
 20
7371033.913928108
 10
340729.2882693431
 20
7371041.015030224
 10
340730.7811385895
 20
7371047.475060621
 10
340737.147206562
 20
7371110.213065751
 10
340737.147206562
 20
7371137.802355872
 10
340714.9514633709
 20
7371192.107802242
 10
340700.5028566183
 20
7371234.862354563
 10
340718.6803482272
 20
7371284.094341941
 10
340727.5191864045
 20
7371317.711446688
 10
340713.9255267971
 20
7371417.501076539
 10
340696.4122633548
 20
7371479.751751131
 10
340683.5025614633
 20
7371510.311436911
 10
340668.0411711703
 20
7371534.080403713
 10
340648.1603617874
 20
7371547.661841664
 10
340585.0915685429
 20
7371586.471337256
 10
340547.2042569805
 20
7371610.919085878
 10
340486.1478777856
 20
7371645.319400418
 10
340461.4399052916
 20
7371671.234942206
 10
340452.1012518599
 20
7371690.951523532
 10
340446.7479674277
 20
7371705.841211912
 10
340441.5985550081
 20
7371741.485959788
 10
340439.9215432999
 20
7371767.389898468
 10
340397.3057163736
 20
7372001.375274265
 10
340387.1055392805
 20
7372050.740697387
 10
340363.7325996356
 20
7372129.505495485
 10
340323.9183687391
 20
7372247.320553665
 10
340302.6038787594
 20
7372320.695708082
 10
340296.3956471822
 20
7372342.866346755
 10
340292.0880288741
 20
7372390.436188907
 10
340299.6312933007
 20
7372417.63097336
 10
340307.4705009704
 20
7372436.253961751
 10
340391.7288303802
 20
7372527.054083652
  0
LWPOLYLINE
  5
11A
100
AcDbEntity
  8
ESTRADA LUIZ MARSON - 30_12_20 - etapa 01 - DJI_0025
  6
ByLayer
 62
  256
370
   -1
100
AcDbPolyline
 90
    5
 70
    0
 43
0
 10
339510.3705691877
 20
7372069.861426629
 10
339386.5677228423
 20
7372172.700579239
 10
339369.1840519846
 20
7372191.076185402
 10
339360.1566247927
 20
7372199.753199914
 10
339103.1185626328
 20
7372411.060546958
  0
LWPOLYLINE
  5
11B
100
AcDbEntity
  8
ESTRADA LUIZ MARSON - 30_12_20 - etapa 01 - DJI_0025
  6
ByLayer
 62
  256
370
   -1
100
AcDbPolyline
 90
    9
 70
    0
 43
0
 10
338750.8393653369
 20
7372670.953891916
 10
338894.2002071349
 20
7372551.490334608
 10
339061.0974982472
 20
7372415.973638092
 10
339066.5796187717
 20
7372412.589194175
 10
339076.6727753797
 20
7372410.190304539
 10
339087.0932894453
 20
7372410.081267623
 10
339097.3500809823
 20
7372411.825897025
 10
339100.7327163095
 20
7372413.406990418
 10
339102.2602676456
 20
7372415.315155827
  0
LWPOLYLINE
  5
11C
100
AcDbEntity
  8
RUA ANTONIO BATTISTINI - 30_12_20 - etapa 01 - DJI_0026
  6
ByLayer
 62
  256
370
   -1
100
AcDbPolyline
 90
   14
 70
    0
 43
0
 10
339102.406295176
 20
7372415.295517559
 10
339126.5324609486
 20
7372447.596319378
 10
339148.4802148265
 20
7372472.621783024
 10
339151.2940698565
 20
7372473.465337543
 10
339154.6706608528
 20
7372472.621783024
 10
339160.016827732
 20
7372467.560455906
 10
339163.5341027197
 20
7372464.326843162
 10
339483.0010803482
 20
7372202.537262943
 10
339500.3318414108
 20
7372186.568060861
 10
339518.3379031527
 20
7372171.273609431
 10
339525.0360729747
 20
7372163.472996082
 10
339529.0479319083
 20
7372157.930047292
 10
339538.2309349215
 20
7372149.375278077
 10
339552.0180699822
 20
7372139.546631842
  0
LWPOLYLINE
  5
11D
100
AcDbEntity
  8
RUA ÁGUAS DE SANTA BÁRBARA - 30_12_20 - etapa 01 - DJI_0010
  6
ByLayer
 62
  256
370
   -1
100
AcDbPolyline
 90
   16
 70
    0
 43
0
 10
339031.6616067791
 20
7372223.595099788
 10
339019.6539740589
 20
7372232.847046788
 10
339010.4703578523
 20
7372240.700803528
 10
338998.1392220306
 20
7372250.801185562
 10
338991.1364704911
 20
7372256.07136776
 10
338978.4010652913
 20
7372264.959716346
 10
338974.5554692567
 20
7372267.965029417
 10
338960.4804125727
 20
7372278.360605179
 10
338948.9542239485
 20
7372288.273009893
 10
338926.7507685937
 20
7372305.216339655
 10
338904.2604265191
 20
7372323.015812568
 10
338879.2541536086
 20
7372342.059197217
 10
338857.6283260505
 20
7372358.499872603
 10
338846.7550127618
 20
7372367.209811227
 10
338832.0618575441
 20
7372378.790655073
 10
338775.7493669481
 20
7372422.473167951
  0
LWPOLYLINE
  5
11E
100
AcDbEntity
  8
RUA ÁGUAS DE SANTA CLARA - 30_12_20 - etapa 01 - DJI_0011
  6
ByLayer
 62
  256
370
   -1
100
AcDbPolyline
 90
   10
 70
    0
 43
0
 10
339016.5968566099
 20
7372199.63424703
 10
338996.9059157306
 20
7372215.985949841
 10
338991.728814919
 20
7372220.009780042
 10
338943.630132017
 20
7372258.340575123
 10
338920.0191359547
 20
7372277.251023822
 10
338889.3491497954
 20
7372300.876825309
 10
338862.3791701352
 20
7372322.149637244
 10
338834.8944587598
 20
7372343.121561523
 10
338772.3676952099
 20
7372391.186506294
 10
338758.8144657598
 20
7372402.459451578
  0
LWPOLYLINE
  5
11F
100
AcDbEntity
  8
RUA AGUAS DE PRATA - 30_12_20 - etapa 01 - DJI_0012
  6
ByLayer
 62
  256
370
   -1
100
AcDbPolyline
 90
   12
 70
    0
 43
0
 10
338874.4489692263
 20
7372250.753040061
 10
338848.7404440627
 20
7372269.951011936
 10
338842.8786694789
 20
7372273.801273958
 10
338836.5962445037
 20
7372277.51623724
 10
338827.4117523073
 20
7372281.88046404
 10
338811.7566724872
 20
7372294.323261172
 10
338801.8898716915
 20
7372301.282566588
 10
338764.6351564138
 20
7372331.908150782
 10
338739.5327874016
 20
7372350.732609445
 10
338731.0628402361
 20
7372357.771436278
 10
338728.9782468685
 20
7372360.10715035
 10
338728.7676588763
 20
7372362.022016784
  0
LWPOLYLINE
  5
120
100
AcDbEntity
  8
RUA SANTE BATTISTINI - 30_12_20 - etapa 01 - DJI_0005
  6
ByLayer
 62
  256
370
   -1
100
AcDbPolyline
 90
   11
 70
    0
 43
0
 10
338888.6625488451
 20
7372263.634811289
 10
338926.2989329596
 20
7372233.778799198
 10
338957.5099000842
 20
7372209.019911386
 10
338969.9531054743
 20
7372198.234739804
 10
338980.1982463445
 20
7372188.952580089
 10
339011.6343733448
 20
7372162.107536268
 10
339051.6015040122
 20
7372131.393715449
 10
339077.9224626924
 20
7372109.988664777
 10
339090.8569804159
 20
7372098.236111999
 10
339184.3101323936
 20
7372016.072011603
 10
339270.2212133688
 20
7371943.118804482
  0
LWPOLYLINE
  5
121
100
AcDbEntity
  8
RUA DA CONQUISTA - 30_12_20 - etapa 01 - DJI_0002 - DJI_0003
  6
ByLayer
 62
  256
370
   -1
100
AcDbPolyline
 90
   15
 70
    0
 43
0
 10
339082.105356575
 20
7371792.807921832
 10
339060.0475366513
 20
7371807.5028275
 10
339042.2147457281
 20
7371822.182721301
 10
339026.387971871
 20
7371834.638339471
 10
339013.6698236738
 20
7371839.573741538
 10
339003.4676063129
 20
7371844.309507271
 10
338998.4481836983
 20
7371845.833351443
 10
338925.09619871
 20
7371905.106942641
 10
338918.7518880885
 20
7371910.233594283
 10
338887.491963428
 20
7371928.724997277
 10
338884.2679698871
 20
7371929.088828096
 10
338866.4879135613
 20
7371938.692172222
 10
338845.7161762383
 20
7371949.534508836
 10
338829.5377800011
 20
7371958.404652324
 10
338812.5028791206
 20
7371971.838625958
  0
LWPOLYLINE
  5
122
100
AcDbEntity
  8
RUA DAS FLORES - 30_12_20 - etapa 01 - DJI_0001
  6
ByLayer
 62
  256
370
   -1
100
AcDbPolyline
 90
    9
 70
    0
 43
0
 10
339112.3486226562
 20
7371822.282999683
 10
338853.059337486
 20
7372025.859924434
 10
338799.3921607129
 20
7372067.995868465
 10
338755.3890821215
 20
7372105.660034756
 10
338747.5799818005
 20
7372108.661435667
 10
338723.1016680538
 20
7372095.005133184
 10
338617.1109094148
 20
7372181.306981213
 10
338545.3445538983
 20
7372249.139873537
 10
338428.6911575622
 20
7372350.315402827
  0
LWPOLYLINE
  5
123
100
AcDbEntity
  8
RUA ALAMEDA DAS PAINEIRAS - 30_12_20 - etapa 01 - DJI_0004 - DJI_0001
  6
ByLayer
 62
  256
370
   -1
100
AcDbPolyline
 90
    7
 70
    0
 43
0
 10
338792.4868215654
 20
7371988.319275206
 10
338822.0718925564
 20
7372019.336495545
 10
338836.6212102183
 20
7372038.820947112
 10
338839.0955315303
 20
7372047.227983897
 10
338901.8180788421
 20
7372133.092715902
 10
338903.8911091415
 20
7372137.431300626
 10
338958.7285651252
 20
7372207.963631177
  0
LWPOLYLINE
  5
124
100
AcDbEntity
  8
RUA ALAMEDA DAS PAINEIRAS - 30_12_20 - etapa 01 - DJI_0004 - DJI_0001
  6
ByLayer
 62
  256
370
   -1
100
AcDbPolyline
 90
   10
 70
    0
 43
0
 10
338848.2169116365
 20
7372029.661879312
 10
338854.7269596208
 20
7372039.142596332
 10
338885.2933161647
 20
7372084.047368498
 10
338892.0603387991
 20
7372093.642074887
 10
338898.4568176701
 20
7372102.525310554
 10
338908.5303521023
 20
7372115.703593646
 10
338922.5038815471
 20
7372132.624806149
 10
338937.5992127682
 20
7372150.904461867
 10
338942.1769522307
 20
7372156.766973935
 10
338973.1600151417
 20
7372195.329260208
  0
LWPOLYLINE
  5
125
100
AcDbEntity
  8
RUA DA ÁRVORE - 30_12_20 - etapa 01 - DJI_0006
  6
ByLayer
 62
  256
370
   -1
100
AcDbPolyline
 90
    2
 70
    0
 43
0
 10
338902.5093566361
 20
7372134.539471058
 10
338915.3371577313
 20
7372123.946278857
  0
LWPOLYLINE
  5
126
100
AcDbEntity
  8
ESTRADA ARTHUR MARSON - 30_12_20 - etapa 01 - DJI_0007
  6
ByLayer
 62
  256
370
   -1
100
AcDbPolyline
 90
    5
 70
    0
 43
0
 10
338888.6768274818
 20
7372088.844721694
 10
338932.9102045748
 20
7372053.181786887
 10
338984.7807251543
 20
7372013.018513126
 10
339039.9214423413
 20
7371970.32313056
 10
339169.5825948009
 20
7371866.796527081
  0
LWPOLYLINE
  5
127
100
AcDbEntity
  8
RUA IPÓLITO MINUCCI - 30_12_20 - etapa 01 - DJI_0017
  6
ByLayer
 62
  256
370
   -1
100
AcDbPolyline
 90
    4
 70
    0
 43
0
 10
338872.7597026213
 20
7372065.634344369
 10
339019.5779381282
 20
7371951.42632839
 10
339127.6898189168
 20
7371865.798882407
 10
339146.6435695609
 20
7371849.314491725
  0
LWPOLYLINE
  5
128
100
AcDbEntity
  8
RUA ALAMEDA DAS PAINEIRAS - 30_12_20 - etapa 01 - DJI_0004 - DJI_0001
  6
ByLayer
 62
  256
370
   -1
100
AcDbPolyline
 90
    2
 70
    0
 43
0
 10
338814.3678534123
 20
7371988.788389849
 10
338848.216911636
 20
7372029.661879312
  0
LWPOLYLINE
  5
129
100
AcDbEntity
  8
MCT RUA PROF. BENEDITO CARLOS DOS SANTOS
  6
ByLayer
 62
  256
370
   -1
100
AcDbPolyline
 90
    7
 70
    0
 43
0
 10
338823.7846850608
 20
7372000.159423178
 10
338860.808782889
 20
7371973.367538564
 10
338863.4315845033
 20
7371971.81778118
 10
338873.1753087061
 20
7371971.056575678
 10
338874.7940505997
 20
7371970.993128976
 10
338879.3009314738
 20
7371969.62933473
 10
338901.4936997506
 20
7371951.108978674
  0
LWPOLYLINE
  5
12A
100
AcDbEntity
  8
RUA PEDRO ZAMPIERRI - 30_12_20 - etapa 01 - DJI_0015
  6
ByLayer
 62
  256
370
   -1
100
AcDbPolyline
 90
    5
 70
    0
 43
0
 10
338939.7693500809
 20
7372153.68366245
 10
338949.326957687
 20
7372147.011133063
 10
339033.2615148879
 20
7372124.636331682
 10
339040.6468112539
 20
7372126.393510982
 10
339046.6804489455
 20
7372135.175433101
  0
LWPOLYLINE
  5
12B
100
AcDbEntity
  8
PASSAGEM SÃO RAFAEL - 30_12_20 - etapa 01 - DJI_0014
  6
ByLayer
 62
  256
370
   -1
100
AcDbPolyline
 90
    4
 70
    0
 43
0
 10
338991.5357561674
 20
7372179.270854728
 10
338965.5043027361
 20
7372145.371086137
 10
338966.2076350951
 20
7372138.459501319
 10
338945.5484130028
 20
7372110.143351043
  0
LWPOLYLINE
  5
12C
100
AcDbEntity
  8
PASSAGEM DE ACÁCIA - 30_12_20 - etapa 01 - DJI_0013
  6
ByLayer
 62
  256
370
   -1
100
AcDbPolyline
 90
    4
 70
    0
 43
0
 10
339013.2758891525
 20
7372160.846069117
 10
338995.4286462198
 20
7372138.491457079
 10
338995.6702442577
 20
7372130.280880416
 10
338986.7290144803
 20
7372118.568727462
  0
LWPOLYLINE
  5
12D
100
AcDbEntity
  8
RUA DA ÁRVORE - 30_12_20 - etapa 01 - DJI_0006
  6
ByLayer
 62
  256
370
   -1
100
AcDbPolyline
 90
   19
 70
    0
 43
0
 10
338920.8849161791
 20
7372130.664323857
 10
338966.6501852353
 20
7372092.585869332
 10
338982.9487672987
 20
7372085.217801364
 10
338994.2026106368
 20
7372078.043637058
 10
339004.5067932322
 20
7372069.270290462
 10
339013.2382234082
 20
7372060.932742928
 10
339021.1934388587
 20
7372051.625715821
 10
339035.9584252549
 20
7372031.609249317
 10
339049.9287135366
 20
7372015.515826492
 10
339052.839190262
 20
7372012.801291442
 10
339075.3467893393
 20
7371996.707868619
 10
339092.5122510918
 20
7371985.978674753
 10
339094.8607802415
 20
7371984.685454313
 10
339107.3707056195
 20
7371980.805792994
 10
339114.8478057358
 20
7371978.842005201
 10
339124.4950834416
 20
7371974.278529414
 10
339166.4253952645
 20
7371941.112172024
 10
339199.7871234497
 20
7371913.264763253
 10
339212.3495141798
 20
7371899.389577086
  0
LWPOLYLINE
  5
12E
100
AcDbEntity
  8
RUA GIUSEPPE VENTURINE - 30_12_20 - etapa 01 - DJI_0020
  6
ByLayer
 62
  256
370
   -1
100
AcDbPolyline
 90
    3
 70
    0
 43
0
 10
339712.3634493656
 20
7372375.848472366
 10
339472.2750209761
 20
7372570.637217176
 10
339503.8081200676
 20
7372609.440182777
  0
LWPOLYLINE
  5
12F
100
AcDbEntity
  8
MCT - RUA JOÃO ANTUNES
  6
ByLayer
 62
  256
370
   -1
100
AcDbPolyline
 90
    2
 70
    0
 43
0
 10
338665.8277661538
 20
7370199.632157786
 10
338643.1986636392
 20
7370178.726538092
  0
LWPOLYLINE
  5
130
100
AcDbEntity
  8
RUA DUAS PITANGUEIRAS - 30_12_20 - etapa 04 - DJI_0030
  6
ByLayer
 62
  256
370
   -1
100
AcDbPolyline
 90
    5
 70
    0
 43
0
 10
338735.771276026
 20
7370246.40928074
 10
338750.2566560627
 20
7370217.954125937
 10
338776.6155984981
 20
7370176.783818416
 10
338786.3300691754
 20
7370158.037332378
 10
338798.2020648277
 20
7370127.437116009
  0
LWPOLYLINE
  5
131
100
AcDbEntity
  8
MCT - TV. DAS GOIABEIRAS
  6
ByLayer
 62
  256
370
   -1
100
AcDbPolyline
 90
    2
 70
    0
 43
0
 10
338804.5725320719
 20
7370246.690490453
 10
338829.7568765961
 20
7370202.119795293
  0
LWPOLYLINE
  5
132
100
AcDbEntity
  8
RUA DAS AROEIRAS - 30_12_20 - etapa 04 - DJI_0031 - DJI_0032 - DJI_0033
  6
ByLayer
 62
  256
370
   -1
100
AcDbPolyline
 90
   11
 70
    0
 43
0
 10
338777.5151065213
 20
7370175.04799408
 10
338783.4043444328
 20
7370179.262760384
 10
338808.5978853793
 20
7370187.839168298
 10
338818.218434101
 20
7370192.542385398
 10
338826.27431997
 20
7370197.340019046
 10
338829.7568765961
 20
7370202.119795293
 10
338832.6115084981
 20
7370205.174864763
 10
338845.7638081067
 20
7370210.515078138
 10
338889.3555062523
 20
7370226.680003868
 10
338902.7766062787
 20
7370233.210326637
 10
338930.9507734884
 20
7370243.731249851
  0
LWPOLYLINE
  5
133
100
AcDbEntity
  8
RUA GINÉS GONSALES - 30_12_20  - etapa 04 - DJI_0027
  6
ByLayer
 62
  256
370
   -1
100
AcDbPolyline
 90
   14
 70
    0
 43
0
 10
338935.3863396284
 20
7370180.088571613
 10
338928.1590457422
 20
7370283.787699263
 10
338923.2701412105
 20
7370290.150228294
 10
338911.4457764617
 20
7370294.126805507
 10
338873.1091792163
 20
7370301.542756638
 10
338841.5017736934
 20
7370303.474236217
 10
338780.3933827239
 20
7370300.512979825
 10
338706.7873542299
 20
7370303.020888639
 10
338650.4920006415
 20
7370304.938987147
 10
338581.8130881976
 20
7370300.288651362
 10
338500.2542770643
 20
7370287.779829697
 10
338456.4148524789
 20
7370281.056098241
 10
338450.0314655394
 20
7370280.235283334
 10
338448.6646572551
 20
7370280.375370128
  0
LWPOLYLINE
  5
134
100
AcDbEntity
  8
RUA LUIGI BATISTINI - 30_12_20 - etapa 01 - DJI_0027
  6
ByLayer
 62
  256
370
   -1
100
AcDbPolyline
 90
    5
 70
    0
 43
0
 10
338667.78004786
 20
7372633.849028758
 10
339258.962341896
 20
7372155.643635363
 10
339316.1106466486
 20
7372083.145777748
 10
339329.1629563079
 20
7372068.613416318
 10
339387.4972802861
 20
7372012.033656042
  0
LWPOLYLINE
  5
135
100
AcDbEntity
  8
RUA ASSUMPTA SABATINI ROSSI - 30_12_20 - etapa 01 - DJI_0024
  6
ByLayer
 62
  256
370
   -1
100
AcDbPolyline
 90
    4
 70
    0
 43
0
 10
339037.1449289198
 20
7372695.600021907
 10
339011.5021251003
 20
7372722.904310948
 10
338879.0772357429
 20
7372724.81284302
 10
338854.884166275
 20
7372734.673521073
  0
LWPOLYLINE
  5
136
100
AcDbEntity
  8
RUA ANTONIA MARIA SALATIEL - 30_12_20 - etapa 01 - DJI_0009
  6
ByLayer
 62
  256
370
   -1
100
AcDbPolyline
 90
    2
 70
    0
 43
0
 10
339122.6353052167
 20
7372263.834374447
 10
339075.2042932752
 20
7372203.397900709
  0
ENDSEC
  0
SECTION
  2
OBJECTS
  0
DICTIONARY
  5
C
330
0
100
AcDbDictionary
281
    1
  3
ACAD_GROUP
350
D
  0
DICTIONARY
  5
D
330
C
100
AcDbDictionary
281
    1
  0
ENDSEC
  0
EOF
